<?xml version="1.0" encoding="UTF-8"?>
<svg version="1.1" xmlns="http://www.w3.org/2000/svg" width="900" height="550">
<path d="M0 0 C120.12 0 240.24 0 364 0 C363.37313546 10.65669711 362.69226792 21.24676074 361.70959473 31.86697388 C361.58134378 33.2749432 361.45333304 34.68293442 361.3255372 36.09094512 C360.97872826 39.9043822 360.62855676 43.71750366 360.27776074 47.53057575 C359.8981186 51.66387333 359.5216823 55.79746312 359.14482117 59.93101501 C358.40830239 68.0038698 357.66886265 76.07645442 356.92838132 84.1489466 C356.0653986 93.55799732 355.20524571 102.96730612 354.3451696 112.3766229 C352.81069535 129.16275072 351.27351496 145.94862963 349.73486328 162.734375 C348.24274386 179.01249359 346.75279379 195.29080892 345.26513672 211.56933594 C343.64264664 229.3232212 342.01904809 247.07700439 340.39343977 264.83060443 C340.22015337 266.72310757 340.04686709 268.61561071 339.87358093 270.50811386 C339.78832921 271.43914747 339.7030775 272.37018107 339.61524239 273.32942782 C339.01498187 279.88559151 338.41547742 286.44182408 337.8162384 292.99808121 C337.08649635 300.98177675 336.35544016 308.96535071 335.62272465 316.94877394 C335.24905486 321.02046429 334.87594863 325.09220415 334.50438499 329.1640873 C334.16419946 332.89190292 333.82236288 336.61956335 333.47921342 340.34710728 C333.29688631 342.3322966 333.11630386 344.31764593 332.93578577 346.30300057 C332.41951445 351.89402993 331.87767366 357.45333483 331 363 C322.044321 366.15186784 312.89299881 368.57648425 303.7421875 371.0859375 C301.93084519 371.58470163 300.11956725 372.08369959 298.30834961 372.58291626 C292.49812343 374.18352342 286.686657 375.77959705 280.875 377.375 C273.93856126 379.27948779 267.00218171 381.1841899 260.06616592 383.09021759 C258.10512994 383.62910195 256.14405764 384.16785416 254.18294907 384.7064743 C242.52295885 387.90987267 230.87542684 391.1498285 219.25 394.4765625 C217.07574695 395.09478667 214.90143405 395.7128004 212.72705078 396.33056641 C208.95963132 397.40123392 205.19890955 398.49198211 201.44091797 399.59521484 C199.7915959 400.06437309 198.14203664 400.53269865 196.4921875 401 C195.80745361 401.20815338 195.12271973 401.41630676 194.41723633 401.63076782 C180.98052078 405.35699307 168.76537435 401.75960185 155.8359375 398.0234375 C153.97390129 397.49898308 152.1114277 396.97607938 150.24855042 396.45462036 C145.3027967 395.0659851 140.36294089 393.65739913 135.42399216 392.24478149 C130.33239392 390.79230878 125.23554553 389.35852696 120.13891602 387.92382812 C114.06772428 386.21373401 107.9969397 384.50227803 101.92854309 382.7822876 C90.55032249 379.55769419 79.16402245 376.36773622 67.75390625 373.2578125 C66.52784668 372.92349213 65.30178711 372.58917175 64.03857422 372.24472046 C59.60446951 371.03764584 55.16955029 369.83361525 50.73382568 368.63250732 C47.85175566 367.85145497 44.97072969 367.06665599 42.08984375 366.28125 C41.26521133 366.05954132 40.44057892 365.83783264 39.59095764 365.60940552 C34.11326523 364.11326523 34.11326523 364.11326523 33 363 C32.70298638 360.91341726 32.47194038 358.81746605 32.26409912 356.72012329 C32.19532515 356.03555801 32.12655118 355.35099273 32.05569315 354.64568305 C31.81834648 352.2650618 31.58822074 349.88380026 31.35839844 347.50244141 C31.184936 345.73525921 31.01137738 343.96808646 30.83773422 342.20092201 C28.08870563 314.04491153 25.54937468 285.86804596 22.97309096 257.69581797 C22.41833377 251.62944462 21.86296819 245.56312723 21.30721283 239.49684525 C21.1453719 237.73024198 20.98353106 235.96363871 20.82169032 234.19703543 C20.74108744 233.31720058 20.66048455 232.43736572 20.57743916 231.5308692 C19.06732059 215.0459045 17.55939205 198.56074002 16.05214843 182.07551225 C14.67419481 167.00518221 13.29330635 151.93512272 11.91110113 136.86518209 C10.48509417 121.31736488 9.06110075 105.76936444 7.63927436 90.22116435 C6.84357316 81.52028694 6.04706734 72.819485 5.24842072 64.11887741 C4.57120939 56.74099303 3.89588509 49.36293894 3.22302327 41.98465656 C2.88007339 38.22461292 2.53624636 34.46465497 2.19005394 30.70490837 C1.81509967 26.63250699 1.44435607 22.55973332 1.07403564 18.48690796 C0.96392662 17.29823919 0.8538176 16.10957042 0.74037194 14.88488138 C0.64182027 13.79336664 0.54326859 12.70185191 0.4417305 11.57726097 C0.35580367 10.63825144 0.26987685 9.69924191 0.18134618 8.73177755 C-0.01148768 5.82695089 0 2.91122016 0 0 Z " fill="#E44D26" transform="translate(50,122)"/>
<path d="M0 0 C117.48 0 234.96 0 356 0 C355.39649499 12.07010014 354.76902742 24.09423676 353.84375 36.13671875 C353.73537861 37.56304719 353.6271045 38.98938302 353.5189209 40.41572571 C353.29552152 43.35224426 353.07008959 46.2885979 352.84326172 49.22485352 C352.55250181 52.99262165 352.26851031 56.76086902 351.98607635 60.52926922 C351.76617791 63.45044713 351.54212755 66.37129529 351.31684875 69.29206276 C351.21013744 70.68387615 351.1048927 72.0758028 351.00114441 73.46784019 C350.85731741 75.39124318 350.70714924 77.31416887 350.55664062 79.23706055 C350.47305298 80.32923386 350.38946533 81.42140717 350.30334473 82.54667664 C350 85 350 85 349 86 C348.69502626 88.79452975 348.45077151 91.57285794 348.24389648 94.37524414 C348.14126495 95.69219521 348.14126495 95.69219521 348.03656006 97.03575134 C347.81039327 99.95190262 347.59073364 102.8685067 347.37109375 105.78515625 C347.2159799 107.80157998 347.06046255 109.81797271 346.90455627 111.83433533 C346.49446237 117.15233503 346.08987489 122.47074007 345.68640137 127.78924561 C345.27405271 133.21196418 344.85654105 138.63428488 344.43945312 144.05664062 C343.62122519 154.70404231 342.80880912 165.35187898 342 176 C341.34 176 340.68 176 340 176 C340.01228134 176.76169495 340.02456268 177.52338989 340.03721619 178.3081665 C340.11485322 186.99745745 339.6346388 195.57675102 338.94140625 204.234375 C338.83139297 205.64827118 338.72169342 207.0621918 338.61228943 208.47613525 C338.3843374 211.40753278 338.1528548 214.33862276 337.91870117 217.26953125 C337.61839721 221.03176392 337.32689134 224.79461978 337.03788853 228.55773544 C336.81389814 231.46265103 336.58553145 234.36720941 336.35578728 237.27167511 C336.24641805 238.66070472 336.13838672 240.04984033 336.03170967 241.43907928 C335.88308419 243.36565843 335.72796809 245.2917336 335.57250977 247.21777344 C335.48590591 248.31329529 335.39930206 249.40881714 335.31007385 250.53753662 C335 253 335 253 334 254 C333.72578583 256.39791028 333.51202309 258.77612028 333.33569336 261.18188477 C333.27702591 261.93305573 333.21835846 262.68422668 333.15791321 263.4581604 C332.96421235 265.9522616 332.7770175 268.44680741 332.58984375 270.94140625 C332.45715015 272.66636677 332.32405301 274.3912963 332.19056702 276.11619568 C331.83965692 280.66480777 331.49425265 285.21382208 331.14996338 289.76293945 C330.79793837 294.40145798 330.44074924 299.03957843 330.08398438 303.67773438 C329.38424587 312.78477245 328.69031873 321.89224341 328 331 C327.34 331 326.68 331 326 331 C326.02320313 331.70640625 326.04640625 332.4128125 326.0703125 333.140625 C326.25293565 343.52405552 325.15097389 353.69261774 324 364 C314.44055914 367.26429421 314.44055914 367.26429421 310.1875 368.1875 C309.12595703 368.42533203 309.12595703 368.42533203 308.04296875 368.66796875 C306 369 306 369 302 369 C302 369.66 302 370.32 302 371 C297.91846379 372.00743388 293.83449971 373.0046554 289.75 374 C288.59113281 374.28617187 287.43226563 374.57234375 286.23828125 374.8671875 C285.12324219 375.13789063 284.00820313 375.40859375 282.859375 375.6875 C281.83295898 375.93886719 280.80654297 376.19023437 279.74902344 376.44921875 C277 377 277 377 273 377 C273 377.66 273 378.32 273 379 C272.28980713 379.16604736 271.57961426 379.33209473 270.84790039 379.50317383 C267.58507074 380.26863382 264.32379308 381.04052072 261.0625 381.8125 C259.94552734 382.07353516 258.82855469 382.33457031 257.67773438 382.60351562 C252.0082683 383.95022164 246.4764131 385.42215464 240.97290039 387.3371582 C238.08486775 388.30745998 235.15592563 389.00910527 232.1875 389.6875 C231.10855469 389.93886719 230.02960938 390.19023438 228.91796875 390.44921875 C226 391 226 391 222 391 C222 391.66 222 392.32 222 393 C217.91846379 394.00743388 213.83449971 395.0046554 209.75 396 C208.59113281 396.28617188 207.43226563 396.57234375 206.23828125 396.8671875 C205.12324219 397.13789062 204.00820313 397.40859375 202.859375 397.6875 C201.83295898 397.93886719 200.80654297 398.19023438 199.74902344 398.44921875 C197 399 197 399 193 399 C193 399.66 193 400.32 193 401 C191.21489387 401.5428931 189.42133108 402.05798888 187.625 402.5625 C186.62726563 402.85253906 185.62953125 403.14257812 184.6015625 403.44140625 C176.37817917 404.71683338 168.76400066 402.5973652 160.9375 400.1875 C151.69322987 397.43720723 142.41196524 395.09703026 133 393 C133 392.34 133 391.68 133 391 C131.85402344 390.87367188 130.70804688 390.74734375 129.52734375 390.6171875 C125.12845788 390.06551204 120.86948296 389.16270927 116.5625 388.125 C115.43630249 387.85719727 115.43630249 387.85719727 114.28735352 387.58398438 C109.9127475 386.52370415 105.67207745 385.30148587 101.43359375 383.78125 C97.35798003 382.47286678 93.18562227 381.51559652 89.02124023 380.53320312 C85.5106289 379.68957123 82.1047134 378.72328542 78.69140625 377.54296875 C73.52010897 375.77772893 68.25835022 374.5381099 62.9375 373.3125 C61.97650391 373.08755859 61.01550781 372.86261719 60.02539062 372.63085938 C57.68444298 372.08347361 55.34267692 371.53992759 53 371 C53 370.34 53 369.68 53 369 C51.948125 368.896875 50.89625 368.79375 49.8125 368.6875 C43.77734301 367.94805734 37.90153295 366.43040204 32 365 C29.93029689 358.84504303 29.39947655 352.85440453 28.9296875 346.3984375 C28.84373322 345.28497955 28.75777893 344.17152161 28.66921997 343.02432251 C28.48936589 340.67289233 28.31307885 338.32118692 28.14013672 335.96923828 C27.87736887 332.40711275 27.60170612 328.84616201 27.32421875 325.28515625 C27.15026786 322.98964184 26.97706705 320.69407044 26.8046875 318.3984375 C26.72346649 317.35005707 26.64224548 316.30167664 26.55856323 315.2215271 C26.02183859 307.80421425 25.91264316 300.43532016 26 293 C25.34 293 24.68 293 24 293 C23.34206361 284.75003827 22.68972691 276.49965983 22.04424286 268.2487154 C21.74424566 264.41616237 21.4424291 260.58377195 21.13623047 256.75170898 C20.83997756 253.04322654 20.54879643 249.33437556 20.26091003 245.6252346 C20.15104691 244.22075791 20.0394551 242.81641517 19.92597961 241.41222572 C19.21422486 232.58722161 18.85192872 223.85389852 19 215 C18.34 215 17.68 215 17 215 C16.91452408 213.87469376 16.82904816 212.74938751 16.74098206 211.58998108 C15.93667545 201.00901403 15.12758476 190.42842238 14.31375217 179.84818363 C13.89546199 174.4081669 13.47888601 168.96802999 13.06616211 163.52758789 C12.66814527 158.28183314 12.26571126 153.03643464 11.86015129 147.79125786 C11.7058515 145.78541664 11.55317101 143.77945021 11.40210152 141.77336311 C11.19099493 138.9736459 10.9742466 136.17442059 10.75610352 133.37524414 C10.69424362 132.53727295 10.63238373 131.69930176 10.56864929 130.8359375 C10.59693919 127.10700206 10.59693919 127.10700206 9 124 C8.7578946 122.04766853 8.58006669 120.08733671 8.42749023 118.12597656 C8.32746201 116.86666321 8.22743378 115.60734985 8.12437439 114.30987549 C8.0188706 112.9201438 7.91361698 111.53039309 7.80859375 110.140625 C7.69817907 108.71586138 7.58750324 107.29111798 7.47657776 105.86639404 C7.24414555 102.86704417 7.01509276 99.86745945 6.78833008 96.86767578 C6.50006821 93.05817037 6.20335368 89.24938222 5.90394497 85.44073868 C5.67297314 82.48953368 5.44680705 79.53797433 5.22197151 76.58629608 C5.11461949 75.18463516 5.00581141 73.78308484 4.89541435 72.38166046 C4.20427583 63.56832594 3.85698151 54.84052448 4 46 C3.34 46 2.68 46 2 46 C1.6526086 42.08445548 1.32499126 38.16746216 1 34.25 C0.90460938 33.1775 0.80921875 32.105 0.7109375 31 C-0.13826803 20.56690354 0 10.59060305 0 0 Z " fill="#0070BB" transform="translate(494,123)"/>
<path d="M0 0 C73.59 0 147.18 0 223 0 C223 8.67519135 222.56894822 16.74889285 221.625 25.3125 C221.49867188 26.54806641 221.37234375 27.78363281 221.2421875 29.05664062 C221.11328125 30.25095703 220.984375 31.44527344 220.8515625 32.67578125 C220.67874756 34.2832019 220.67874756 34.2832019 220.50244141 35.9230957 C219.97736182 39.13863411 219.2203846 41.97899414 218 45 C215.72265625 46.4609375 215.72265625 46.4609375 213.0625 47.375 C212.18722656 47.69210938 211.31195312 48.00921875 210.41015625 48.3359375 C208 49 208 49 205 49 C205 49.66 205 50.32 205 51 C204.154375 51.31453125 203.30875 51.6290625 202.4375 51.953125 C195.11379751 54.66688223 195.11379751 54.66688223 188.0625 58 C184.49347994 59.87922925 180.8078478 61.1755312 177 62.5 C172.46989595 64.07903733 168.19723987 65.74487375 163.95703125 67.9765625 C156.45835064 71.89802821 148.64915273 74.93100063 140.71533203 77.82836914 C137.15313222 79.14289877 133.73060476 80.53486677 130.375 82.3125 C127.13659084 83.93170458 124.58096131 84.64190387 121 85 C121 85.66 121 86.32 121 87 C119.515 87.495 119.515 87.495 118 88 C150.01 88.33 182.02 88.66 215 89 C215 96.9214038 214.85102751 104.52956842 214.125 112.375 C214.04636719 113.30054688 213.96773437 114.22609375 213.88671875 115.1796875 C213.43967375 120.18659153 212.83697641 125.12828211 212.0546875 130.09375 C210.39895553 141.36908413 209.80608545 152.76423322 209 164.125 C208.67009836 168.73202492 208.33697453 173.33879945 208 177.9453125 C207.91849701 179.05998901 207.83699402 180.17466553 207.75302124 181.32312012 C207.11839655 189.81950522 206.32421557 198.29172255 205.42822266 206.76416016 C204.79409161 212.83085177 204.38297658 218.91268801 204 225 C198.05436357 227.32176069 192.08194906 229.21691856 185.9375 230.9375 C185.02009033 231.19619873 184.10268066 231.45489746 183.1574707 231.72143555 C180.43950495 232.48529277 177.71991293 233.24311037 175 234 C174.24009766 234.21366211 173.48019531 234.42732422 172.69726562 234.64746094 C165.83940543 236.57208622 159.12327632 238.41850806 152 239 C152 239.66 152 240.32 152 241 C148.08714061 242.0029846 144.17274436 242.99970697 140.25683594 243.99072266 C138.92567238 244.32853375 137.59493658 244.66803521 136.26464844 245.00927734 C134.3494491 245.50024399 132.43255319 245.98457742 130.515625 246.46875 C129.36352539 246.76201172 128.21142578 247.05527344 127.02441406 247.35742188 C124 248 124 248 120 248 C120 248.66 120 249.32 120 250 C112.88688652 251.72439115 106.92135317 250.94283598 100 249 C100 248.34 100 247.68 100 247 C99.07058594 246.88785156 98.14117188 246.77570313 97.18359375 246.66015625 C92.06661268 245.92915895 87.07966902 244.66178526 82.0625 243.4375 C81.09248047 243.20353516 80.12246094 242.96957031 79.12304688 242.72851562 C76.74798449 242.15522471 74.37367947 241.57898512 72 241 C72 240.34 72 239.68 72 239 C70.845 238.9175 69.69 238.835 68.5 238.75 C61.18353585 237.96315715 54.09824136 235.8725422 47 234 C47 233.34 47 232.68 47 232 C46.08734375 231.85304688 46.08734375 231.85304688 45.15625 231.703125 C36.65083309 230.25220094 28.34721042 228.1574973 20 226 C18.45325145 210.82366713 17.23057254 195.62602647 16.0534668 180.41748047 C15.99124939 179.61588501 15.92903198 178.81428955 15.8649292 177.98840332 C15.74907596 176.49342475 15.63389627 174.99839372 15.51959229 173.5032959 C15.06772907 167.66218692 14.53057873 161.83636598 14 156 C28.85 156 43.7 156 59 156 C59.96558324 158.89674973 60.28177115 161.23331207 60.53515625 164.26171875 C60.66567383 165.81729492 60.66567383 165.81729492 60.79882812 167.40429688 C60.9293457 169.02948242 60.9293457 169.02948242 61.0625 170.6875 C61.15337891 171.75162109 61.24425781 172.81574219 61.33789062 173.91210938 C61.80762224 179.63012051 62.10405368 185.26317355 62 191 C63.12277344 191.25394531 64.24554687 191.50789062 65.40234375 191.76953125 C79.17712285 194.92333199 79.17712285 194.92333199 85.55078125 197.21484375 C89.74755956 198.56022244 94.04310785 199.54036708 98.33032227 200.5546875 C102.03610217 201.44592236 105.47832096 202.55617437 109 204 C113.50900877 204.50100097 116.55313827 203.42071601 120.7277832 201.80883789 C124.63525588 200.41790021 128.65527083 199.51601779 132.6875 198.5625 C139.67288422 196.86915162 146.53317411 195.018516 153.37109375 192.796875 C155.90289187 192.02943545 158.40453002 191.50026619 161 191 C161.39258844 186.75823537 161.78304217 182.51628007 162.171875 178.27416992 C162.30318533 176.84443405 162.43498735 175.41474322 162.56738281 173.98510742 C163.83118131 160.33122291 164.90634785 146.67065193 166 133 C115.18 133 64.36 133 12 133 C11.26793479 130.07173918 10.82042181 127.73115947 10.61108398 124.78222656 C10.55109726 123.96167786 10.49111053 123.14112915 10.42930603 122.29571533 C10.36884598 121.41953552 10.30838593 120.54335571 10.24609375 119.640625 C10.18092056 118.73624695 10.11574738 117.8318689 10.04859924 116.90008545 C9.84159117 114.01694883 9.63948378 111.13349254 9.4375 108.25 C9.29784911 106.29294567 9.15787892 104.3359141 9.01757812 102.37890625 C8.67468245 97.5861935 8.33618099 92.79318824 8 88 C10.21347991 87.05063703 12.42703212 86.10144324 14.640625 85.15234375 C15.26018066 84.88659546 15.87973633 84.62084717 16.51806641 84.3470459 C26.06009721 80.25626068 35.64523503 76.33201162 45.33325195 72.6015625 C50.85002714 70.47065455 56.29596261 68.21794041 61.71484375 65.84765625 C64 65 64 65 67 65 C67 64.34 67 63.68 67 63 C69.26882087 62.16080602 71.53977027 61.32848276 73.8125 60.5 C74.45509766 60.26152344 75.09769531 60.02304687 75.75976562 59.77734375 C78.64933739 58.72931254 80.90076061 58 84 58 C84 57.34 84 56.68 84 56 C86.60197202 54.99394407 89.20629362 53.99497475 91.8125 53 C92.55048828 52.71382812 93.28847656 52.42765625 94.04882812 52.1328125 C94.76103516 51.86210937 95.47324219 51.59140625 96.20703125 51.3125 C96.8616333 51.06113281 97.51623535 50.80976563 98.19067383 50.55078125 C100 50 100 50 103 50 C103 49.34 103 48.68 103 48 C105.64 47.01 108.28 46.02 111 45 C75.69 44.67 40.38 44.34 4 44 C2.68 29.48 1.36 14.96 0 0 Z " fill="#FBFCFC" transform="translate(560,198)"/>
<path d="M0 0 C74.91 0 149.82 0 227 0 C227 15.03329638 225.3610507 30.02844227 224 45 C166.58 45 109.16 45 50 45 C50.66 50.28 51.32 55.56 52 61 C52.99 75.355 52.99 75.355 54 90 C108.45 90 162.9 90 219 90 C217.85085918 110.68453483 217.85085918 110.68453483 216.984375 120.22949219 C216.84026184 121.85757813 216.84026184 121.85757813 216.6932373 123.51855469 C216.38178011 127.0282654 216.06604219 130.53757444 215.75 134.046875 C215.52942576 136.51782507 215.30905181 138.98879302 215.08886719 141.45977783 C214.63016865 146.59998621 214.16939197 151.74000259 213.70703125 156.87988281 C213.11494856 163.46321995 212.52765767 170.04697415 211.9418335 176.63087082 C211.48888272 181.7164853 211.0336768 186.80189592 210.57775879 191.88724518 C210.36023295 194.31605588 210.14334882 196.74492414 209.92712402 199.17385101 C209.62554682 202.55718848 209.32099356 205.94024509 209.015625 209.32324219 C208.92728394 210.32067444 208.83894287 211.31810669 208.7479248 212.34576416 C208.33043677 216.93733236 207.84901191 221.46303323 207 226 C197.68101293 228.67850065 188.34896941 231.30277314 179 233.875 C177.74034424 234.22232178 176.48068848 234.56964355 175.18286133 234.92749023 C169.48288734 236.49766629 163.78165669 238.06262636 158.07421875 239.60546875 C157.1713916 239.84974609 156.26856445 240.09402344 155.33837891 240.34570312 C153.58181723 240.82067689 151.82498405 241.29464782 150.06787109 241.76757812 C145.21910079 243.08366004 140.39860846 244.46986399 135.58984375 245.92578125 C134.5119458 246.2498999 133.43404785 246.57401855 132.32348633 246.90795898 C130.2513456 247.53445692 128.18194507 248.17012072 126.1159668 248.81665039 C115.80517155 251.93005786 109.15133937 251.08446897 98.9375 247.875 C96.80034202 247.22631707 94.66229551 246.58055535 92.5234375 245.9375 C91.44030273 245.61136719 90.35716797 245.28523437 89.24121094 244.94921875 C84.21086738 243.47603588 79.14113998 242.16994862 74.0625 240.875 C67.54036644 239.20658539 61.06414152 237.46443045 54.625 235.5 C46.21553336 232.93617657 37.67506837 230.94625446 29.11181641 228.96679688 C28.07460449 228.72509766 27.03739258 228.48339844 25.96875 228.234375 C25.03482422 228.02006836 24.10089844 227.80576172 23.13867188 227.58496094 C21 227 21 227 20 226 C19.76378361 224.18499551 19.59090836 222.36170786 19.44335938 220.53735352 C19.34655884 219.36846085 19.2497583 218.19956818 19.15002441 216.99525452 C18.99841858 215.08141212 18.99841858 215.08141212 18.84375 213.12890625 C18.6799208 211.13191855 18.516091 209.13493091 18.35222626 207.13794613 C18.12264646 204.32568578 17.89729328 201.5130921 17.67181396 198.70050049 C17.27939017 193.81729873 16.87982294 188.93467565 16.4810791 184.05198669 C16.26927485 181.45319589 16.05884106 178.85429292 15.84997559 176.25526428 C15.75317505 175.05800217 15.65637451 173.86074005 15.55664062 172.62719727 C15.47305298 171.58652603 15.38946533 170.5458548 15.30334473 169.47364807 C14.91080164 164.97857559 14.44897867 160.48978672 14 156 C29.18 156 44.36 156 60 156 C60.98836382 158.96509147 61.28651171 161.37610975 61.53515625 164.48046875 C61.62216797 165.56263672 61.70917969 166.64480469 61.79882812 167.75976562 C61.9293457 169.45649414 61.9293457 169.45649414 62.0625 171.1875 C62.15337891 172.29931641 62.24425781 173.41113281 62.33789062 174.55664062 C62.79733892 180.39128855 63.10718581 186.14765488 63 192 C64.00353516 192.12955078 64.00353516 192.12955078 65.02734375 192.26171875 C71.19068448 193.16346927 77.05382229 194.50273333 83 196.3125 C89.47450484 198.26763932 95.96014091 200.14913607 102.5 201.875 C103.31210938 202.10227783 104.12421875 202.32955566 104.9609375 202.5637207 C114.20713205 204.95389989 121.85604103 202.97661928 130.8125 200.25 C138.21729321 198.06569915 145.63600314 196.00188647 153.125 194.125 C153.97167236 193.91004883 154.81834473 193.69509766 155.69067383 193.47363281 C156.86859497 193.18117676 156.86859497 193.18117676 158.0703125 192.8828125 C158.75883301 192.71152832 159.44735352 192.54024414 160.15673828 192.36376953 C162 192 162 192 165 192 C164.97752197 191.23518311 164.95504395 190.47036621 164.93188477 189.68237305 C164.77221925 179.56163933 165.62626509 169.650656 166.65405273 159.59155273 C166.94082747 156.77987592 167.21626934 153.96724806 167.49023438 151.15429688 C167.66861872 149.35931007 167.84763149 147.56438559 168.02734375 145.76953125 C168.10967758 144.93210892 168.19201141 144.09468658 168.27684021 143.23188782 C168.60984558 140.00438276 168.97047345 137.08857964 170 134 C117.86 134 65.72 134 12 134 C10.205625 114.674375 8.41125 95.34875 6.5625 75.4375 C5.99732666 69.36142334 5.43215332 63.28534668 4.84985352 57.02514648 C4.15612793 49.53918457 4.15612793 49.53918457 3.83067322 46.02186584 C3.60559413 43.59329242 3.37976048 41.16478885 3.15330505 38.73634338 C2.80814545 35.03329835 2.4654688 31.33003059 2.12329102 27.62670898 C2.02383714 26.56584548 1.92438326 25.50498198 1.82191563 24.41197109 C1.07408312 16.27582753 0.5440289 8.16043346 0 0 Z " fill="#FEFEFD" transform="translate(118,197)"/>
<path d="M0 0 C48.84 0 97.68 0 148 0 C147.37996996 9.92048072 146.72001641 19.78993144 145.80078125 29.6796875 C145.62336061 31.62010687 145.4459401 33.56052625 145.26852417 35.50094604 C145.08071266 37.55021118 144.89177095 39.59936917 144.70248413 41.64849854 C144.30470647 45.95537338 143.91054056 50.26257451 143.5168457 54.56982422 C142.60978899 64.48771864 141.69817064 74.40519268 140.78648376 84.32266235 C139.94969344 93.42592135 139.11391663 102.52927056 138.28181362 111.63295937 C137.95512303 115.20593795 137.62748397 118.77882396 137.29751587 122.35150146 C135.51172397 141.63188875 135.51172397 141.63188875 134.18600464 160.94781494 C133.94621296 164.88260161 133.53634389 168.76573305 133.06640625 172.6796875 C132.88956419 174.19744908 132.71400081 175.71536006 132.53955078 177.23339844 C132.45038391 178.00856812 132.36121704 178.78373779 132.26934814 179.58239746 C131.4963405 186.52072345 130.85601606 193.47362286 130.19506836 200.42333984 C129.93700688 203.13017243 129.67464162 205.83656656 129.41210938 208.54296875 C128.64523907 216.53271153 127.92436423 224.51369049 127.4609375 232.52734375 C127.07275339 239.19487801 126.44617095 245.80311005 125.6875 252.4375 C124.29118161 265.03202425 123.03459936 277.63755805 121.8125 290.25 C121.72205414 291.18246552 121.63160828 292.11493103 121.53842163 293.07565308 C121.02380897 298.3835954 120.51107268 303.69171571 120 309 C118.95211304 309.27880005 118.95211304 309.27880005 117.88305664 309.56323242 C101.67228156 313.8519398 101.67228156 313.8519398 85.5625 318.5 C77.08180709 321.05970504 68.50163376 323.21948076 59.92114258 325.41625977 C53.82778085 326.98370724 47.76805182 328.60245159 41.75 330.4375 C33.41919959 332.9702116 24.9910261 335.13369327 16.5625 337.3125 C15.85726196 337.49561737 15.15202393 337.67873474 14.42541504 337.86740112 C12.41065086 338.38978113 10.39498265 338.90849149 8.37890625 339.42578125 C6.60882202 339.88078003 6.60882202 339.88078003 4.80297852 340.3449707 C2 341 2 341 0 341 C-0.33 325.82 -0.66 310.64 -1 295 C2.3 294.154375 5.6 293.30875 9 292.4375 C17.29607778 290.29155268 25.53590486 288.00274528 33.75 285.5625 C43.5696677 282.64803103 53.44661511 280.02863459 63.37207031 277.5 C70.65612511 275.63589483 77.88477116 273.64971386 85.06616211 271.42138672 C87.84305188 270.57002456 90.07230962 270 93 270 C93.06912598 268.61018417 93.06912598 268.61018417 93.13964844 267.19229126 C93.84685043 253.79465192 95.0479154 240.44673005 96.25 227.0859375 C96.47054844 224.61595153 96.69092291 222.14595002 96.91113281 219.67593384 C97.37011855 214.53397159 97.83086875 209.39217157 98.29296875 204.25048828 C98.88443418 197.66828796 99.47192103 191.0857398 100.0581665 184.50307274 C100.51144035 179.41744479 100.96654993 174.33198244 101.42224121 169.24657059 C101.63963449 166.81857455 101.85651806 164.39053282 102.07287598 161.96244431 C102.37488133 158.5768467 102.67929884 155.19147444 102.984375 151.80615234 C103.07271606 150.81074432 103.16105713 149.8153363 103.2520752 148.7897644 C103.33614624 147.86232422 103.42021729 146.93488403 103.50683594 145.9793396 C103.57835876 145.18194555 103.64988159 144.38455151 103.72357178 143.562994 C104.06842211 140.36560223 104.54519815 137.18361292 105 134 C50.55 134 -3.9 134 -60 134 C-61.23629709 130.29110874 -61.45319003 126.65947841 -61.75390625 122.7890625 C-61.81907944 121.98391205 -61.88425262 121.1787616 -61.95140076 120.34921265 C-62.08844544 118.64636266 -62.22365876 116.94336444 -62.35717773 115.24023438 C-62.56120023 112.64155551 -62.77133133 110.04342576 -62.98242188 107.4453125 C-63.1149464 105.78909151 -63.24711937 104.13284235 -63.37890625 102.4765625 C-63.44139053 101.70245026 -63.50387482 100.92833801 -63.56825256 100.13076782 C-63.8586974 96.39659475 -64 92.7515171 -64 89 C-6.58 89 50.84 89 110 89 C110 85.37 110 81.74 110 78 C110.99 66.78 111.98 55.56 113 44 C75.71 44 38.42 44 0 44 C0 29.48 0 14.96 0 0 Z " fill="#F06529" transform="translate(232,153)"/>
<path d="M0 0 C47.85 0 95.7 0 145 0 C144.071875 12.16875 143.14375 24.3375 142.1875 36.875 C141.90156982 40.6582373 141.61563965 44.44147461 141.32104492 48.33935547 C140.15683449 63.53842567 138.91248624 78.68947234 137.05194092 93.82244873 C135.5549886 106.21996509 134.77073533 118.66851794 133.9375 131.125 C132.97004468 145.4819201 131.92967897 159.73898216 130 174 C127.5630969 194.95883023 126.12180212 215.93751069 125 237 C124.34 237 123.68 237 123 237 C123.01595215 237.73686035 123.0319043 238.4737207 123.04833984 239.23291016 C123.16007721 248.68705198 122.46690704 257.97065079 121.625 267.375 C121.48534411 268.96530283 121.34602431 270.5556352 121.20703125 272.14599609 C120.9990741 274.52476755 120.79069176 276.90349129 120.57989502 279.28201294 C120.16561999 283.98244121 119.79416736 288.68358985 119.4609375 293.390625 C119.38149902 294.46006348 119.30206055 295.52950195 119.22021484 296.63134766 C119.07700472 298.57817968 118.9439608 300.52579541 118.82275391 302.47412109 C118.75749512 303.32055176 118.69223633 304.16698242 118.625 305.0390625 C118.57601562 305.76303223 118.52703125 306.48700195 118.4765625 307.23291016 C118 309 118 309 115 311 C110.42021599 312.38937268 105.7993507 313.30963553 101 313 C101 313.66 101 314.32 101 315 C100.18958252 315.19110352 99.37916504 315.38220703 98.54418945 315.57910156 C95.46994848 316.30626139 92.39668151 317.03738311 89.32397461 317.77099609 C87.36707487 318.23700378 85.40913648 318.6986431 83.45117188 319.16015625 C76.12920906 320.91146542 68.93701099 322.85868835 61.77539062 325.18359375 C58.16753905 326.24487591 54.74240193 326.70647828 51 327 C51 327.66 51 328.32 51 329 C49.75295288 329.2945105 49.75295288 329.2945105 48.48071289 329.5949707 C45.35443962 330.33536377 42.22907309 331.07944803 39.10424805 331.82592773 C37.75954046 332.14638717 36.41449529 332.46543387 35.0690918 332.78295898 C26.1326132 334.85331244 26.1326132 334.85331244 17.37109375 337.54296875 C11.69993844 339.43335385 5.82483513 340.65580728 0 342 C0 326.82 0 311.64 0 296 C2.64 295.67 5.28 295.34 8 295 C8 294.34 8 293.68 8 293 C12.01953458 292.01544994 16.04083975 291.03832761 20.0625 290.0625 C21.19623047 289.78470703 22.32996094 289.50691406 23.49804688 289.22070312 C28.98697972 287.89247739 34.38658197 286.64362848 40 286 C40 285.34 40 284.68 40 284 C40.5576001 283.87471924 41.1152002 283.74943848 41.68969727 283.62036133 C52.11595534 281.25878978 62.30615412 278.73623233 72.40234375 275.203125 C78.51752744 273.15809072 84.75198254 271.58637606 91 270 C91.07516846 268.91452881 91.07516846 268.91452881 91.15185547 267.80712891 C91.38911886 264.41280976 91.63205933 261.01891736 91.875 257.625 C91.95363281 256.48804688 92.03226563 255.35109375 92.11328125 254.1796875 C92.58316231 247.6736421 93.1858103 241.20360818 93.9453125 234.7265625 C95.46631936 221.61705095 96.30068655 208.44477906 97.25 195.28417969 C98.83641649 173.40278661 98.83641649 173.40278661 100 165.953125 C101.52290242 155.36419414 102.14689499 144.66381266 103 134 C70.33 134 37.66 134 4 134 C4.66 133.34 5.32 132.68 6 132 C6.99 132 7.98 132 9 132 C9 131.34 9 130.68 9 130 C9.79921875 129.69707031 10.5984375 129.39414062 11.421875 129.08203125 C18.0470288 126.55483057 24.6212299 123.93908741 31.15625 121.1875 C33.82244957 120.07414194 36.50034801 118.99909091 39.1875 117.9375 C45.15495988 115.56006398 51.00974895 113.02083827 56.7265625 110.08984375 C60.96849808 107.95951078 65.31166454 106.23601015 69.75 104.5625 C76.16300487 102.11323564 82.50977368 99.57008387 88.8125 96.84765625 C91 96 91 96 93 96 C93 95.34 93 94.68 93 94 C97.29 92.35 101.58 90.7 106 89 C106.46743715 85.980356 106.92374949 82.95957676 107.375 79.9375 C107.50132812 79.12861328 107.62765625 78.31972656 107.7578125 77.48632812 C109.3540187 66.6720311 110.04740441 55.95484929 111 45 C37.41 45 -36.18 45 -112 45 C-112 44.67 -112 44.34 -112 44 C-75.04 44 -38.08 44 0 44 C0 29.48 0 14.96 0 0 Z " fill="#28AAE0" transform="translate(672,153)"/>
<path d="M0 0 C74.91 0 149.82 0 227 0 C227 15.03329638 225.3610507 30.02844227 224 45 C166.58 45 109.16 45 50 45 C50.66 50.28 51.32 55.56 52 61 C52.99 75.355 52.99 75.355 54 90 C73.8 90 93.6 90 114 90 C114 104.52 114 119.04 114 134 C80.34 134 46.68 134 12 134 C9.2911837 104.86348989 9.2911837 104.86348989 7.94902515 90.38597012 C7.22549944 82.58183641 6.50141069 74.77775634 5.77514648 66.97387695 C5.19978565 60.79146949 4.625816 54.60893465 4.053451 48.42624909 C3.75092072 45.1588279 3.44753119 41.89149037 3.14288521 38.62426567 C2.80120489 34.95857924 2.46198364 31.29267251 2.12329102 27.62670898 C2.02402817 26.56790024 1.92476532 25.50909149 1.82249451 24.41819763 C1.07445414 16.27998039 0.54416716 8.16250747 0 0 Z " fill="#EBE9E8" transform="translate(118,197)"/>
<path d="M0 0 C0 29.04 0 58.08 0 88 C-33 88 -66 88 -100 88 C-100.73206521 85.07173918 -101.17957819 82.73115947 -101.38891602 79.78222656 C-101.44890274 78.96167786 -101.50888947 78.14112915 -101.57069397 77.29571533 C-101.66138405 75.98144562 -101.66138405 75.98144562 -101.75390625 74.640625 C-101.85166603 73.28405792 -101.85166603 73.28405792 -101.95140076 71.90008545 C-102.15840883 69.01694883 -102.36051622 66.13349254 -102.5625 63.25 C-102.70215089 61.29294567 -102.84212108 59.3359141 -102.98242188 57.37890625 C-103.32531755 52.5861935 -103.66381901 47.79318824 -104 43 C-101.78652009 42.05063703 -99.57296788 41.10144324 -97.359375 40.15234375 C-96.73981934 39.88659546 -96.12026367 39.62084717 -95.48193359 39.3470459 C-85.93990279 35.25626068 -76.35476497 31.33201162 -66.66674805 27.6015625 C-61.14997286 25.47065455 -55.70403739 23.21794041 -50.28515625 20.84765625 C-48 20 -48 20 -45 20 C-45 19.34 -45 18.68 -45 18 C-42.73117913 17.16080602 -40.46022973 16.32848276 -38.1875 15.5 C-37.54490234 15.26152344 -36.90230469 15.02304687 -36.24023438 14.77734375 C-33.35066261 13.72931254 -31.09923939 13 -28 13 C-28 12.34 -28 11.68 -28 11 C-25.39802798 9.99394407 -22.79370638 8.99497475 -20.1875 8 C-19.44951172 7.71382812 -18.71152344 7.42765625 -17.95117188 7.1328125 C-16.88286133 6.72675781 -16.88286133 6.72675781 -15.79296875 6.3125 C-14.81106567 5.93544922 -14.81106567 5.93544922 -13.80932617 5.55078125 C-12 5 -12 5 -9 5 C-9 4.34 -9 3.68 -9 3 C-7.68825887 2.4980125 -6.37558403 1.99846423 -5.0625 1.5 C-4.33160156 1.2215625 -3.60070312 0.943125 -2.84765625 0.65625 C-1 0 -1 0 0 0 Z " fill="#EBECEC" transform="translate(672,243)"/>
<path d="M0 0 C15.18 0 30.36 0 46 0 C46.98836382 2.96509147 47.28651171 5.37610975 47.53515625 8.48046875 C47.66567383 10.1037207 47.66567383 10.1037207 47.79882812 11.75976562 C47.9293457 13.45649414 47.9293457 13.45649414 48.0625 15.1875 C48.15337891 16.29931641 48.24425781 17.41113281 48.33789062 18.55664062 C48.79733892 24.39128855 49.10718581 30.14765488 49 36 C49.66902344 36.08636719 50.33804688 36.17273438 51.02734375 36.26171875 C57.94735039 37.2741761 64.45642013 38.92110704 71.12304688 40.96264648 C77.88281058 43.01600748 84.71035695 44.72802324 91.57617188 46.38793945 C92.38505859 46.58476318 93.19394531 46.78158691 94.02734375 46.984375 C94.74656006 47.15678711 95.46577637 47.32919922 96.20678711 47.50683594 C98 48 98 48 100 49 C100 64.18 100 79.36 100 95 C91.00208594 93.87526074 91.00208594 93.87526074 86.3828125 92.546875 C85.37283203 92.25989746 84.36285156 91.97291992 83.32226562 91.67724609 C82.26716797 91.37125488 81.21207031 91.06526367 80.125 90.75 C77.88808149 90.11176654 75.65110195 89.47374692 73.4140625 88.8359375 C72.32125977 88.52237305 71.22845703 88.20880859 70.10253906 87.88574219 C65.90901497 86.68853528 61.70518791 85.53040554 57.5 84.375 C53.31853888 83.22340742 49.14572783 82.05501797 44.99609375 80.79296875 C35.11855784 77.7939198 25.17200904 75.29235803 15.11303711 72.96704102 C14.07542236 72.72526123 13.03780762 72.48348145 11.96875 72.234375 C11.03482422 72.02006836 10.10089844 71.80576172 9.13867188 71.58496094 C7 71 7 71 6 70 C5.76378361 68.18499551 5.59090836 66.36170786 5.44335938 64.53735352 C5.34655884 63.36846085 5.2497583 62.19956818 5.15002441 60.99525452 C5.04895386 59.71935959 4.9478833 58.44346466 4.84375 57.12890625 C4.6799208 55.13191855 4.516091 53.13493091 4.35222626 51.13794613 C4.12264646 48.32568578 3.89729328 45.5130921 3.67181396 42.70050049 C3.27939017 37.81729873 2.87982294 32.93467565 2.4810791 28.05198669 C2.26927485 25.45319589 2.05884106 22.85429292 1.84997559 20.25526428 C1.75317505 19.05800217 1.65637451 17.86074005 1.55664062 16.62719727 C1.43125916 15.06619041 1.43125916 15.06619041 1.30334473 13.47364807 C0.91080164 8.97857559 0.44897867 4.48978672 0 0 Z " fill="#EAE9E8" transform="translate(132,353)"/>
<path d="M0 0 C14.85 0 29.7 0 45 0 C45.96558324 2.89674973 46.28177115 5.23331207 46.53515625 8.26171875 C46.66567383 9.81729492 46.66567383 9.81729492 46.79882812 11.40429688 C46.9293457 13.02948242 46.9293457 13.02948242 47.0625 14.6875 C47.15337891 15.75162109 47.24425781 16.81574219 47.33789062 17.91210938 C47.80762224 23.63012051 48.10405368 29.26317355 48 35 C49.12277344 35.25394531 50.24554687 35.50789063 51.40234375 35.76953125 C65.14825127 38.9167217 65.14825127 38.9167217 71.56640625 41.21875 C75.64201997 42.52713322 79.81437773 43.48440348 83.97875977 44.46679688 C89.14386458 45.70801862 93.90420791 47.30140264 99 49 C98.67 64.18 98.34 79.36 98 95 C89 93.875 89 93.875 86 93 C86 92.34 86 91.68 86 91 C85.07058594 90.88785156 84.14117188 90.77570313 83.18359375 90.66015625 C78.06661268 89.92915895 73.07966902 88.66178526 68.0625 87.4375 C66.6074707 87.08655273 66.6074707 87.08655273 65.12304688 86.72851562 C62.74798449 86.15522471 60.37367947 85.57898512 58 85 C58 84.34 58 83.68 58 83 C56.845 82.9175 55.69 82.835 54.5 82.75 C47.18353585 81.96315715 40.09824136 79.8725422 33 78 C33 77.34 33 76.68 33 76 C32.3915625 75.90203125 31.783125 75.8040625 31.15625 75.703125 C22.65083309 74.25220094 14.34721042 72.1574973 6 70 C4.45325145 54.82366713 3.23057254 39.62602647 2.0534668 24.41748047 C1.96014069 23.21508728 1.96014069 23.21508728 1.8649292 21.98840332 C1.74907596 20.49342475 1.63389627 18.99839372 1.51959229 17.5032959 C1.06772907 11.66218692 0.53057873 5.83636598 0 0 Z " fill="#E8E8E9" transform="translate(574,354)"/>
<path d="M0 0 C37.29 0 74.58 0 113 0 C113 12.38757596 113 12.38757596 112.37890625 18.3125 C112.24806641 19.57191406 112.11722656 20.83132812 111.98242188 22.12890625 C111.84384766 23.40636719 111.70527344 24.68382812 111.5625 26 C111.36043945 27.96259766 111.36043945 27.96259766 111.15429688 29.96484375 C110.1359186 39.59224419 110.1359186 39.59224419 109 43 C73.03 43 37.06 43 0 43 C0 28.81 0 14.62 0 0 Z " fill="#FEFEFE" transform="translate(232,198)"/>
<path d="M0 0 C36.96 0 73.92 0 112 0 C112 14.52 112 29.04 112 44 C76.36 44 40.72 44 4 44 C2.68 29.48 1.36 14.96 0 0 Z " fill="#E9E9E9" transform="translate(560,198)"/>
<path d="M0 0 C26 0 26 0 31.3828125 4.59375 C32.90625 7.46484375 32.90625 7.46484375 34.125 10.5 C34.62773437 11.50160156 35.13046875 12.50320312 35.6484375 13.53515625 C36.86652686 15.99475976 37.97014577 18.45724547 39 21 C41.54501791 18.15787647 43.28051465 15.53355223 44.6640625 12.01171875 C46.625 7.6875 46.625 7.6875 53 0 C61.58 0 70.16 0 79 0 C79 22.44 79 44.88 79 68 C71.08 68 63.16 68 55 68 C54.67 58.1 54.34 48.2 54 38 C49.38 44.93 44.76 51.86 40 59 C36.21603389 55.21603389 33.64919729 52.25349988 30.8125 47.875 C30.13832031 46.84117188 29.46414063 45.80734375 28.76953125 44.7421875 C28.18558594 43.83726563 27.60164063 42.93234375 27 42 C26.34 41.01 25.68 40.02 25 39 C24.67 48.57 24.34 58.14 24 68 C16.08 68 8.16 68 0 68 C0 45.56 0 23.12 0 0 Z " fill="#000000" transform="translate(235,25)"/>
<path d="M0 0 C7.92 0 15.84 0 24 0 C24 6.93 24 13.86 24 21 C30.6 21 37.2 21 44 21 C44 14.07 44 7.14 44 0 C51.92 0 59.84 0 68 0 C68 22.44 68 44.88 68 68 C60.08 68 52.16 68 44 68 C44 60.41 44 52.82 44 45 C37.4 45 30.8 45 24 45 C24 52.59 24 60.18 24 68 C16.08 68 8.16 68 0 68 C0 45.56 0 23.12 0 0 Z " fill="#000000" transform="translate(84,25)"/>
<path d="M0 0 C52.14 0 104.28 0 158 0 C155.525 28.71 155.525 28.71 153 58 C145.8534375 59.8253125 145.8534375 59.8253125 138.5625 61.6875 C128.90177106 64.16438996 119.2601799 66.65870347 109.73657227 69.62768555 C107.01638838 70.46683282 104.87255723 71 102 71 C102 47.9 102 24.8 102 1 C68.34 1 34.68 1 0 1 C0 0.67 0 0.34 0 0 Z " fill="#F0672C" transform="translate(130,331)"/>
<path d="M0 0 C18.81 0 37.62 0 57 0 C57 7.92 57 15.84 57 24 C50.73 24.33 44.46 24.66 38 25 C39.65 26.65 41.3 28.3 43 30 C44.01554981 31.17422947 45.01798256 32.3600866 46 33.5625 C48.42664748 36.4382956 50.99128858 38.72313731 54 41 C54.99 41.99 55.98 42.98 57 44 C57 51.92 57 59.84 57 68 C38.19 68 19.38 68 0 68 C0 60.41 0 52.82 0 45 C6.27 44.67 12.54 44.34 19 44 C15.07137069 40.06757882 15.07137069 40.06757882 11.10546875 36.17578125 C10.13278804 35.2213791 9.16013192 34.26695188 8.1875 33.3125 C7.68541016 32.82716797 7.18332031 32.34183594 6.66601562 31.84179688 C5.40582727 30.59875394 4.19808956 29.30300108 3 28 C3 27.34 3 26.68 3 26 C2.01 25.67 1.02 25.34 0 25 C0 16.75 0 8.5 0 0 Z " fill="#000000" transform="translate(722,25)"/>
<path d="M0 0 C17.82 0 35.64 0 54 0 C52.84857383 28.78565436 52.84857383 28.78565436 51.4375 43.0625 C51.29690385 44.53835232 51.15693105 46.01426415 51.01757812 47.49023438 C50.68545854 50.99419514 50.34529901 54.4973102 50 58 C46.50145134 59.1809646 43.00429939 60.32025067 39.453125 61.33203125 C38.61628174 61.57091064 37.77943848 61.80979004 36.91723633 62.0559082 C36.03704834 62.3055835 35.15686035 62.55525879 34.25 62.8125 C33.33565186 63.07313232 32.42130371 63.33376465 31.47924805 63.60229492 C26.88790641 64.90804568 22.29299857 66.19958307 17.69140625 67.46875 C16.86801758 67.6958667 16.04462891 67.9229834 15.19628906 68.15698242 C13.63501301 68.58631735 12.07318196 69.0136403 10.51074219 69.4387207 C6.66475358 70.47143409 6.66475358 70.47143409 3 72 C1.45386986 71.91348369 -0.08909387 71.75997364 -1.625 71.5625 C-2.44226563 71.46066406 -3.25953125 71.35882813 -4.1015625 71.25390625 C-5.04128906 71.12822266 -5.04128906 71.12822266 -6 71 C-2.25 69.875 -2.25 69.875 0 71 C0 47.57 0 24.14 0 0 Z " fill="#29AAE1" transform="translate(672,331)"/>
<path d="M0 0 C18.15 0 36.3 0 55 0 C55 7.92 55 15.84 55 24 C49.06 24.33 43.12 24.66 37 25 C38.65 26.65 40.3 28.3 42 30 C43.71896402 31.86525883 45.42728483 33.74038041 47.125 35.625 C49.70161602 38.48355576 52.27805788 41.27805788 55 44 C55 51.92 55 59.84 55 68 C36.85 68 18.7 68 0 68 C0 60.41 0 52.82 0 45 C6.27 44.67 12.54 44.34 19 44 C13.98603266 37.98323919 8.99091993 32.94902082 3 28 C2.01 27.01 1.02 26.02 0 25 C0 16.75 0 8.5 0 0 Z " fill="#000000" transform="translate(643,25)"/>
<path d="M0 0 C18.48 0 36.96 0 56 0 C56 7.92 56 15.84 56 24 C45.77 24 35.54 24 25 24 C25 30.93 25 37.86 25 45 C35.23 45 45.46 45 56 45 C56 52.59 56 60.18 56 68 C37.52 68 19.04 68 0 68 C0 45.56 0 23.12 0 0 Z " fill="#000000" transform="translate(565,24)"/>
<path d="M0 0 C21.12 0 42.24 0 64 0 C64 14.52 64 29.04 64 44 C44.2 44 24.4 44 4 44 C2.41758689 40.83517378 2.51498565 37.37048914 2.24609375 33.88671875 C2.18092056 33.08015335 2.11574738 32.27358795 2.04859924 31.44258118 C1.91137289 29.73376891 1.7761692 28.0247932 1.64282227 26.31567383 C1.43910919 23.70809804 1.22888743 21.10111067 1.01757812 18.49414062 C0.88502977 16.83336417 0.75285619 15.17255775 0.62109375 13.51171875 C0.55860947 12.73446945 0.49612518 11.95722015 0.43174744 11.15641785 C0.14193974 7.41397785 0 3.75957804 0 0 Z " fill="#E44C25" transform="translate(168,242)"/>
<path d="M0 0 C21.45 0 42.9 0 65 0 C65 7.59 65 15.18 65 23 C55.1 23.495 55.1 23.495 45 24 C45 38.52 45 53.04 45 68 C37.08 68 29.16 68 21 68 C21 53.15 21 38.3 21 23 C14.07 23 7.14 23 0 23 C0 15.41 0 7.82 0 0 Z " fill="#000000" transform="translate(161,25)"/>
<path d="M0 0 C7.92 0 15.84 0 24 0 C24 14.52 24 29.04 24 44 C34.89 44 45.78 44 57 44 C57 51.92 57 59.84 57 68 C38.19 68 19.38 68 0 68 C0 45.56 0 23.12 0 0 Z " fill="#000000" transform="translate(324,25)"/>
<path d="M0 0 C4.95 0 9.9 0 15 0 C15 6.93 15 13.86 15 21 C21.93 21 28.86 21 36 21 C36 25.95 36 30.9 36 36 C29.07 36 22.14 36 15 36 C15 42.93 15 49.86 15 57 C10.05 57 5.1 57 0 57 C0 50.07 0 43.14 0 36 C-6.93 36 -13.86 36 -21 36 C-21 31.05 -21 26.1 -21 21 C-14.07 21 -7.14 21 0 21 C0 14.07 0 7.14 0 0 Z " fill="#AA2F2C" transform="translate(443,254)"/>
<path d="M0 0 C0.66 0 1.32 0 2 0 C2 6.93 2 13.86 2 21 C8.93 21 15.86 21 23 21 C23 25.95 23 30.9 23 36 C16.07 36 9.14 36 2 36 C2 42.93 2 49.86 2 57 C-2.95 57 -7.9 57 -13 57 C-13 50.07 -13 43.14 -13 36 C-19.93 36 -26.86 36 -34 36 C-34 31.05 -34 26.1 -34 21 C-33.67 21 -33.34 21 -33 21 C-33 25.29 -33 29.58 -33 34 C-25.74 34 -18.48 34 -11 34 C-11 39.28 -11 44.56 -11 50 C-7.37 50 -3.74 50 0 50 C0 42.74 0 35.48 0 28 C6.93 28 13.86 28 21 28 C21 26.02 21 24.04 21 22 C14.07 22 7.14 22 0 22 C0 14.74 0 7.48 0 0 Z " fill="#48100F" transform="translate(456,254)"/>
<path d="M0 0 C6.93 0 13.86 0 21 0 C21 1.65 21 3.3 21 5 C14.07 5 7.14 5 0 5 C0 3.35 0 1.7 0 0 Z " fill="#7A1716" transform="translate(423,283)"/>
<path d="M0 0 C3.63 0 7.26 0 11 0 C11 0.66 11 1.32 11 2 C7.12315913 3.19287411 4.08378077 4 0 4 C0 2.68 0 1.36 0 0 Z " fill="#CA504F" transform="translate(445,254)"/>
<path d="M0 0 C-1.26691507 0.67408308 -2.53870749 1.33900497 -3.8125 2 C-4.52019531 2.37125 -5.22789062 2.7425 -5.95703125 3.125 C-8 4 -8 4 -11 4 C-11 3.34 -11 2.68 -11 2 C-9.73392393 1.46770674 -8.46189588 0.94955456 -7.1875 0.4375 C-6.47980469 0.14746094 -5.77210938 -0.14257812 -5.04296875 -0.44140625 C-3 -1 -3 -1 0 0 Z " fill="#DBE9EF" transform="translate(719,268)"/>
<path d="M0 0 C1.43655854 -0.08131463 2.8744483 -0.13933559 4.3125 -0.1875 C5.51326172 -0.23970703 5.51326172 -0.23970703 6.73828125 -0.29296875 C9.47851584 0.06198392 10.29171079 0.89366282 12 3 C3.96428571 2.19642857 3.96428571 2.19642857 0 0 Z " fill="#ACC9DD" transform="translate(607,431)"/>
<path d="M0 0 C3.63 0 7.26 0 11 0 C9.515 1.485 9.515 1.485 8 3 C7.01 3 6.02 3 5 3 C5 2.34 5 1.68 5 1 C3.35 1 1.7 1 0 1 C0 0.67 0 0.34 0 0 Z " fill="#E3E6E7" transform="translate(768,241)"/>
</svg>
