<?xml version="1.0" encoding="UTF-8"?>
<svg version="1.1" xmlns="http://www.w3.org/2000/svg" width="1920" height="1920">
<path d="M0 0 C0.96341309 0.17160645 1.92682617 0.34321289 2.91943359 0.52001953 C67.43715799 12.15504509 130.88082844 47.34358732 171 100 C171.99861869 101.2602104 172.99874011 102.51923081 174 103.77734375 C212.71495963 152.83789415 233.57084939 213.65454301 233.3125 276.0625 C233.31034485 277.00465363 233.3081897 277.94680725 233.30596924 278.91751099 C233.2515396 293.79143098 232.66354509 308.33361359 230 323 C229.80664062 324.0916748 229.61328125 325.18334961 229.4140625 326.30810547 C219.85603339 378.70764005 196.12059135 425.26065564 161 465 C160.26765137 465.82927002 160.26765137 465.82927002 159.52050781 466.67529297 C154.51324744 472.31478318 149.4468874 477.7510952 143.65234375 482.59765625 C141.81961593 484.10832022 141.81961593 484.10832022 139.625 486.4375 C138 488 138 488 136 488 C136 488.66 136 489.32 136 490 C134.66162109 491.26171875 134.66162109 491.26171875 132.7734375 492.6875 C132.07895508 493.21609619 131.38447266 493.74469238 130.66894531 494.28930664 C129.91194336 494.85383545 129.15494141 495.41836426 128.375 496 C127.59737305 496.58450928 126.81974609 497.16901855 126.01855469 497.77124023 C124.42806726 498.96280373 122.83496064 500.15087913 121.23925781 501.33544922 C119.31481743 502.76598067 117.40224573 504.21054849 115.4921875 505.66015625 C96.03092535 520.21885154 73.45184248 531.53270746 50.75 540.0625 C50.02474121 540.33747314 49.29948242 540.61244629 48.55224609 540.89575195 C43.73237628 542.62518267 38.96301564 543.62411498 33.91894531 544.47485352 C28.7301078 545.40837555 23.6251741 546.70815081 18.5 547.9375 C1.10985387 552.02835083 -16.2892419 555.11341451 -34.1953125 555.203125 C-35.13742081 555.21018463 -36.07952911 555.21724426 -37.05018616 555.22451782 C-67.1668785 555.39896723 -95.47826251 553.52599658 -124.58984375 544.94140625 C-127.51149288 544.13485706 -130.28825569 543.61099707 -133.2734375 543.1328125 C-139.0831451 542.11200069 -144.21894853 540.19104157 -149.625 537.875 C-150.58083984 537.47249023 -151.53667969 537.06998047 -152.52148438 536.65527344 C-155.35471626 535.45252203 -158.17850231 534.22998865 -161 533 C-161.76151367 532.67225586 -162.52302734 532.34451172 -163.30761719 532.00683594 C-181.33530409 524.18350011 -198.38982268 513.92041402 -214 502 C-214.5765332 501.56478027 -215.15306641 501.12956055 -215.74707031 500.68115234 C-224.257442 494.23692266 -232.30990659 487.4143019 -240 480 C-240.69174316 479.33548828 -241.38348633 478.67097656 -242.09619141 477.98632812 C-251.33588488 469.06304888 -260.13813385 460.08828397 -267.73779297 449.71533203 C-269.04542687 447.93826515 -270.38138094 446.18537627 -271.72265625 444.43359375 C-308.09690548 396.49590602 -327.28956608 337.01921518 -327.1875 277 C-327.18656342 276.28045135 -327.18562683 275.56090271 -327.18466187 274.81954956 C-326.9692371 197.95535504 -294.65960063 128.50234848 -241.3125 74.1875 C-212.89981108 46.37367337 -177.29523358 25.31298211 -140 12 C-139.19916992 11.71286133 -138.39833984 11.42572266 -137.57324219 11.12988281 C-123.38569504 6.13562524 -108.75034342 2.85384214 -94 0 C-93.0728418 -0.18224121 -92.14568359 -0.36448242 -91.19042969 -0.55224609 C-62.28452171 -5.93394997 -28.88189024 -5.45493597 0 0 Z " fill="#282828" transform="translate(548,684)"/>
<path d="M0 0 C23.261762 0.30374444 47.06109925 12.33606214 65.5 25.9375 C68.60170101 28.04618939 69.35524383 28.31012695 73.3125 28.375 C74.71883056 28.06513055 76.11468435 27.70580049 77.5 27.3125 C98.14872087 21.90790496 118.22451871 19.92709905 139.5 19.9375 C140.39453888 19.93577789 141.28907776 19.93405579 142.21072388 19.93228149 C160.11512214 19.93618344 177.52830686 21.15536871 194.9375 25.5 C197.22557941 26.06532023 199.51588956 26.62170706 201.80859375 27.16796875 C202.78626709 27.41184326 203.76394043 27.65571777 204.77124023 27.90698242 C210.57833601 28.76996767 214.36891435 26.40264518 219.125 23.375 C231.91683948 15.48878444 245.15703389 7.96734124 259.5 3.3125 C260.93472656 2.83683594 260.93472656 2.83683594 262.3984375 2.3515625 C270.77475897 -0.09620973 278.86414226 0.01660132 287.5 0.3125 C295.92261987 21.61873208 299.26736523 44.81371644 292.375 67.0703125 C291.48045995 70.38490285 291.11845815 72.90246968 291.5 76.3125 C292.70312952 78.2676115 292.70312952 78.2676115 294.5 79.875 C312.63337214 99.14399747 318.94788192 126.12948542 318.8125 151.8125 C318.81100952 152.5132666 318.80951904 153.2140332 318.8079834 153.93603516 C318.76351308 165.60451698 317.94914761 176.88488703 315.5 188.3125 C315.2831958 189.36147461 315.2831958 189.36147461 315.06201172 190.43164062 C308.85604806 219.7639251 294.43072172 246.25957252 269.046875 263.15234375 C262.79053537 267.0546566 256.19666648 270.24673708 249.5 273.3125 C247.78103516 274.11494141 247.78103516 274.11494141 246.02734375 274.93359375 C228.85207284 282.38847459 210.19363983 286.26475124 191.5 286.3125 C192.16386719 287.12332031 192.82773437 287.93414063 193.51171875 288.76953125 C206.91981104 305.446591 209.94727586 321.26804428 209.88012505 342.2518425 C209.87091472 345.39707272 209.88134802 348.54171952 209.89674377 351.68692017 C209.93659019 360.61890938 209.93803896 369.55084672 209.93579102 378.48291016 C209.93573989 383.9704387 209.95490933 389.45764677 209.98512459 394.94508743 C209.99591815 398.03565659 209.98384482 401.12560707 209.97129822 404.21615601 C209.98020253 406.11465055 209.99027688 408.01314009 210.00170898 409.91162109 C209.98709373 411.18974167 209.98709373 411.18974167 209.97218323 412.49368286 C210.04100238 418.23208579 211.20446229 421.58575776 214.5 426.3125 C216.313697 427.71433436 216.313697 427.71433436 218.25 428.25 C219.3225 428.600625 220.395 428.95125 221.5 429.3125 C221.5 429.9725 221.5 430.6325 221.5 431.3125 C199.16571272 437.28506664 176.52421598 442.39929376 153.3046875 442.515625 C152.36257919 442.52268463 151.42047089 442.52974426 150.44981384 442.53701782 C119.08132871 442.71871818 89.76475149 440.3875833 59.5 431.3125 C59.5 430.6525 59.5 429.9925 59.5 429.3125 C60.04269531 429.08175781 60.58539063 428.85101562 61.14453125 428.61328125 C61.85996094 428.28714844 62.57539063 427.96101563 63.3125 427.625 C64.02019531 427.31175781 64.72789062 426.99851562 65.45703125 426.67578125 C68.12476928 424.89558895 69.05929596 423.17189857 70.5 420.3125 C70.96575756 417.51223475 70.96575756 417.51223475 70.93237305 414.51245117 C70.95216721 413.37164597 70.97196136 412.23084076 70.99235535 411.0554657 C70.99874527 409.83446671 71.00513519 408.61346771 71.01171875 407.35546875 C71.02966995 406.09736893 71.04762115 404.8392691 71.06611633 403.54304504 C71.11105762 400.21067746 71.14338289 396.87867635 71.16955566 393.54614258 C71.19942125 390.1406529 71.24593079 386.73539431 71.29101562 383.33007812 C71.37598338 376.65765893 71.44431869 369.98522438 71.5 363.3125 C70.68804169 363.5212677 69.87608337 363.7300354 69.03952026 363.94512939 C67.43223557 364.35369171 67.43223557 364.35369171 65.79248047 364.77050781 C64.203293 365.17647186 64.203293 365.17647186 62.58200073 365.59063721 C42.05305535 370.39890402 18.76603011 367.76637082 0.33984375 357.5625 C-12.81340871 349.31469568 -19.19160977 338.99973217 -25.5 325.3125 C-32.59716152 310.17069696 -41.28194113 298.29878615 -55.23046875 288.9140625 C-58.01998347 286.94555813 -60.20114646 284.82687105 -62.5 282.3125 C-63.16 281.6525 -63.82 280.9925 -64.5 280.3125 C-64.3125 277.8125 -64.3125 277.8125 -63.5 275.3125 C-58.29314145 271.84126097 -51.57536053 272.59889095 -45.5 273.3125 C-36.20785073 275.54718914 -28.78083401 280.2549402 -21.5 286.3125 C-20.87738281 286.82167969 -20.25476563 287.33085938 -19.61328125 287.85546875 C-15.53307969 291.55523194 -12.71725583 295.91043802 -9.75 300.5 C-2.44488691 311.76146869 5.54627738 320.74604502 17.5 327.3125 C16.84 327.9725 16.18 328.6325 15.5 329.3125 C15.16666667 331.8125 15.16666667 331.8125 15.5 334.3125 C17.26136355 336.49581689 17.26136355 336.49581689 19.4453125 336.5078125 C21.46354167 336.44270833 23.48177083 336.37760417 25.5 336.3125 C25.17 334.3325 24.84 332.3525 24.5 330.3125 C25.51191406 330.47234375 26.52382813 330.6321875 27.56640625 330.796875 C40.12339746 332.44287583 54.54091978 331.94033883 66.28125 326.70703125 C69.5 325.3125 69.5 325.3125 72.5 325.3125 C72.51417969 324.66925781 72.52835938 324.02601563 72.54296875 323.36328125 C73.24910527 309.98485682 78.74097424 297.59836088 88.5 288.3125 C87.49324219 288.14234375 86.48648438 287.9721875 85.44921875 287.796875 C80.79364204 287.0004747 76.14627978 286.16126922 71.5 285.3125 C70.72527344 285.17328125 69.95054687 285.0340625 69.15234375 284.890625 C43.28167245 280.16298964 19.44244848 270.76545292 -0.5 253.3125 C-1.25410156 252.65894531 -2.00820313 252.00539063 -2.78515625 251.33203125 C-13.48423387 241.35615172 -20.50725574 228.46963551 -26.5 215.3125 C-27.01691406 214.19746094 -27.53382813 213.08242188 -28.06640625 211.93359375 C-38.07108311 186.66292496 -41.97367331 151.7494905 -35.5 125.3125 C-35.34934082 124.68150391 -35.19868164 124.05050781 -35.04345703 123.40039062 C-30.79413558 106.07654792 -23.09954602 89.70693703 -10.46875 76.8828125 C-9.29636847 75.35437928 -9.29636847 75.35437928 -9.75 73.4765625 C-9.9975 72.76242187 -10.245 72.04828125 -10.5 71.3125 C-11.00356419 69.39676666 -11.50323627 67.48000799 -12 65.5625 C-12.2578125 64.57765625 -12.515625 63.5928125 -12.78125 62.578125 C-17.20184207 42.49326105 -15.00219624 20.0732147 -6.5 1.3125 C-4.74247837 -0.44502163 -2.392988 0.05627076 0 0 Z " fill="#FEFEFE" transform="translate(360.5,796.6875)"/>
<path d="M0 0 C0.76039581 -0.00701431 1.52079163 -0.01402863 2.30422974 -0.02125549 C4.74975544 -0.03869392 7.19503938 -0.04510887 9.640625 -0.046875 C10.47354065 -0.04754974 11.3064563 -0.04822449 12.16461182 -0.04891968 C54.0610501 0.00512916 54.0610501 0.00512916 67.890625 12.203125 C66.62355709 20.52664318 64.94422506 28.66455645 62.890625 36.828125 C62.63023437 37.90191406 62.36984375 38.97570312 62.1015625 40.08203125 C61.84632813 41.10425781 61.59109375 42.12648438 61.328125 43.1796875 C61.09996094 44.09830566 60.87179687 45.01692383 60.63671875 45.96337891 C59.890625 48.203125 59.890625 48.203125 57.890625 50.203125 C52.48704028 49.8507173 47.35873871 48.3415756 42.1484375 46.921875 C24.38600163 43.00306421 0.72725852 42.05726503 -15.1875 51.90234375 C-26.82017083 59.77567584 -32.01238722 72.03527861 -34.6953125 85.48828125 C-36.30287406 94.01526918 -36.62409771 102.35738079 -36.546875 111.015625 C-36.54350128 111.75470093 -36.54012756 112.49377686 -36.53665161 113.25524902 C-36.42930196 129.53639269 -35.650441 150.44595514 -23.39453125 162.953125 C-22.97042969 163.365625 -22.54632812 163.778125 -22.109375 164.203125 C-22.109375 164.863125 -22.109375 165.523125 -22.109375 166.203125 C-21.57183594 166.46996094 -21.03429687 166.73679687 -20.48046875 167.01171875 C-18.73733356 167.88759393 -17.0013397 168.77771827 -15.26953125 169.67578125 C-14.24730469 170.20042969 -13.22507812 170.72507812 -12.171875 171.265625 C-11.15222656 171.79285156 -10.13257813 172.32007813 -9.08203125 172.86328125 C-4.65767156 174.85744074 -0.65893595 175.32984456 4.1640625 175.3359375 C5.6490625 175.33787109 5.6490625 175.33787109 7.1640625 175.33984375 C8.18757812 175.33597656 9.21109375 175.33210938 10.265625 175.328125 C11.28140625 175.33199219 12.2971875 175.33585937 13.34375 175.33984375 C14.33632813 175.33855469 15.32890625 175.33726562 16.3515625 175.3359375 C17.69420166 175.33424561 17.69420166 175.33424561 19.06396484 175.33251953 C22.35763201 175.18174707 25.62664641 174.66940766 28.890625 174.203125 C28.890625 161.663125 28.890625 149.123125 28.890625 136.203125 C20.09524759 135.95355785 20.09524759 135.95355785 11.29931641 135.72509766 C10.20796387 135.6894873 9.11661133 135.65387695 7.9921875 135.6171875 C6.87150879 135.5857666 5.75083008 135.5543457 4.59619141 135.52197266 C1.890625 135.203125 1.890625 135.203125 -0.109375 133.203125 C-0.30927727 130.35772358 -0.38914476 127.61174716 -0.375 124.765625 C-0.37691345 123.92974854 -0.3788269 123.09387207 -0.38079834 122.23266602 C-0.38216036 120.46402689 -0.37846276 118.69537777 -0.37011719 116.92675781 C-0.35941775 114.21396506 -0.37001176 111.50183456 -0.3828125 108.7890625 C-0.38149091 107.0729152 -0.37892852 105.35676831 -0.375 103.640625 C-0.37904846 102.82601807 -0.38309692 102.01141113 -0.38726807 101.17211914 C-0.33929428 95.43304428 -0.33929428 95.43304428 1.890625 93.203125 C4.85107422 92.94915771 4.85107422 92.94915771 8.6953125 92.94433594 C9.39464905 92.9408313 10.0939856 92.93732666 10.81451416 92.93371582 C13.13165138 92.92489624 15.44848455 92.9307483 17.765625 92.9375 C19.37223367 92.93615341 20.97884195 92.93421293 22.58544922 92.93170166 C25.95479202 92.9287501 29.32402887 92.93304903 32.69335938 92.94238281 C37.01801994 92.95377742 41.34243229 92.94721811 45.66708374 92.93523788 C48.9852893 92.92802012 52.30343575 92.93030681 55.62164307 92.93549347 C57.216492 92.9368302 58.81134625 92.93518142 60.40618896 92.93053436 C62.63291698 92.92547044 64.85923976 92.93317712 67.0859375 92.94433594 C68.35453613 92.94592712 69.62313477 92.94751831 70.93017578 92.94915771 C73.890625 93.203125 73.890625 93.203125 75.890625 95.203125 C76.15906715 97.13754749 76.15906715 97.13754749 76.18496704 99.54804993 C76.19927765 100.46071625 76.21358826 101.37338257 76.22833252 102.31370544 C76.23371033 103.31789017 76.23908813 104.32207489 76.24462891 105.35668945 C76.2577713 106.41208923 76.2709137 107.46748901 76.28445435 108.55487061 C76.32398033 112.05871845 76.34725722 115.56239472 76.3671875 119.06640625 C76.37533855 120.26088064 76.38348961 121.45535503 76.39188766 122.68602562 C76.43363306 129.00706674 76.46222687 135.32802068 76.48095703 141.64916992 C76.50310237 148.18692198 76.57191137 154.7233155 76.65130043 161.26058674 C76.7035252 166.28000972 76.72033078 171.29910628 76.72751999 176.31877708 C76.73727875 178.72902804 76.76058393 181.13926313 76.79759598 183.54924965 C76.84616379 186.92106179 76.84449389 190.28932408 76.83056641 193.66137695 C76.85618652 194.65948898 76.88180664 195.65760101 76.90820312 196.68595886 C76.80854002 203.29631832 76.80854002 203.29631832 74.1684227 205.9044857 C72.11934871 207.21293962 70.12132841 208.2423171 67.890625 209.203125 C66.74722656 209.75097656 65.60382813 210.29882812 64.42578125 210.86328125 C47.80008037 217.57714696 31.4992286 220.43909236 13.578125 220.453125 C12.81051849 220.45379974 12.04291199 220.45447449 11.25204468 220.45516968 C0.1924159 220.43967939 -10.38158677 220.16006773 -21.109375 217.203125 C-21.75310059 217.02620117 -22.39682617 216.84927734 -23.06005859 216.66699219 C-43.48798027 210.88748246 -60.12756792 199.077611 -70.796875 180.578125 C-89.87127308 146.17407013 -88.95595734 98.44340436 -79.109375 61.203125 C-73.01844419 40.33054503 -61.60938043 22.20743388 -42.5546875 11.0703125 C-29.23008461 3.84904245 -15.17222329 0.09354986 0 0 Z " fill="#282828" transform="translate(973.109375,849.796875)"/>
<path d="M0 0 C1.91091919 -0.36076355 1.91091919 -0.36076355 4.26611328 -0.34057617 C5.14687531 -0.34034958 6.02763733 -0.34012299 6.93508911 -0.33988953 C7.88721283 -0.32440567 8.83933655 -0.30892181 9.8203125 -0.29296875 C10.79410858 -0.28872391 11.76790466 -0.28447906 12.77120972 -0.28010559 C15.88941805 -0.26327786 19.00698617 -0.22561811 22.125 -0.1875 C24.23566777 -0.17245846 26.34634564 -0.15876914 28.45703125 -0.14648438 C33.63824023 -0.11336109 38.81907439 -0.06312151 44 0 C45.46854 2.93708001 45.13019549 5.89343705 45.11352539 9.11181641 C45.11367142 9.84362625 45.11381744 10.5754361 45.1139679 11.329422 C45.11327003 13.75349876 45.10548354 16.17749912 45.09765625 18.6015625 C45.09579162 20.28022215 45.09436793 21.95888234 45.09336853 23.63754272 C45.08954688 28.05987038 45.07971959 32.48216528 45.06866455 36.90447998 C45.0566463 42.20833662 45.05204651 47.5122042 45.04621124 52.81607056 C45.03650766 60.87740316 45.01734864 68.93866389 45 77 C64.14 77 83.28 77 103 77 C102.98839844 71.52535156 102.97679687 66.05070313 102.96484375 60.41015625 C102.95973694 56.9511707 102.95492317 53.49218976 102.95117188 50.03320312 C102.94518363 44.53750651 102.93808381 39.04182649 102.92456055 33.54614258 C102.913731 29.11766312 102.90772302 24.68920144 102.90512276 20.26070976 C102.90326863 18.56734372 102.89964825 16.87397871 102.89426994 15.18062019 C102.8870586 12.81708768 102.8860091 10.45362955 102.88647461 8.09008789 C102.88287933 7.38302704 102.87928406 6.67596619 102.87557983 5.94747925 C102.88594784 1.11405216 102.88594784 1.11405216 104 0 C105.37609882 -0.09795311 106.75713882 -0.12798088 108.13671875 -0.12939453 C109.01432861 -0.13254669 109.89193848 -0.13569885 110.79614258 -0.13894653 C111.75029053 -0.1369223 112.70443848 -0.13489807 113.6875 -0.1328125 C114.66033936 -0.13376923 115.63317871 -0.13472595 116.63549805 -0.13571167 C118.696778 -0.13639358 120.75806008 -0.13453853 122.81933594 -0.13037109 C125.98637688 -0.125023 129.153276 -0.13031572 132.3203125 -0.13671875 C134.31770865 -0.13605797 136.31510471 -0.13477681 138.3125 -0.1328125 C139.26664795 -0.13483673 140.2207959 -0.13686096 141.20385742 -0.13894653 C142.08146729 -0.13579437 142.95907715 -0.13264221 143.86328125 -0.12939453 C144.63969971 -0.12859894 145.41611816 -0.12780334 146.21606445 -0.12698364 C148 0 148 0 149 1 C149.10004044 3.6531724 149.13440233 6.2803818 149.12698364 8.93408203 C149.12854363 9.77544268 149.13010362 10.61680332 149.13171089 11.48365974 C149.13572452 14.3250614 149.13252985 17.16641037 149.12939453 20.0078125 C149.13074841 22.03586865 149.13252827 24.06392455 149.13470459 26.09197998 C149.1392805 31.6166112 149.13748872 37.14122384 149.1343255 42.66585541 C149.13180271 48.43365023 149.13413921 54.2014434 149.13571167 59.96923828 C149.1375336 69.65722948 149.13512643 79.34521308 149.13037109 89.03320312 C149.12492843 100.25137759 149.12669107 111.46953388 149.1321975 122.6877079 C149.13672795 132.30040455 149.13737951 141.91309571 149.13475883 151.52579308 C149.13319568 157.27535678 149.13300332 163.02491193 149.13629532 168.7744751 C149.13917305 174.17848821 149.13720015 179.58247778 149.13140106 184.98648834 C149.13007294 186.97596447 149.13046846 188.96544255 149.13266373 190.95491791 C149.13537319 193.65861182 149.13199663 196.36222902 149.12698364 199.06591797 C149.12921436 199.86385836 149.13144509 200.66179874 149.13374341 201.48391914 C149.11414984 206.88585016 149.11414984 206.88585016 148 208 C146.62390118 208.09795311 145.24286118 208.12798088 143.86328125 208.12939453 C142.54686646 208.13412277 142.54686646 208.13412277 141.20385742 208.13894653 C140.24970947 208.1369223 139.29556152 208.13489807 138.3125 208.1328125 C136.85324097 208.13424759 136.85324097 208.13424759 135.36450195 208.13571167 C133.303222 208.13639358 131.24193992 208.13453853 129.18066406 208.13037109 C126.01362312 208.125023 122.846724 208.13031572 119.6796875 208.13671875 C117.68229135 208.13605797 115.68489529 208.13477681 113.6875 208.1328125 C112.73335205 208.13483673 111.7792041 208.13686096 110.79614258 208.13894653 C109.91853271 208.13579437 109.04092285 208.13264221 108.13671875 208.12939453 C107.36030029 208.12859894 106.58388184 208.12780334 105.78393555 208.12698364 C104 208 104 208 103 207 C102.87485589 204.29246274 102.81392872 201.60917896 102.79467773 198.90014648 C102.78477814 198.05143982 102.77487854 197.20273315 102.76467896 196.32830811 C102.73296753 193.50926551 102.70826861 190.69020602 102.68359375 187.87109375 C102.66303254 185.92195689 102.6420363 183.97282456 102.62062073 182.0236969 C102.56531402 176.88298207 102.5159428 171.74222643 102.46777344 166.60144043 C102.40880986 160.43903367 102.34253478 154.27670181 102.27747345 148.11435699 C102.17935581 138.74295024 102.09057379 129.37149639 102 120 C83.52 120 65.04 120 46 120 C45.95101563 126.18492187 45.90203125 132.36984375 45.8515625 138.7421875 C45.8161915 142.65236047 45.78024032 146.56251071 45.7421875 150.47265625 C45.68179817 156.68372401 45.62359836 162.89475983 45.578125 169.10595703 C45.54134361 174.11160891 45.49500349 179.11708812 45.44193649 184.12259293 C45.42335443 186.03559475 45.40826068 187.94863364 45.39665604 189.86169052 C45.37985855 192.53411423 45.35083995 195.20613916 45.31884766 197.87841797 C45.31668747 198.67539093 45.31452728 199.47236389 45.31230164 200.29348755 C45.22810432 205.77189568 45.22810432 205.77189568 43 208 C41.14050293 208.26069641 41.14050293 208.26069641 38.85742188 208.2746582 C37.57599304 208.28895622 37.57599304 208.28895622 36.26867676 208.30354309 C35.34470093 208.30263168 34.4207251 208.30172028 33.46875 208.30078125 C32.52189331 208.30506638 31.57503662 208.3093515 30.5994873 208.31376648 C28.59546713 208.31951531 26.59142608 208.32000599 24.58740234 208.31567383 C21.51233548 208.31251268 18.43822913 208.33597027 15.36328125 208.36132812 C13.41927205 208.36360085 11.47526026 208.36430474 9.53125 208.36328125 C8.60727417 208.372491 7.68329834 208.38170074 6.73132324 208.39118958 C5.87703735 208.38496078 5.02275146 208.37873199 4.14257812 208.37231445 C3.012453 208.37325859 3.012453 208.37325859 1.85949707 208.3742218 C0 208 0 208 -2 205 C-2.19359667 202.29586151 -2.26953174 199.69508397 -2.25396729 196.99072266 C-2.25708727 196.1653985 -2.26020725 195.34007435 -2.26342177 194.48974037 C-2.27142159 191.71444252 -2.26507043 188.93936212 -2.25878906 186.1640625 C-2.26149804 184.17836376 -2.26505845 182.19266603 -2.26940918 180.20697021 C-2.27854649 174.80626728 -2.27498339 169.40564053 -2.26865101 164.00493622 C-2.26359796 158.36087331 -2.26828052 152.71681706 -2.27142334 147.07275391 C-2.27506502 137.59341253 -2.2702586 128.11410228 -2.26074219 118.63476562 C-2.24985726 107.66537036 -2.2533827 96.69604943 -2.264395 85.72665596 C-2.27346214 76.31940129 -2.27475596 66.91216905 -2.26951766 57.50491142 C-2.2663948 51.88161881 -2.26599727 46.25836118 -2.27259064 40.6350708 C-2.27835513 35.34918985 -2.27438365 30.06340502 -2.26280212 24.77753448 C-2.26015073 22.83404958 -2.26092875 20.89055663 -2.26532745 18.94707489 C-2.27076548 16.30103202 -2.26397007 13.65530021 -2.25396729 11.00927734 C-2.25842873 10.23409067 -2.26289017 9.458904 -2.26748681 8.66022682 C-2.23973739 4.89448968 -2.1430507 3.21457604 0 0 Z " fill="#282828" transform="translate(1247,858)"/>
<path d="M0 0 C0.87760986 -0.00315216 1.75521973 -0.00630432 2.65942383 -0.009552 C3.61357178 -0.00752777 4.56771973 -0.00550354 5.55078125 -0.00341797 C6.52362061 -0.00437469 7.49645996 -0.00533142 8.4987793 -0.00631714 C10.56005925 -0.00699905 12.62134133 -0.00514399 14.68261719 -0.00097656 C17.84965813 0.00437153 21.01655725 -0.00092119 24.18359375 -0.00732422 C26.1809899 -0.00666344 28.17838596 -0.00538228 30.17578125 -0.00341797 C31.1299292 -0.0054422 32.08407715 -0.00746643 33.06713867 -0.009552 C34.38355347 -0.00482376 34.38355347 -0.00482376 35.7265625 0 C36.50298096 0.00079559 37.27939941 0.00159119 38.0793457 0.00241089 C39.86328125 0.12939453 39.86328125 0.12939453 40.86328125 1.12939453 C40.98719807 3.2454455 41.04128031 5.36560736 41.06860352 7.48510742 C41.07850311 8.14849625 41.08840271 8.81188507 41.09860229 9.49537659 C41.13029862 11.69756448 41.15500659 13.89977399 41.1796875 16.10205078 C41.20025003 17.62520421 41.2212463 19.14835184 41.24266052 20.67149353 C41.29795372 24.68770667 41.34733088 28.70397191 41.39550781 32.72027588 C41.44567007 36.81568052 41.50138361 40.91100915 41.55664062 45.00634766 C41.66431079 53.04729908 41.76573592 61.08831394 41.86328125 69.12939453 C42.65919678 68.78948486 43.4551123 68.4495752 44.27514648 68.09936523 C45.8637146 67.42780396 45.8637146 67.42780396 47.484375 66.74267578 C48.52779053 66.29964111 49.57120605 65.85660645 50.64624023 65.40014648 C66.44681866 59.15881608 84.735445 58.8821042 100.53125 65.19580078 C113.16461896 70.98689124 120.27747825 80.56117281 125.61328125 93.19189453 C135.32770093 120.70005323 134.69205646 159.13833876 122.43896484 185.74975586 C116.53998261 197.81850922 108.91831554 205.4579768 96.11328125 209.94189453 C78.62238747 215.4495233 57.26666058 213.14085344 40.90234375 205.21142578 C37.18917311 203.2410268 33.50462931 201.22984116 29.86328125 199.12939453 C29.90453125 200.05751953 29.94578125 200.98564453 29.98828125 201.94189453 C29.86328125 205.12939453 29.86328125 205.12939453 27.86328125 208.12939453 C25.39162277 208.40919769 23.17349384 208.50194939 20.703125 208.45751953 C19.99805313 208.45564636 19.29298126 208.45377319 18.56654358 208.45184326 C17.07613395 208.44511935 15.58574206 208.43119795 14.09545898 208.41064453 C11.80631232 208.37946986 9.51785357 208.36967306 7.22851562 208.36376953 C5.78254363 208.35460051 4.33657868 208.34422506 2.890625 208.33251953 C2.20209946 208.32826965 1.51357391 208.32401978 0.80418396 208.31964111 C-4.01955506 208.24655822 -4.01955506 208.24655822 -5.13671875 207.12939453 C-5.23675919 204.47622213 -5.27112108 201.84901273 -5.26370239 199.1953125 C-5.26526238 198.35395185 -5.26682237 197.51259121 -5.26842964 196.64573479 C-5.27244327 193.80433313 -5.2692486 190.96298416 -5.26611328 188.12158203 C-5.26746716 186.09352588 -5.26924702 184.06546998 -5.27142334 182.03741455 C-5.27599925 176.51278333 -5.27420747 170.98817069 -5.27104425 165.46353912 C-5.26852146 159.6957443 -5.27085796 153.92795113 -5.27243042 148.16015625 C-5.27425235 138.47216505 -5.27184518 128.78418145 -5.26708984 119.09619141 C-5.26164718 107.87801694 -5.26340982 96.65986065 -5.26891625 85.44168663 C-5.2734467 75.82898998 -5.27409826 66.21629882 -5.27147758 56.60360146 C-5.26991443 50.85403775 -5.26972207 45.1044826 -5.27301407 39.35491943 C-5.2758918 33.95090632 -5.2739189 28.54691675 -5.26811981 23.14290619 C-5.26679169 21.15343007 -5.26718721 19.16395198 -5.26938248 17.17447662 C-5.27209194 14.47078271 -5.26871538 11.76716551 -5.26370239 9.06347656 C-5.26593311 8.26553617 -5.26816384 7.46759579 -5.27046216 6.64547539 C-5.24637757 0.00537594 -5.24637757 0.00537594 0 0 Z M39.86328125 106.12939453 C39.76932068 108.06245951 39.74584608 109.99898291 39.74975586 111.93432617 C39.74983139 113.17553726 39.74990692 114.41674835 39.74998474 115.6955719 C39.75509214 117.06023193 39.76030815 118.42489155 39.765625 119.78955078 C39.76748925 121.17817636 39.76891312 122.5668026 39.76991272 123.95542908 C39.77373738 127.61660568 39.78356722 131.27774283 39.7946167 134.93890381 C39.80483193 138.67231716 39.80941058 142.40573687 39.81445312 146.13916016 C39.82518954 153.4692563 39.84226534 160.79931989 39.86328125 168.12939453 C41.7347282 168.95004522 43.61062461 169.76055293 45.48828125 170.56689453 C46.53242187 171.01935547 47.5765625 171.47181641 48.65234375 171.93798828 C56.78056234 174.95393314 67.04739125 175.78175203 75.14453125 172.23095703 C79.53052277 169.41993519 81.75780713 165.17535494 83.11328125 160.25439453 C86.19090015 144.44380324 88.20549747 122.27992407 80.0546875 107.81298828 C76.43184692 102.69349881 72.02664202 100.31881503 65.86328125 99.12939453 C58.07496647 98.36583426 45.7332695 100.25940628 39.86328125 106.12939453 Z " fill="#282828" transform="translate(1568.13671875,857.87060546875)"/>
<path d="M0 0 C1.21641174 -0.01429802 1.21641174 -0.01429802 2.45739746 -0.02888489 C3.76529236 -0.02751778 3.76529236 -0.02751778 5.09960938 -0.02612305 C5.99828735 -0.03040817 6.89696533 -0.0346933 7.82287598 -0.03910828 C9.7225663 -0.04485023 11.62227861 -0.04535283 13.52197266 -0.04101562 C16.43234619 -0.03785376 19.34170517 -0.06132276 22.25195312 -0.08666992 C24.09700392 -0.08894269 25.94205746 -0.08964651 27.78710938 -0.08862305 C29.09500427 -0.10243767 29.09500427 -0.10243767 30.42932129 -0.11653137 C31.24026245 -0.11030258 32.05120361 -0.10407379 32.88671875 -0.09765625 C33.95569397 -0.09860039 33.95569397 -0.09860039 35.04626465 -0.0995636 C37.5527207 0.39486111 38.3410812 1.31142309 39.94335938 3.2746582 C40.23791949 6.32517446 40.34977657 9.17325953 40.328125 12.22485352 C40.33349777 13.14063675 40.33887054 14.05641998 40.34440613 14.99995422 C40.35419635 16.99044941 40.35712453 18.98098733 40.35404968 20.97150421 C40.34957881 24.12433776 40.36355289 27.27660783 40.38244629 30.42938232 C40.4192787 37.1277983 40.43293956 43.82615587 40.44335938 50.5246582 C40.4554403 58.27325149 40.47703779 66.02157165 40.52336121 73.77004242 C40.53691828 76.87156432 40.53276191 79.97273994 40.5279541 83.07427979 C40.53729839 84.98515256 40.54746814 86.89602153 40.55859375 88.80688477 C40.55244553 89.66532486 40.5462973 90.52376495 40.53996277 91.40821838 C40.59454372 96.76227816 41.35005037 100.5519127 43.94335938 105.2746582 C49.5699694 108.90851051 55.38735901 109.054336 61.94335938 108.2746582 C67.61580441 106.92316962 73.06505936 105.52685821 77.94335938 102.2746582 C78.39512155 100.41688606 78.39512155 100.41688606 78.32189941 98.2512207 C78.33010208 97.40994629 78.33830475 96.56867188 78.34675598 95.7019043 C78.34060776 94.77716309 78.33445953 93.85242188 78.328125 92.8996582 C78.33349777 91.92722168 78.33887054 90.95478516 78.34440613 89.95288086 C78.3542068 87.83685294 78.3571214 85.72078472 78.35404968 83.60473633 C78.34959001 80.26013852 78.36351886 76.91607499 78.38244629 73.5715332 C78.41930957 66.47258371 78.4329548 59.37368936 78.44335938 52.2746582 C78.45541191 44.05122584 78.47682382 35.82805215 78.52336121 27.60473633 C78.53699691 24.30190057 78.53274863 20.99938638 78.5279541 17.6965332 C78.53728976 15.68090395 78.54745732 13.66527831 78.55859375 11.6496582 C78.55244553 10.72491699 78.5462973 9.80017578 78.53996277 8.84741211 C78.54816544 8.0061377 78.5563681 7.16486328 78.56481934 6.2980957 C78.56553185 5.56510254 78.56624435 4.83210937 78.56697845 4.0769043 C78.94335938 2.2746582 78.94335938 2.2746582 81.94335938 0.2746582 C84.95385238 0.06611112 87.86957482 -0.02935167 90.88085938 -0.02612305 C91.75734131 -0.03040817 92.63382324 -0.0346933 93.53686523 -0.03910828 C95.38947689 -0.04484976 97.24211109 -0.04535317 99.09472656 -0.04101562 C101.93268139 -0.03785369 104.76959581 -0.0613234 107.60742188 -0.08666992 C109.40689972 -0.0889427 111.20638038 -0.08964651 113.00585938 -0.08862305 C113.85591553 -0.09783279 114.70597168 -0.10704254 115.58178711 -0.11653137 C121.43654542 -0.07042299 121.43654542 -0.07042299 123.66777325 1.44878292 C125.44353981 3.99061699 125.31809301 5.7721591 125.31758118 8.86097717 C125.32459549 10.02336411 125.3316098 11.18575104 125.33883667 12.38336182 C125.33119293 13.65983582 125.32354919 14.93630981 125.31567383 16.25146484 C125.31810157 17.60825377 125.32182072 18.96504092 125.32673645 20.32182312 C125.33615071 24.00770796 125.32671618 27.6933275 125.31340432 31.37919164 C125.30209995 35.23264822 125.30619648 39.08609154 125.30815125 42.93955994 C125.30903444 49.41010888 125.29794772 55.88055309 125.27954102 62.35107422 C125.25836404 69.83843893 125.25486524 77.32565029 125.26110297 84.81303889 C125.26679153 92.00891403 125.26115758 99.20473501 125.24992943 106.40060234 C125.24527759 109.46636389 125.2444121 112.53209239 125.24651527 115.59785652 C125.24839472 119.20527644 125.24032102 122.8125396 125.22445488 126.41992378 C125.2181677 128.38043352 125.2217259 130.34096701 125.2255249 132.30148315 C125.21844009 133.46105026 125.21135529 134.62061737 125.20405579 135.81532288 C125.20097648 137.33320199 125.20097648 137.33320199 125.19783497 138.88174534 C124.94335938 141.2746582 124.94335938 141.2746582 122.94335938 143.2746582 C120.0859375 143.53344727 120.0859375 143.53344727 116.47460938 143.5402832 C115.18167969 143.54286133 113.88875 143.54543945 112.55664062 143.5480957 C111.88197754 143.54390625 111.20731445 143.5397168 110.51220703 143.53540039 C108.4511978 143.5246989 106.39106018 143.53529763 104.33007812 143.5480957 C103.03714844 143.54551758 101.74421875 143.54293945 100.41210938 143.5402832 C99.22037109 143.53802734 98.02863281 143.53577148 96.80078125 143.53344727 C93.94335938 143.2746582 93.94335938 143.2746582 91.94335938 141.2746582 C91.31835938 138.6496582 91.31835938 138.6496582 90.94335938 136.2746582 C86.59801887 137.64445634 82.5251296 139.32490652 78.38085938 141.2121582 C59.4386818 149.37453728 36.44323796 150.66167103 16.94335938 143.2746582 C6.2264843 138.47054179 0.36650811 131.32865408 -4.01367188 120.5949707 C-6.52906019 112.58718019 -7.35328131 104.89747525 -7.33129883 96.5324707 C-7.33640976 95.51009811 -7.34152069 94.48772552 -7.3467865 93.43437195 C-7.36057396 90.08940623 -7.35973547 86.74464876 -7.35742188 83.3996582 C-7.36131168 81.06461511 -7.36564694 78.72957273 -7.3704071 76.39453125 C-7.3778436 71.51942642 -7.37759444 66.64439408 -7.37231445 61.76928711 C-7.36648994 55.50997729 -7.38353492 49.25096051 -7.40665913 42.99169922 C-7.42134827 38.17916114 -7.42227534 33.36669471 -7.4191494 28.55413818 C-7.41966395 26.24476536 -7.4249266 23.93538867 -7.43496132 21.6260376 C-7.44722959 18.41105629 -7.44059462 15.19666062 -7.42895508 11.98168945 C-7.43659882 11.02276291 -7.44424255 10.06383636 -7.45211792 9.07585144 C-7.44510361 8.20406754 -7.43808929 7.33228363 -7.43086243 6.43408203 C-7.43103017 5.6746077 -7.43119791 4.91513336 -7.43137074 4.13264465 C-6.64343223 0.22588874 -3.36584641 0.02176071 0 0 Z " fill="#282828" transform="translate(1420.056640625,922.725341796875)"/>
<path d="M0 0 C0.77943466 0.00222061 1.55886932 0.00444122 2.36192322 0.00672913 C3.24276077 0.00680466 4.12359833 0.00688019 5.03112793 0.00695801 C5.98841293 0.01211929 6.94569794 0.01728058 7.93199158 0.02259827 C9.39480812 0.02472069 9.39480812 0.02472069 10.88717651 0.02688599 C14.01542675 0.03250319 17.14360656 0.04505859 20.27183533 0.05775452 C22.38706867 0.0627673 24.50230313 0.06733059 26.61753845 0.07142639 C31.81482829 0.0824782 37.01207678 0.09923305 42.20933533 0.12025452 C43.84879495 3.39917377 43.3296371 7.02638985 43.30699158 10.62806702 C43.30557663 11.46868683 43.30416168 12.30930664 43.30270386 13.17539978 C43.2970977 15.86538727 43.28454419 18.55529211 43.27183533 21.24525452 C43.26682112 23.0668679 43.26225807 24.88848258 43.25816345 26.71009827 C43.24712627 31.18018229 43.22985752 35.65020438 43.20933533 40.12025452 C44.07212097 40.10454407 44.93490662 40.08883362 45.82383728 40.07264709 C49.027428 40.02149497 52.23081048 39.98389292 55.43467712 39.95545959 C56.82081452 39.94038055 58.20690427 39.91991402 59.59288025 39.89393616 C61.58591679 39.85751736 63.57930255 39.84212433 65.57261658 39.82728577 C66.77184753 39.81157532 67.97107849 39.79586487 69.20664978 39.77967834 C72.20933533 40.12025452 72.20933533 40.12025452 74.10142517 41.1598053 C75.83650599 44.23003425 75.61638934 47.34907107 75.57261658 50.78041077 C75.57336433 51.89892677 75.57336433 51.89892677 75.5741272 53.04003906 C75.57178893 54.61441212 75.56207488 56.18878906 75.54551697 57.76307678 C75.52188777 60.1773963 75.52496189 62.59061411 75.53160095 65.00502014 C75.52602529 66.53432362 75.51891611 68.06362244 75.51011658 69.59291077 C75.51102798 70.31688553 75.51193939 71.04086029 75.51287842 71.78677368 C75.44038095 76.88920889 75.44038095 76.88920889 73.20933533 79.12025452 C70.2283783 79.3473053 70.2283783 79.3473053 66.45152283 79.31556702 C65.78847137 79.31273712 65.12541992 79.30990723 64.442276 79.30699158 C62.3227795 79.29578887 60.20370428 79.27068502 58.08433533 79.24525452 C56.64814351 79.23522479 55.21194507 79.22609893 53.77574158 79.21791077 C50.25346904 79.19584952 46.73144329 79.16131945 43.20933533 79.12025452 C43.29381318 86.98747801 43.38872527 94.85450083 43.49686241 102.72143078 C43.54675221 106.37459726 43.59308261 110.02773585 43.63121033 113.68104553 C43.66815597 117.20843278 43.71454054 120.73558247 43.76739883 124.26276588 C43.79487824 126.25955048 43.81264816 128.25646107 43.83027649 130.25335693 C43.85014618 131.47424515 43.87001587 132.69513336 43.89048767 133.95301819 C43.90381134 135.02557358 43.91713501 136.09812897 43.93086243 137.20318604 C44.21961107 140.22789535 44.8391272 142.41564997 46.20933533 145.12025452 C52.68956659 148.75762571 60.68719793 148.38504403 67.90122986 148.09803772 C69.66960271 148.03822828 71.44060333 148.07222519 73.20933533 148.12025452 C75.20933533 150.12025452 75.20933533 150.12025452 75.43638611 153.2848053 C75.43606922 154.62843415 75.42475714 155.97208862 75.40464783 157.31556702 C75.40181793 158.02301056 75.39898804 158.7304541 75.39607239 159.45933533 C75.3848667 161.72147962 75.35976212 163.98322966 75.33433533 166.24525452 C75.324306 167.77780089 75.31518006 169.31035346 75.30699158 170.84291077 C75.28492619 174.60217753 75.25039428 178.36114915 75.20933533 182.12025452 C59.37680274 189.00100134 40.70584981 189.1917544 24.20933533 184.12025452 C12.73116532 179.11694964 5.12538912 172.22933617 0.13121033 160.61244202 C-2.10107907 154.15631091 -2.91670683 147.93927351 -2.90419006 141.1051178 C-2.90433609 140.43124527 -2.90448212 139.75737274 -2.90463257 139.06307983 C-2.90394088 136.85554179 -2.89618364 134.64809016 -2.88832092 132.44056702 C-2.8864541 130.90214585 -2.88503144 129.36372409 -2.8840332 127.82530212 C-2.88022886 123.79101397 -2.87041651 119.75676224 -2.85932922 115.7224884 C-2.84907017 111.59987379 -2.84452598 107.47725324 -2.8394928 103.35462952 C-2.82879225 95.27648786 -2.81174102 87.19837573 -2.79066467 79.12025452 C-3.45187317 79.12549133 -4.11308167 79.13072815 -4.79432678 79.13612366 C-7.77226319 79.15683108 -10.75018449 79.16989464 -13.72816467 79.18275452 C-15.28954163 79.19532288 -15.28954163 79.19532288 -16.88246155 79.20814514 C-17.87181702 79.2113678 -18.86117249 79.21459045 -19.88050842 79.21791077 C-21.25517273 79.22576599 -21.25517273 79.22576599 -22.65760803 79.23377991 C-24.79066467 79.12025452 -24.79066467 79.12025452 -25.79066467 78.12025452 C-25.87850009 75.90170187 -25.89761076 73.68036955 -25.88832092 71.46009827 C-25.88690598 70.79563187 -25.88549103 70.13116547 -25.8840332 69.44656372 C-25.87841985 67.31691553 -25.86586521 65.18737112 -25.85316467 63.05775452 C-25.84815139 61.61700082 -25.84358818 60.17624549 -25.8394928 58.73548889 C-25.82844612 55.1970435 -25.81117259 51.65865913 -25.79066467 48.12025452 C-21.42534453 46.16489781 -17.26504851 44.57259416 -12.60316467 43.43275452 C-11.59898499 43.18138733 -10.5948053 42.93002014 -9.56019592 42.67103577 C-6.79066467 42.12025452 -6.79066467 42.12025452 -2.79066467 42.12025452 C-2.79590149 40.88347961 -2.80113831 39.64670471 -2.80653381 38.37245178 C-2.82458029 33.80100727 -2.83609538 29.22956593 -2.84559631 24.65809631 C-2.85063735 22.6763201 -2.85747005 20.69454763 -2.86610413 18.71278381 C-2.87817982 15.87073343 -2.88389512 13.02873204 -2.88832092 10.18666077 C-2.89348221 9.2949971 -2.89864349 8.40333344 -2.90396118 7.48464966 C-2.90415644 5.3628485 -2.85276497 3.24114672 -2.79066467 1.12025452 C-1.79066467 0.12025452 -1.79066467 0.12025452 0 0 Z " fill="#282828" transform="translate(1153.7906646728516,882.8797454833984)"/>
<path d="M0 0 C1.22125328 -0.00461494 1.22125328 -0.00461494 2.46717834 -0.00932312 C3.77977882 0.00145515 3.77977882 0.00145515 5.11889648 0.01245117 C6.47047096 0.0131385 6.47047096 0.0131385 7.84934998 0.01383972 C9.75325844 0.01685992 11.65716448 0.02473928 13.56103516 0.03710938 C16.48210356 0.05537062 19.40285507 0.05761899 22.32397461 0.05737305 C24.17228465 0.06228815 26.02059254 0.06811644 27.86889648 0.07495117 C29.18453331 0.07662041 29.18453331 0.07662041 30.52674866 0.07832336 C36.69534753 0.12684857 36.69534753 0.12684857 38.92749023 1.24291992 C38.97416192 19.46210134 39.00945532 37.6812673 39.03111458 55.90049553 C39.04143758 64.35954661 39.05551741 72.81856061 39.07836914 81.27758789 C39.09827174 88.64843524 39.11119921 96.01925574 39.11566722 103.39012921 C39.11827993 107.29479681 39.12444203 111.19938758 39.13895035 115.10403061 C39.1524849 118.77621664 39.1567213 122.44829387 39.1537056 126.12050247 C39.15452162 128.11684808 39.16530478 130.11318174 39.17633057 132.10949707 C39.17358124 133.29022797 39.17083191 134.47095886 39.16799927 135.68746948 C39.16984285 136.71803404 39.17168644 137.74859859 39.17358589 138.81039238 C38.92749023 141.24291992 38.92749023 141.24291992 36.92749023 143.24291992 C33.87743577 143.45537186 30.92054396 143.54687222 27.86889648 143.54370117 C26.96880356 143.5479863 26.06871063 143.55227142 25.14134216 143.5566864 C23.23567548 143.56243522 21.32998684 143.56292591 19.42431641 143.55859375 C16.50507213 143.55543623 13.58684329 143.57887726 10.66772461 143.60424805 C8.81811652 143.60652119 6.96850569 143.60722447 5.11889648 143.60620117 C3.80629601 143.62001579 3.80629601 143.62001579 2.46717834 143.6341095 C1.65300949 143.62788071 0.83884064 143.62165192 0 143.61523438 C-0.71566635 143.6158638 -1.4313327 143.61649323 -2.16868591 143.61714172 C-4.73181007 143.11332571 -5.48341105 142.30817079 -7.07250977 140.24291992 C-7.45003319 137.72416592 -7.45003319 137.72416592 -7.45346069 134.65660095 C-7.46192017 133.49421402 -7.47037964 132.33182709 -7.47909546 131.13421631 C-7.47302277 129.85774231 -7.46695007 128.58126831 -7.46069336 127.26611328 C-7.46475806 125.90932289 -7.47009937 124.5525358 -7.47662354 123.195755 C-7.49031389 119.50988313 -7.48499188 115.82426283 -7.47548628 112.13838649 C-7.46790008 108.2849234 -7.47493225 104.4314821 -7.47964478 100.57801819 C-7.48510472 94.10747401 -7.47790382 87.63703251 -7.46362305 81.16650391 C-7.44728912 73.67909872 -7.45258936 66.19193851 -7.46910226 58.70453924 C-7.48270217 52.28154936 -7.48464436 45.85863334 -7.47678626 39.43563372 C-7.47210235 35.59695547 -7.47150458 31.7583925 -7.48139572 27.9197216 C-7.49004171 24.31224876 -7.48408738 20.70509284 -7.46671295 17.09765434 C-7.46083372 15.13713902 -7.46978334 13.17659699 -7.47909546 11.21609497 C-7.47063599 10.05652786 -7.46217651 8.89696075 -7.45346069 7.70225525 C-7.45232962 6.69033584 -7.45119854 5.67841642 -7.45003319 4.63583279 C-7.32545046 3.84617154 -7.20086773 3.0565103 -7.07250977 2.24291992 C-4.01854052 0.20694043 -3.4299768 -0.00682969 0 0 Z " fill="#282828" transform="translate(1076.072509765625,922.757080078125)"/>
<path d="M0 0 C6.86440434 7.06053018 8.50785107 13.57460196 8.40234375 23.2109375 C7.97082166 29.31501361 5.90648694 34.26402676 1.78125 38.8671875 C-4.29885726 44.14257468 -11.09709553 46.63943738 -19.0546875 46.5234375 C-26.39137209 45.79600418 -32.43301644 42.69398048 -37.33984375 37.21875 C-42.00585812 30.98089525 -43.5608495 25.02468406 -43.25390625 17.2421875 C-42.09113962 9.36007036 -38.08189803 3.55355761 -31.9140625 -1.34375 C-21.24627698 -8.48204514 -10.50418348 -6.53593639 0 0 Z " fill="#282828" transform="translate(1109.8125,867.75)"/>
<path d="M0 0 C0.66 0.66 1.32 1.32 2 2 C1.875 4.5 1.875 4.5 1 7 C-1.57098399 9.09487584 -2.86548036 9.0131882 -6.1875 8.6875 C-9 8 -9 8 -10 7 C-10.25 4.5625 -10.25 4.5625 -10 2 C-6.32653229 -0.44897847 -4.33643601 -0.31537716 0 0 Z " fill="#3A3A3A" transform="translate(431,1130)"/>
<path d="M0 0 C3.5625 0.25 3.5625 0.25 6.5625 2.25 C6.1875 4.6875 6.1875 4.6875 5.5625 7.25 C2.30946956 8.87651522 -0.82975602 8.36453156 -4.4375 8.25 C-5.4375 7.25 -5.4375 7.25 -5.625 4.8125 C-5.32000889 0.64428819 -4.03881514 0.29373201 0 0 Z " fill="#373737" transform="translate(403.4375,1129.75)"/>
<path d="M0 0 C2.75 0.375 2.75 0.375 5.625 2.5625 C7.75 5.375 7.75 5.375 7.5625 8.1875 C7.294375 8.909375 7.02625 9.63125 6.75 10.375 C3.17236811 10.70023926 1.35457419 10.80456587 -1.625 8.6875 C-3.53250465 5.97297415 -3.68903308 4.6238448 -3.25 1.375 C-2.25 0.375 -2.25 0.375 0 0 Z " fill="#373737" transform="translate(359.25,1115.625)"/>
<path d="M0 0 C2.74086056 -0.22223194 4.43963721 -0.34781139 6.8125 1.125 C8.49106106 3.77535957 8.20450238 5.93246424 8 9 C6.35 9.33 4.7 9.66 3 10 C0.9375 7.8125 0.9375 7.8125 -1 5 C-0.75 2.1875 -0.75 2.1875 0 0 Z " fill="#373737" transform="translate(343,1098)"/>
<path d="M0 0 C2.80362763 -0.22732116 4.46186517 -0.34081872 6.875 1.1875 C8 3 8 3 7.6875 5.6875 C7.460625 6.450625 7.23375 7.21375 7 8 C2.25 7.25 2.25 7.25 0 5 C-0.125 2.375 -0.125 2.375 0 0 Z " fill="#323232" transform="translate(333,1084)"/>
<path d="M0 0 C2.875 -0.125 2.875 -0.125 6 0 C6.66 0.66 7.32 1.32 8 2 C7.625 4.125 7.625 4.125 7 6 C4.03 5.505 4.03 5.505 1 5 C0.67 3.35 0.34 1.7 0 0 Z " fill="#414141" transform="translate(319,1075)"/>
</svg>
