<?xml version="1.0" encoding="UTF-8"?>
<svg version="1.1" xmlns="http://www.w3.org/2000/svg" width="512" height="512">
<path d="M0 0 C2.33057906 -0.00407856 4.66115618 -0.00942754 6.99172974 -0.01593018 C13.24796027 -0.02945705 19.50404025 -0.02436638 25.76027298 -0.01479292 C31.6817694 -0.00790098 37.60324836 -0.0132 43.52474535 -0.0175745 C55.96675452 -0.02608043 68.40869682 -0.01637032 80.85069501 -0.0001734 C91.47113477 0.01322538 102.09147608 0.01089593 112.71191406 -0.00292969 C125.11666889 -0.01907111 137.52136547 -0.02525691 149.92612934 -0.0160929 C156.4663917 -0.01145103 163.00658664 -0.01069427 169.54684448 -0.02070236 C175.69982419 -0.02946265 181.85262068 -0.02318723 188.0055809 -0.00601959 C190.24384128 -0.0021026 192.48211748 -0.00310485 194.72037125 -0.00980759 C238.30293794 -0.12814042 281.43369535 9.36949836 313.41015625 40.63818359 C344.68422705 72.28978044 352.23885009 117.91891744 352.11083984 160.66552734 C352.1149184 162.9961064 352.12026739 165.32668352 352.12677002 167.65725708 C352.14029689 173.91348761 352.13520623 180.16956759 352.12563276 186.42580032 C352.11874083 192.34729675 352.12403985 198.2687757 352.12841435 204.19027269 C352.13692027 216.63228186 352.12721016 229.07422416 352.11101325 241.51622236 C352.09761446 252.13666212 352.09994392 262.75700342 352.11376953 273.37744141 C352.12991095 285.78219623 352.13609675 298.18689282 352.12693274 310.59165668 C352.12229087 317.13191905 352.12153412 323.67211398 352.13154221 330.21237183 C352.1403025 336.36535153 352.13402708 342.51814803 352.11685944 348.67110825 C352.11294244 350.90936862 352.11394469 353.14764482 352.12064743 355.38589859 C352.23898027 398.96846529 342.74134148 442.0992227 311.47265625 474.07568359 C279.82105941 505.3497544 234.19192241 512.90437744 191.4453125 512.77636719 C189.11473344 512.78044574 186.78415632 512.78579473 184.45358276 512.79229736 C178.19735223 512.80582424 171.94127225 512.80073357 165.68503952 512.79116011 C159.7635431 512.78426817 153.84206414 512.78956719 147.92056715 512.79394169 C135.47855798 512.80244762 123.03661568 512.7927375 110.59461749 512.77654059 C99.97417773 512.7631418 89.35383642 512.76547126 78.73339844 512.77929688 C66.32864361 512.7954383 53.92394703 512.80162409 41.51918316 512.79246008 C34.9789208 512.78781822 28.43872586 512.78706146 21.89846802 512.79706955 C15.74548831 512.80582984 9.59269182 512.79955442 3.4397316 512.78238678 C1.20147122 512.77846978 -1.03680498 512.77947203 -3.27505875 512.78617477 C-46.85762544 512.90450761 -89.98838285 503.40686882 -121.96484375 472.13818359 C-153.23891455 440.48658675 -160.79353759 394.85744975 -160.66552734 352.11083984 C-160.6696059 349.78026078 -160.67495489 347.44968366 -160.68145752 345.11911011 C-160.69498439 338.86287958 -160.68989373 332.60679959 -160.68032026 326.35056686 C-160.67342833 320.42907044 -160.67872735 314.50759148 -160.68310185 308.5860945 C-160.69160777 296.14408533 -160.68189766 283.70214302 -160.66570075 271.26014483 C-160.65230196 260.63970507 -160.65463142 250.01936377 -160.66845703 239.39892578 C-160.68459845 226.99417095 -160.69078425 214.58947437 -160.68162024 202.1847105 C-160.67697837 195.64444814 -160.67622162 189.10425321 -160.68622971 182.56399536 C-160.69499 176.41101565 -160.68871458 170.25821916 -160.67154694 164.10525894 C-160.66762994 161.86699856 -160.66863219 159.62872237 -160.67533493 157.3904686 C-160.79366777 113.8079019 -151.29602898 70.67714449 -120.02734375 38.70068359 C-88.37574691 7.42661279 -42.74660991 -0.12801025 0 0 Z " fill="#4D4D4D" transform="translate(160.27734375,-0.38818359375)"/>
<path d="M0 0 C0 21.78 0 43.56 0 66 C-25.74 66 -51.48 66 -78 66 C-78 47.52 -78 29.04 -78 10 C-66.75696146 7.75139229 -66.75696146 7.75139229 -61.48046875 7.0703125 C-59.72029419 6.83973145 -59.72029419 6.83973145 -57.92456055 6.60449219 C-56.69133057 6.44625977 -55.45810059 6.28802734 -54.1875 6.125 C-51.53113828 5.77947313 -48.87487155 5.4332978 -46.21875 5.0859375 C-45.54353806 4.9979187 -44.86832611 4.9098999 -44.1726532 4.81921387 C-39.41241797 4.19529148 -34.65850847 3.53339582 -29.90625 2.8515625 C-27.96262573 2.57481689 -27.96262573 2.57481689 -25.97973633 2.29248047 C-23.51273031 1.93957457 -21.04637603 1.58207178 -18.58081055 1.21923828 C-16.89145386 0.97923096 -16.89145386 0.97923096 -15.16796875 0.734375 C-13.70266724 0.52119629 -13.70266724 0.52119629 -12.20776367 0.30371094 C-8.15537289 -0.07996926 -4.07051367 0 0 0 Z " fill="#FDFDFD" transform="translate(241,179)"/>
<path d="M0 0 C25.41 0 50.82 0 77 0 C77 20.46 77 40.92 77 62 C63.49895474 62 63.49895474 62 58.31689453 61.46508789 C57.15594269 61.34819107 55.99499084 61.23129425 54.79885864 61.1108551 C53.58906342 60.98274948 52.37926819 60.85464386 51.1328125 60.72265625 C49.21527664 60.52644936 49.21527664 60.52644936 47.25900269 60.32627869 C44.57787065 60.05169124 41.89718487 59.77321153 39.21679688 59.49145508 C35.7947461 59.13178314 32.37201803 58.77914446 28.94897652 58.42903996 C25.65583132 58.09188397 22.3630705 57.75107436 19.0703125 57.41015625 C17.23740158 57.22103416 17.23740158 57.22103416 15.36746216 57.02809143 C14.22542328 56.90804245 13.0833844 56.78799347 11.90673828 56.66430664 C10.90812775 56.5599379 9.90951721 56.45556915 8.88064575 56.34803772 C5.90813721 55.9889012 2.95338696 55.49223116 0 55 C0 36.85 0 18.7 0 0 Z " fill="#FEFEFE" transform="translate(163,253)"/>
<path d="M0 0 C19.8 0 39.6 0 60 0 C60 18.48 60 36.96 60 56 C45.65979528 54.75302568 31.36349083 53.45782941 17.0625 51.875 C11.431875 51.25625 5.80125 50.6375 0 50 C0 33.5 0 17 0 0 Z " fill="#FBFBFB" transform="translate(96,252)"/>
<path d="M0 0 C0 18.48 0 36.96 0 56 C-19.8 56 -39.6 56 -60 56 C-60 40.16 -60 24.32 -60 8 C-38.1875 5.125 -38.1875 5.125 -31.37182617 4.23095703 C-29.55384573 3.99011989 -27.73589154 3.74908443 -25.91796875 3.5078125 C-25.00261353 3.38849365 -24.0872583 3.2691748 -23.14416504 3.14624023 C-17.52739391 2.39773424 -11.97373077 1.47642188 -6.41304016 0.38449097 C-4 0 -4 0 0 0 Z " fill="#FDFDFD" transform="translate(156,189)"/>
<path d="M0 0 C1.53346069 0.00193359 1.53346069 0.00193359 3.09790039 0.00390625 C10.4190527 0.09705809 16.94438344 0.80853531 23.875 3.3125 C23.875 6.2825 23.875 9.2525 23.875 12.3125 C20.12656816 11.83397679 16.58352039 11.23863245 12.9375 10.25 C3.70399114 8.15939422 -8.67037602 7.52940596 -17.125 12.3125 C-22.29521653 15.92982464 -25.73066239 19.38400538 -28.125 25.3125 C-28.97107309 31.78495911 -29.50252658 38.99311299 -26.125 44.8125 C-24.73719922 46.65382376 -24.73719922 46.65382376 -23.125 48.3125 C-22.60164063 48.87839844 -22.07828125 49.44429687 -21.5390625 50.02734375 C-15.85131421 55.50397474 -8.85506402 59.19347198 -2.08740234 63.15527344 C11.92789174 71.42007736 24.4947403 79.17172091 29.875 95.3125 C31.00291767 105.46375902 28.99676372 114.61773666 22.9609375 122.95703125 C15.51913912 131.11594839 5.47970555 135.0240623 -5.42578125 135.5859375 C-17.4442551 135.92385937 -28.23079191 134.75960404 -39.125 129.3125 C-39.125 126.0125 -39.125 122.7125 -39.125 119.3125 C-35.40589566 120.486954 -31.83630335 121.85303485 -28.25 123.375 C-23.87948925 125.12190548 -19.83034465 126.10827497 -15.125 126.3125 C-14.135 126.37566406 -13.145 126.43882812 -12.125 126.50390625 C-2.45755096 126.85731535 5.84484373 124.86060797 13.875 119.3125 C18.84077918 113.07155777 19.57829973 106.29903067 19.31640625 98.53515625 C18.7240907 94.21072857 17.41984875 91.81166703 14.875 88.3125 C14.875 87.6525 14.875 86.9925 14.875 86.3125 C14.05128906 85.94511719 14.05128906 85.94511719 13.2109375 85.5703125 C10.38125345 84.04663647 8.02676735 82.17430063 5.5 80.1875 C1.12185324 76.81272114 -3.34659114 73.91522696 -8.1875 71.25 C-14.55310194 67.73833584 -20.36016505 63.7351037 -26.125 59.3125 C-26.71925781 58.90773437 -27.31351562 58.50296875 -27.92578125 58.0859375 C-33.40246038 54.15178556 -37.11211855 47.24809359 -38.7734375 40.79296875 C-40.14965807 31.08296805 -39.14445555 23.03605652 -33.4296875 14.8984375 C-24.39835236 3.96576865 -13.85640697 -0.07155733 0 0 Z " fill="#F9F9F9" transform="translate(403.125,180.6875)"/>
<path d="M0 0 C2.97 0 5.94 0 9 0 C9 43.56 9 87.12 9 132 C6.03 132 3.06 132 0 132 C0 88.44 0 44.88 0 0 Z " fill="#F6F6F6" transform="translate(326,181)"/>
<path d="M0 0 C2.97 0 5.94 0 9 0 C9 43.23 9 86.46 9 131 C6.03 131 3.06 131 0 131 C0 87.77 0 44.54 0 0 Z " fill="#FBFBFB" transform="translate(286,182)"/>
</svg>
