<?xml version="1.0" encoding="UTF-8"?>
<svg version="1.1" xmlns="http://www.w3.org/2000/svg" width="3840" height="2160">
<path d="M0 0 C1.10221264 0.00040031 1.10221264 0.00040031 2.2266922 0.00080872 C26.36814743 0.01178423 50.41745081 0.37108848 74.5 2.1875 C75.78611176 2.28224609 75.78611176 2.28224609 77.09820557 2.37890625 C163.8849094 8.79837282 249.08923859 25.44685444 474.27490234 110.60644531 C477.16549873 112.02351588 480.06067491 113.43069431 482.95703125 114.8359375 C493.70735568 120.08943751 504.13529474 125.82513893 514.515625 131.7734375 C518.54910288 134.08453281 522.60031913 136.35823514 526.671875 138.6015625 C540.19603937 146.06061948 553.39075386 153.91217596 566.41162109 162.21826172 C569.66126286 164.29032579 572.91823292 166.35054809 576.17578125 168.41015625 C578.38844068 169.81444286 580.60069131 171.21937382 582.8125 172.625 C583.81990234 173.2629248 584.82730469 173.90084961 585.86523438 174.55810547 C591.68614568 178.27702103 597.31590029 182.17771712 602.87670898 186.2746582 C606.80705037 189.14057023 610.84111546 191.84543744 614.875 194.5625 C622.04491768 199.43337563 628.97616846 204.48315862 635.78662109 209.84814453 C638.42052742 211.90708014 641.08275395 213.92846601 643.74267578 215.95361328 C655.50936697 224.91409914 667.16053818 233.95331028 678.40625 243.5625 C681.2955132 246.02665964 684.23518458 248.42411 687.1875 250.8125 C691.63903808 254.43584495 695.92382455 258.20713872 700.16796875 262.0703125 C702.25823889 263.96801169 704.36986115 265.83483415 706.5 267.6875 C711.21544862 271.80057594 715.86770484 275.9810877 720.5 280.1875 C721.00192871 280.64286133 721.50385742 281.09822266 722.02099609 281.56738281 C729.05831842 287.96494856 735.90156687 294.49980164 742.55078125 301.30078125 C744.73348134 303.49221062 747.01758654 305.51633906 749.3671875 307.52734375 C753.64920645 311.23518634 757.47871465 315.27441505 761.3125 319.4375 C765.98396485 324.46132304 770.68118877 329.42936805 775.5625 334.25 C779.05842886 337.709621 782.3761823 341.23160227 785.56640625 344.97265625 C787.599044 347.3009504 789.69415403 349.55926733 791.80371094 351.81762695 C796.87652942 357.24907384 801.70870378 362.78651782 806.36328125 368.5859375 C808.45882494 371.13736729 810.63963155 373.57076773 812.875 376 C816.9369798 380.45758131 820.65488971 385.1191341 824.34765625 389.88085938 C827.28028518 393.65661913 830.28564952 397.34985981 833.375 401 C871.91456889 446.95570044 904.55875488 498.79446561 933.5 551.1875 C934.04978516 552.18265625 934.59957031 553.1778125 935.16601562 554.203125 C963.16810339 605.10426723 986.70774748 658.07238306 1005.7310791 712.96862793 C1006.24383279 714.44827928 1006.75774976 715.92752802 1007.27282715 717.40637207 C1015.3680261 740.64891156 1022.50000024 764.09509129 1028.87689209 787.86621094 C1029.47280079 790.08617369 1030.07332145 792.3048474 1030.67431641 794.5234375 C1047.57595194 857.23542744 1057.37856805 921.78693357 1062.1875 986.5 C1062.27904358 987.72526398 1062.27904358 987.72526398 1062.37243652 988.97528076 C1064.18084444 1013.53689537 1064.7076147 1038.06702294 1064.6875 1062.6875 C1064.68723312 1063.42230843 1064.68696625 1064.15711685 1064.68669128 1064.9141922 C1064.67571577 1089.05564743 1064.31641152 1113.10495081 1062.5 1137.1875 C1062.43683594 1138.04490784 1062.37367188 1138.90231567 1062.30859375 1139.78570557 C1055.88912718 1226.5724094 1039.24064556 1311.77673859 954.08105469 1536.96240234 C952.66398412 1539.85299873 951.25680569 1542.74817491 949.8515625 1545.64453125 C944.59806249 1556.39485568 938.86236107 1566.82279474 932.9140625 1577.203125 C930.60296719 1581.23660288 928.32926486 1585.28781913 926.0859375 1589.359375 C918.62688052 1602.88353937 910.77532404 1616.07825386 902.46923828 1629.09912109 C900.39717421 1632.34876286 898.33695191 1635.60573292 896.27734375 1638.86328125 C894.87305714 1641.07594068 893.46812618 1643.28819131 892.0625 1645.5 C891.4245752 1646.50740234 890.78665039 1647.51480469 890.12939453 1648.55273438 C886.40536864 1654.38164447 882.49803583 1660.01788515 878.39526367 1665.58618164 C876.14653652 1668.67264149 874.01130938 1671.82396251 871.88574219 1674.99584961 C865.34983258 1684.74795908 858.32162533 1694.0155502 851.04248047 1703.22021484 C848.92024021 1705.92692773 846.86392086 1708.67667513 844.8125 1711.4375 C837.23400551 1721.59352311 829.35600484 1731.46046946 821.125 1741.09375 C818.66084036 1743.9830132 816.26339 1746.92268458 813.875 1749.875 C810.25165505 1754.32653808 806.48036128 1758.61132455 802.6171875 1762.85546875 C800.71948831 1764.94573889 798.85266585 1767.05736115 797 1769.1875 C792.88692406 1773.90294862 788.7064123 1778.55520484 784.5 1783.1875 C784.04463867 1783.68942871 783.58927734 1784.19135742 783.12011719 1784.70849609 C776.72255144 1791.74581842 770.18769836 1798.58906687 763.38671875 1805.23828125 C761.19401581 1807.42224832 759.16859023 1809.70776904 757.15625 1812.05859375 C753.46848587 1816.31726908 749.45383963 1820.12553672 745.3125 1823.9375 C740.09432066 1828.78841745 734.93955342 1833.67616238 729.9375 1838.75 C726.30846192 1842.42232681 722.61313734 1845.94318193 718.6796875 1849.2890625 C716.36257189 1851.30719545 714.11833619 1853.39053785 711.87329102 1855.48803711 C706.54485344 1860.46458945 701.1226667 1865.21903529 695.43359375 1869.78515625 C691.95096441 1872.6371097 688.5722482 1875.59577123 685.1875 1878.5625 C678.72054758 1884.21105803 672.05861385 1889.54466557 665.27246094 1894.80175781 C662.82657075 1896.71399923 660.41235702 1898.66438856 657.99682617 1900.61474609 C638.86382465 1916.05191153 618.86090644 1930.41951037 598.5 1944.1875 C597.79407715 1944.66541992 597.0881543 1945.14333984 596.36083984 1945.63574219 C542.24413444 1982.19554717 484.59899931 2014.52524285 424.5 2040.1875 C423.85047363 2040.46489014 423.20094727 2040.74228027 422.53173828 2041.02807617 C343.5300426 2074.68543383 260.99039118 2099.37247361 83.5 2124.5 C81.94520935 2124.62223938 81.94520935 2124.62223938 80.35900879 2124.74694824 C54.23931753 2126.76706571 28.18744649 2127.39570997 2 2127.375 C0.86237654 2127.37459969 0.86237654 2127.37459969 -0.29822922 2127.37419128 C-24.74730769 2127.36341589 -49.11207918 2127.06248699 -73.5 2125.1875 C-74.3383136 2125.12433594 -75.1766272 2125.06117188 -76.04034424 2124.99609375 C-167.98073507 2118.02673924 -258.453145 2099.90871047 -517.90332031 1992.69091797 C-520.63571166 1991.10892606 -523.38808276 1989.56779781 -526.1484375 1988.03515625 C-539.21067186 1980.77541545 -551.93653193 1973.07653161 -564.54785156 1965.06054688 C-567.46055249 1963.21252822 -570.38147633 1961.37821285 -573.3046875 1959.546875 C-583.91844674 1952.87722083 -594.29370501 1945.9730698 -604.46435547 1938.64648438 C-607.21598508 1936.67434015 -609.98997992 1934.73484179 -612.76318359 1932.79321289 C-627.65933105 1922.34868869 -642.31796546 1911.58559568 -656.5 1900.1875 C-657.1403418 1899.6733252 -657.78068359 1899.15915039 -658.44042969 1898.62939453 C-666.01372483 1892.53671702 -673.52248253 1886.37534522 -680.91821289 1880.06811523 C-684.23698236 1877.24063305 -687.60184014 1874.48127712 -691 1871.75 C-696.38285937 1867.3729888 -701.44271342 1862.69195873 -706.51171875 1857.9609375 C-708.8035841 1855.82395686 -711.12758757 1853.73526652 -713.5 1851.6875 C-722.06729823 1844.25889331 -730.28039641 1836.47814184 -738.24609375 1828.41015625 C-740.2305692 1826.45319519 -742.25480374 1824.61923809 -744.375 1822.8125 C-752.01673178 1816.25580113 -759.07678269 1808.97952037 -765.59375 1801.3125 C-768.12251992 1798.49354337 -770.80665486 1795.84833073 -773.5 1793.1875 C-777.36198548 1789.36741565 -781.07978119 1785.50742796 -784.6015625 1781.3671875 C-786.61969545 1779.05007189 -788.70303785 1776.80583619 -790.80053711 1774.56079102 C-795.77708945 1769.23235344 -800.53153529 1763.8101667 -805.09765625 1758.12109375 C-807.9496097 1754.63846441 -810.90827123 1751.2597482 -813.875 1747.875 C-819.52355803 1741.40804758 -824.85716557 1734.74611385 -830.11425781 1727.95996094 C-832.02649923 1725.51407075 -833.97688856 1723.09985702 -835.92724609 1720.68432617 C-851.36441153 1701.55132465 -865.73201037 1681.54840644 -879.5 1661.1875 C-879.97791992 1660.48157715 -880.45583984 1659.7756543 -880.94824219 1659.04833984 C-917.50804717 1604.93163444 -949.83774285 1547.28649931 -975.5 1487.1875 C-975.77739014 1486.53797363 -976.05478027 1485.88844727 -976.34057617 1485.21923828 C-1009.99793383 1406.2175426 -1034.68497361 1323.67789118 -1059.8125 1146.1875 C-1059.93473938 1144.63270935 -1059.93473938 1144.63270935 -1060.05944824 1143.04650879 C-1062.07956571 1116.92681753 -1062.70820997 1090.87494649 -1062.6875 1064.6875 C-1062.68723312 1063.92908436 -1062.68696625 1063.17066872 -1062.68669128 1062.38927078 C-1062.67591589 1037.94019231 -1062.37498699 1013.57542082 -1060.5 989.1875 C-1060.40525391 987.9300296 -1060.40525391 987.9300296 -1060.30859375 986.64715576 C-1053.33923924 894.70676493 -1035.22121047 804.234355 -927.85693359 544.53857422 C-926.1419342 541.56710172 -924.50386256 538.55732398 -922.8671875 535.54223633 C-908.33268468 508.84050174 -891.71919753 482.82080926 -873.92675781 458.17480469 C-871.96521622 455.44260952 -870.03898155 452.68621476 -868.11010742 449.9309082 C-857.66517621 435.0318998 -846.89969609 420.37152585 -835.5 406.1875 C-834.9858252 405.5471582 -834.47165039 404.90681641 -833.94189453 404.24707031 C-827.84921702 396.67377517 -821.68784522 389.16501747 -815.38061523 381.76928711 C-812.55313305 378.45051764 -809.79377712 375.08565986 -807.0625 371.6875 C-802.6854888 366.30464063 -798.00445873 361.24478658 -793.2734375 356.17578125 C-791.13645686 353.8839159 -789.04776652 351.55991243 -787 349.1875 C-779.3853352 340.41408186 -771.43993148 331.96776704 -763.12841797 323.8527832 C-760.32626149 321.09779352 -757.68478718 318.27528144 -755.12890625 315.2890625 C-751.4329597 311.0163713 -747.40215943 307.19872404 -743.25 303.375 C-738.22617696 298.70353515 -733.25813195 294.00631123 -728.4375 289.125 C-724.977879 285.62907114 -721.45589773 282.3113177 -717.71484375 279.12109375 C-715.3865496 277.088456 -713.12823267 274.99334597 -710.86987305 272.88378906 C-705.43842616 267.81097058 -699.90098218 262.97879622 -694.1015625 258.32421875 C-691.55013271 256.22867506 -689.11673227 254.04786845 -686.6875 251.8125 C-682.22991869 247.7505202 -677.5683659 244.03261029 -672.80664062 240.33984375 C-669.03088087 237.40721482 -665.33764019 234.40185048 -661.6875 231.3125 C-615.73179956 192.77293111 -563.89303439 160.12874512 -511.5 131.1875 C-510.50484375 130.63771484 -509.5096875 130.08792969 -508.484375 129.52148438 C-457.58323277 101.51939661 -404.61511694 77.97975252 -349.71887207 58.9564209 C-348.23922072 58.44366721 -346.75997198 57.92975024 -345.28112793 57.41467285 C-322.03858844 49.3194739 -298.59240871 42.18749976 -274.82128906 35.81060791 C-272.60132631 35.21469921 -270.3826526 34.61417855 -268.1640625 34.01318359 C-205.45207256 17.11154806 -140.90056643 7.30893195 -76.1875 2.5 C-74.96223602 2.40845642 -74.96223602 2.40845642 -73.71221924 2.31506348 C-49.15060463 0.50665556 -24.62047706 -0.0201147 0 0 Z " fill="#6F449D" transform="translate(1918.5,15.8125)"/>
<path d="M0 0 C1.10221264 0.00040031 1.10221264 0.00040031 2.2266922 0.00080872 C26.36814743 0.01178423 50.41745081 0.37108848 74.5 2.1875 C75.78611176 2.28224609 75.78611176 2.28224609 77.09820557 2.37890625 C163.8849094 8.79837282 249.08923859 25.44685444 474.27490234 110.60644531 C477.16549873 112.02351588 480.06067491 113.43069431 482.95703125 114.8359375 C493.70735568 120.08943751 504.13529474 125.82513893 514.515625 131.7734375 C518.54910288 134.08453281 522.60031913 136.35823514 526.671875 138.6015625 C540.19603937 146.06061948 553.39075386 153.91217596 566.41162109 162.21826172 C569.66126286 164.29032579 572.91823292 166.35054809 576.17578125 168.41015625 C578.38844068 169.81444286 580.60069131 171.21937382 582.8125 172.625 C583.81990234 173.2629248 584.82730469 173.90084961 585.86523438 174.55810547 C591.68614568 178.27702103 597.31590029 182.17771712 602.87670898 186.2746582 C606.80705037 189.14057023 610.84111546 191.84543744 614.875 194.5625 C622.04491768 199.43337563 628.97616846 204.48315862 635.78662109 209.84814453 C638.42052742 211.90708014 641.08275395 213.92846601 643.74267578 215.95361328 C655.50936697 224.91409914 667.16053818 233.95331028 678.40625 243.5625 C681.2955132 246.02665964 684.23518458 248.42411 687.1875 250.8125 C691.63903808 254.43584495 695.92382455 258.20713872 700.16796875 262.0703125 C702.25823889 263.96801169 704.36986115 265.83483415 706.5 267.6875 C711.21544862 271.80057594 715.86770484 275.9810877 720.5 280.1875 C721.00192871 280.64286133 721.50385742 281.09822266 722.02099609 281.56738281 C729.05831842 287.96494856 735.90156687 294.49980164 742.55078125 301.30078125 C744.73348134 303.49221062 747.01758654 305.51633906 749.3671875 307.52734375 C753.64920645 311.23518634 757.47871465 315.27441505 761.3125 319.4375 C765.98396485 324.46132304 770.68118877 329.42936805 775.5625 334.25 C779.05842886 337.709621 782.3761823 341.23160227 785.56640625 344.97265625 C787.599044 347.3009504 789.69415403 349.55926733 791.80371094 351.81762695 C796.87652942 357.24907384 801.70870378 362.78651782 806.36328125 368.5859375 C808.45882494 371.13736729 810.63963155 373.57076773 812.875 376 C816.9369798 380.45758131 820.65488971 385.1191341 824.34765625 389.88085938 C827.28028518 393.65661913 830.28564952 397.34985981 833.375 401 C871.91456889 446.95570044 904.55875488 498.79446561 933.5 551.1875 C934.04978516 552.18265625 934.59957031 553.1778125 935.16601562 554.203125 C963.16810339 605.10426723 986.70774748 658.07238306 1005.7310791 712.96862793 C1006.24383279 714.44827928 1006.75774976 715.92752802 1007.27282715 717.40637207 C1015.3680261 740.64891156 1022.50000024 764.09509129 1028.87689209 787.86621094 C1029.47280079 790.08617369 1030.07332145 792.3048474 1030.67431641 794.5234375 C1047.57595194 857.23542744 1057.37856805 921.78693357 1062.1875 986.5 C1062.24852905 987.31684265 1062.30955811 988.1336853 1062.37243652 988.97528076 C1064.18084444 1013.53689537 1064.7076147 1038.06702294 1064.6875 1062.6875 C1064.68723312 1063.42230843 1064.68696625 1064.15711685 1064.68669128 1064.9141922 C1064.67571577 1089.05564743 1064.31641152 1113.10495081 1062.5 1137.1875 C1062.43683594 1138.04490784 1062.37367187 1138.90231567 1062.30859375 1139.78570557 C1055.88912718 1226.5724094 1039.24064556 1311.77673859 954.08105469 1536.96240234 C952.66398412 1539.85299873 951.25680569 1542.74817491 949.8515625 1545.64453125 C944.59806249 1556.39485568 938.86236107 1566.82279474 932.9140625 1577.203125 C930.60296719 1581.23660288 928.32926486 1585.28781913 926.0859375 1589.359375 C918.62688052 1602.88353937 910.77532404 1616.07825386 902.46923828 1629.09912109 C900.39717421 1632.34876286 898.33695191 1635.60573292 896.27734375 1638.86328125 C894.87305714 1641.07594068 893.46812618 1643.28819131 892.0625 1645.5 C891.4245752 1646.50740234 890.78665039 1647.51480469 890.12939453 1648.55273438 C886.40536864 1654.38164447 882.49803583 1660.01788515 878.39526367 1665.58618164 C876.14653652 1668.67264149 874.01130938 1671.82396251 871.88574219 1674.99584961 C865.34983258 1684.74795908 858.32162533 1694.0155502 851.04248047 1703.22021484 C848.92024021 1705.92692773 846.86392086 1708.67667513 844.8125 1711.4375 C837.23400551 1721.59352311 829.35600484 1731.46046946 821.125 1741.09375 C818.66084036 1743.9830132 816.26339 1746.92268458 813.875 1749.875 C810.25165505 1754.32653808 806.48036128 1758.61132455 802.6171875 1762.85546875 C800.71948831 1764.94573889 798.85266585 1767.05736115 797 1769.1875 C785.91142074 1781.90003595 774.54939366 1794.37802789 762.5 1806.1875 C762.5 1803.1875 762.5 1803.1875 764.5 1800.1875 C763.94236082 1799.63745523 763.38472164 1799.08741045 762.8101843 1798.52069765 C729.76051756 1765.91860186 696.76314417 1733.26437873 663.83286693 1700.54167351 C659.87878479 1696.61260549 655.92426803 1692.68397517 651.96948242 1688.75561523 C651.18216381 1687.97354283 650.39484519 1687.19147042 649.58366843 1686.38569885 C636.83468694 1673.72374213 624.05082579 1661.09757008 611.25371931 1648.48427523 C598.12324163 1635.54083565 585.03097864 1622.55965529 571.97340173 1609.54267162 C563.9147989 1601.51151111 555.82786586 1593.51123867 547.70214965 1585.54797899 C542.13265544 1580.08421598 536.60071753 1574.58421862 531.09684078 1569.05436832 C527.91980849 1565.86452445 524.72880092 1562.6931235 521.49211693 1559.56372643 C518.52611361 1556.69533017 515.61038669 1553.78410919 512.72713473 1550.83261263 C511.67866551 1549.77571619 510.61315324 1548.73539118 509.52946941 1547.71463306 C501.66064561 1540.27673359 501.66064561 1540.27673359 501.39394222 1535.14799671 C501.74850357 1530.71168538 502.84483692 1526.54698438 504.0280365 1522.27235316 C505.42903953 1516.08355766 504.9938777 1509.50376774 504.9375 1503.1875 C504.93412628 1502.4470343 504.93075256 1501.7065686 504.92727661 1500.94366455 C504.79270797 1480.51509951 500.48556982 1461.47648065 487.78515625 1445.0078125 C486.5 1443.1875 486.5 1443.1875 486.5 1441.1875 C485.51 1440.8575 484.52 1440.5275 483.5 1440.1875 C481.91250218 1438.49840232 480.52608082 1436.70348057 479.09765625 1434.87890625 C477.36878861 1433.04858917 475.79802028 1432.17520202 473.5 1431.1875 C473.5 1430.5275 473.5 1429.8675 473.5 1429.1875 C472.51 1429.1875 471.52 1429.1875 470.5 1429.1875 C470.5 1428.5275 470.5 1427.8675 470.5 1427.1875 C468.85 1426.8575 467.2 1426.5275 465.5 1426.1875 C465.5 1425.5275 465.5 1424.8675 465.5 1424.1875 C464.736875 1424.105 463.97375 1424.0225 463.1875 1423.9375 C458.97965449 1423.08166701 455.18229094 1421.66775977 451.18359375 1420.125 C443.99318612 1417.6130672 436.65686609 1417.90362451 429.125 1417.875 C428.44837311 1417.87204926 427.77174622 1417.86909851 427.07461548 1417.86605835 C416.92979728 1417.8559589 408.0735813 1418.58687005 398.5 1422.1875 C396.93716773 1422.71736562 395.37234108 1423.24137347 393.8059082 1423.76049805 C392.99861771 1424.02839645 392.19132721 1424.29629486 391.35957336 1424.5723114 C390.74591415 1424.77532364 390.13225494 1424.97833588 389.5 1425.1875 C364.91001991 1400.62038407 340.32265604 1376.05065314 315.73882183 1351.47738716 C312.83973485 1348.57955096 309.9406261 1345.68173653 307.04150391 1342.78393555 C306.46431526 1342.20700921 305.8871266 1341.63008287 305.29244739 1341.03567391 C295.93354199 1331.68112569 286.5728728 1322.32834431 277.21155626 1312.97620905 C267.61364606 1303.38763406 258.01762061 1293.79717594 248.42336035 1284.20494884 C242.49804856 1278.28101256 236.57125281 1272.35856889 230.64257991 1266.43799638 C226.58309413 1262.38377641 222.52543231 1258.32773699 218.46923029 1254.27023167 C216.1252408 1251.92559854 213.78015936 1249.58207581 211.43345451 1247.24015999 C208.89568313 1244.70731658 206.36096059 1242.1714622 203.82702637 1239.63478088 C203.07607335 1238.8867407 202.32512033 1238.13870052 201.55141115 1237.36799246 C200.87911581 1236.69370607 200.20682046 1236.01941967 199.51415253 1235.32470036 C198.63472024 1234.44583765 198.63472024 1234.44583765 197.73752165 1233.54922014 C196.5 1232.1875 196.5 1232.1875 196.5 1231.1875 C238.41 1230.8575 280.32 1230.5275 323.5 1230.1875 C323.5 1208.0775 323.5 1185.9675 323.5 1163.1875 C241 1163.1875 158.5 1163.1875 73.5 1163.1875 C73.5 1093.8875 73.5 1024.5875 73.5 953.1875 C145.44 953.1875 217.38 953.1875 291.5 953.1875 C291.83 932.0675 292.16 910.9475 292.5 889.1875 C220.23 889.1875 147.96 889.1875 73.5 889.1875 C73.5 822.8575 73.5 756.5275 73.5 688.1875 C150.72 688.1875 227.94 688.1875 307.5 688.1875 C307.5 667.0675 307.5 645.9475 307.5 624.1875 C206.19 624.1875 104.88 624.1875 0.5 624.1875 C0.5 760.1475 0.5 896.1075 0.5 1036.1875 C-1.15 1034.5375 -2.8 1032.8875 -4.5 1031.1875 C-5.49011613 1030.19810128 -6.48032318 1029.20879353 -7.47066879 1028.21962452 C-8.27366571 1027.41755265 -8.27366571 1027.41755265 -9.09288478 1026.59927732 C-9.95131508 1025.7418702 -9.95131508 1025.7418702 -10.8270874 1024.86714172 C-12.11594463 1023.57975079 -13.40479842 1022.29235641 -14.69364929 1021.00495911 C-15.37760962 1020.32177423 -16.06156994 1019.63858936 -16.76625633 1018.93470192 C-32.4875089 1003.23110431 -48.20593052 987.52467573 -63.92271042 971.81660175 C-73.00880715 962.73567311 -82.09584738 953.65569227 -91.18505859 944.57788086 C-99.12033358 936.65255326 -107.05386647 928.72548668 -114.98528695 920.79630154 C-119.18307669 916.5998179 -123.38174894 912.40422571 -127.5825119 908.21071815 C-131.52774073 904.27224994 -135.47064602 900.33147086 -139.41174126 896.38886642 C-140.86174919 894.93913471 -142.31262107 893.49026654 -143.76439857 892.0423069 C-145.73885139 890.07279451 -147.71023531 888.10026171 -149.68084717 886.12690735 C-150.26205692 885.54861044 -150.84326667 884.97031353 -151.44208884 884.37449247 C-155.03954092 880.76339455 -156.6255474 879.04872277 -156.62304783 873.97459221 C-156.62503888 873.08582764 -156.62702993 872.19706306 -156.62908131 871.28136623 C-156.62616847 870.29889104 -156.62325563 869.31641586 -156.62025452 868.3041687 C-156.62110894 867.26523755 -156.62196337 866.2263064 -156.62284368 865.15589249 C-156.62449934 861.65192547 -156.61897569 858.14800563 -156.61352539 854.64404297 C-156.61324351 852.14131674 -156.61340127 849.63859043 -156.6139679 847.13586426 C-156.61419609 841.73599516 -156.61134774 836.33614143 -156.60573006 830.93627548 C-156.59761304 823.12891796 -156.59499963 815.32156628 -156.59374207 807.51420499 C-156.59155187 794.84817112 -156.58489264 782.18214367 -156.57543945 769.51611328 C-156.56626451 757.21012403 -156.55918408 744.90413652 -156.55493164 732.59814453 C-156.55466892 731.8399731 -156.55440619 731.08180167 -156.55413551 730.30065535 C-156.5528305 726.49724253 -156.55156678 722.6938297 -156.55032361 718.89041686 C-156.53995199 687.32277221 -156.52151421 655.75513951 -156.5 624.1875 C-179.93 624.1875 -203.36 624.1875 -227.5 624.1875 C-227.5 684.5775 -227.5 744.9675 -227.5 807.1875 C-235.375 800.4375 -235.375 800.4375 -238.58181614 797.22988236 C-239.31568921 796.49825658 -240.04956228 795.7666308 -240.80567393 795.01283455 C-241.98375588 793.83081207 -241.98375588 793.83081207 -243.18563747 792.62491035 C-244.46656566 791.34571293 -244.46656566 791.34571293 -245.77337119 790.04067314 C-248.13752998 787.678701 -250.49943445 785.31451539 -252.86040613 782.94936007 C-255.43157818 780.37474269 -258.00566386 777.80304104 -260.57937819 775.2309655 C-265.0877351 770.72467952 -269.59423515 766.21654328 -274.09951973 761.70718575 C-280.79870357 755.00196243 -287.50075711 748.29961298 -294.20339993 741.59784753 C-305.47868279 730.32387812 -316.75163785 719.04758383 -328.02326775 707.76996231 C-339.18347082 696.60384205 -350.34470748 685.43875659 -361.50732613 674.27505112 C-362.20140469 673.58090382 -362.89548324 672.88675652 -363.61059449 672.17157445 C-367.13547959 668.64635102 -370.66038317 665.12114605 -374.18529386 661.5959482 C-399.15165296 636.62748874 -424.11569282 611.65671165 -449.07836914 586.68457031 C-473.32914795 562.42460703 -497.58097699 538.1656944 -521.83422852 513.90820312 C-522.58182984 513.16047027 -523.32943117 512.41273742 -524.09968709 511.64234599 C-531.60741366 504.1333009 -539.11516158 496.62427716 -546.62292516 489.11526906 C-561.91708057 473.81857744 -577.21109345 458.52174331 -592.50502014 443.224823 C-593.20820906 442.52149679 -593.91139798 441.81817058 -594.63589566 441.09353145 C-641.59298502 394.12724155 -688.54675162 347.15762977 -735.5 300.1875 C-736.82 301.1775 -738.14 302.1675 -739.5 303.1875 C-740.16 302.8575 -740.82 302.5275 -741.5 302.1875 C-738.67097124 299.32903993 -735.83599221 296.47655016 -733 293.625 C-731.81277344 292.42520508 -731.81277344 292.42520508 -730.6015625 291.20117188 C-726.31042001 286.89244273 -721.95279664 282.74333119 -717.34033203 278.78051758 C-714.55171454 276.36665062 -711.87697598 273.83550281 -709.1875 271.3125 C-704.31414451 266.77401476 -699.29696023 262.49401203 -694.1015625 258.32421875 C-691.55013271 256.22867506 -689.11673227 254.04786845 -686.6875 251.8125 C-682.22991869 247.7505202 -677.5683659 244.03261029 -672.80664062 240.33984375 C-669.03088087 237.40721482 -665.33764019 234.40185048 -661.6875 231.3125 C-615.73179956 192.77293111 -563.89303439 160.12874512 -511.5 131.1875 C-510.50484375 130.63771484 -509.5096875 130.08792969 -508.484375 129.52148438 C-457.58323277 101.51939661 -404.61511694 77.97975252 -349.71887207 58.9564209 C-348.23922072 58.44366721 -346.75997198 57.92975024 -345.28112793 57.41467285 C-322.03858844 49.3194739 -298.59240871 42.18749976 -274.82128906 35.81060791 C-272.60132631 35.21469921 -270.3826526 34.61417855 -268.1640625 34.01318359 C-205.45207256 17.11154806 -140.90056643 7.30893195 -76.1875 2.5 C-74.96223602 2.40845642 -74.96223602 2.40845642 -73.71221924 2.31506348 C-49.15060463 0.50665556 -24.62047706 -0.0201147 0 0 Z " fill="#5C2D90" transform="translate(1918.5,15.8125)"/>
<path d="M0 0 C11.75144374 -0.51190501 23.50020259 -0.90165456 35.26056099 -1.13986778 C40.72347234 -1.25427309 46.17871367 -1.40904486 51.63720703 -1.65966797 C86.83304288 -3.23396815 86.83304288 -3.23396815 95.28509521 2.05612183 C100.17380767 7.0066502 102.70131187 12.5512721 104.88310051 19.07938099 C106.80310545 24.10006815 109.86452694 28.3889912 112.875 32.8125 C113.51808105 33.82352783 114.16116211 34.83455566 114.82373047 35.8762207 C119.88120789 43.82082814 124.9591528 51.75227246 130.03857422 59.68286133 C134.37036379 66.44808202 138.69030584 73.22068509 143 80 C150.64015259 92.01698353 158.31946045 104.00880356 166 116 C174.25409264 128.88665276 182.50135689 141.77738408 190.71142578 154.69213867 C195.1278038 161.63653392 199.56130415 168.56985227 204 175.5 C209.01222668 183.32560296 214.014376 191.15742141 219 199 C226.64015259 211.01698353 234.31946045 223.00880356 242 235 C250.25409264 247.88665276 258.50135689 260.77738408 266.71142578 273.69213867 C271.1278038 280.63653392 275.56130415 287.56985227 280 294.5 C285.01222668 302.32560296 290.014376 310.15742141 295 318 C302.64015259 330.01698353 310.31946045 342.00880356 318 354 C326.25409264 366.88665276 334.50135689 379.77738408 342.71142578 392.69213867 C347.1278038 399.63653392 351.56130415 406.56985227 356 413.5 C361.58417377 422.21858549 367.15253539 430.94698594 372.70654297 439.68481445 C377.1645558 446.69522596 381.64301528 453.69239673 386.125 460.6875 C410.27134826 498.40008941 410.27134826 498.40008941 416.06640625 508.93945312 C417.88384719 512.58683699 417.88384719 512.58683699 421 515 C420.91435791 514.33170166 420.82871582 513.66340332 420.74047852 512.97485352 C420.34196191 509.83811612 419.95223747 506.70033985 419.5625 503.5625 C419.42779297 502.51255859 419.29308594 501.46261719 419.15429688 500.38085938 C417.21046117 484.59312057 416.85314557 468.88049815 416.87974548 452.99876404 C416.87930842 451.03306138 416.87843104 449.06735879 416.87715632 447.1016565 C416.87493787 441.74711347 416.87889601 436.39259074 416.88393438 431.03805029 C416.88827707 425.24620228 416.88678976 419.45435529 416.8860321 413.6625061 C416.88550928 403.64330718 416.8886308 393.6241148 416.89426994 383.60491753 C416.90241773 369.11906965 416.90500686 354.63322478 416.90625793 340.14737488 C416.90835442 316.6416238 416.91508079 293.13587612 416.92456055 269.63012695 C416.9337553 246.8046063 416.94083385 223.97908659 416.94506836 201.15356445 C416.94519989 200.44911195 416.94533141 199.74465945 416.94546692 199.0188599 C416.94678552 191.94400528 416.94806133 184.86915065 416.94930578 177.79429602 C416.95184152 163.38394652 416.95466277 148.97359709 416.95765686 134.56324768 C416.95779415 133.90078535 416.95793144 133.23832302 416.95807289 132.55578607 C416.96726264 88.37052256 416.98333597 44.18526123 417 0 C440.1 0 463.2 0 487 0 C487 199.65 487 399.3 487 605 C482.5880071 605.88239858 478.55183689 606.18565971 474.09204102 606.24047852 C473.31090942 606.25347488 472.52977783 606.26647125 471.72497559 606.27986145 C463.59905363 606.40608201 455.47213938 606.46320369 447.34545898 606.51489258 C443.49136443 606.54169446 439.6384971 606.59051574 435.78491211 606.65844727 C431.12354833 606.74039075 426.46335826 606.78307208 421.8013134 606.79795647 C420.02819962 606.8101977 418.2551243 606.83621611 416.48242378 606.87640572 C402.62701788 607.17494842 402.62701788 607.17494842 398.63323975 604.29084778 C397.06906064 602.24115578 396.03445999 600.35242467 395 598 C394.20992343 596.77990381 393.40267097 595.5705585 392.5703125 594.37890625 C391.75209097 593.10877364 390.93714316 591.83652779 390.125 590.5625 C389.66722168 589.85005127 389.20944336 589.13760254 388.73779297 588.40356445 C387.15500089 585.93795152 385.57720709 583.46918906 384 581 C382.72925874 579.01296195 381.45842063 577.02598583 380.1875 575.0390625 C378.1397267 571.83758258 376.09209316 568.63601497 374.04541016 565.43383789 C369.37571968 558.13283139 364.66762081 550.85810507 359.93408203 543.59838867 C354.89081226 535.85386496 349.91654299 528.06574567 344.94140625 520.27734375 C340.82194117 513.8332669 336.67736329 507.40667936 332.5 501 C326.93015504 492.45771908 321.43111625 483.87129204 315.94140625 475.27734375 C311.82194117 468.8332669 307.67736329 462.40667936 303.5 456 C297.93015504 447.45771908 292.43111625 438.87129204 286.94140625 430.27734375 C282.82194117 423.8332669 278.67736329 417.40667936 274.5 411 C268.93015504 402.45771908 263.43111625 393.87129204 257.94140625 385.27734375 C253.82194103 378.83326667 249.67734331 372.40669256 245.5 366 C239.8880464 357.39260696 234.34492841 348.74219273 228.81176758 340.08398438 C223.24035122 331.36807652 217.63090294 322.67755418 212 314 C205.67383539 304.25100649 199.38322603 294.48027967 193.125 284.6875 C187.76468372 276.30017419 182.37070683 267.93641146 176.93408203 259.59838867 C171.89081226 251.85386496 166.91654299 244.06574567 161.94140625 236.27734375 C157.82194117 229.8332669 153.67736329 223.40667936 149.5 217 C143.93015504 208.45771908 138.43111625 199.87129204 132.94140625 191.27734375 C128.82194103 184.83326667 124.67734331 178.40669256 120.5 172 C114.88971359 163.39516402 109.34534424 154.74912546 103.81835938 146.09057617 C100.3638477 140.68138386 96.88998617 135.28666161 93.37475586 129.91674805 C85.52365673 117.89958885 78.65327963 105.66551023 72.6640625 92.6171875 C72.11492187 91.42351562 71.56578125 90.22984375 71 89 C70.63648438 88.19820312 70.27296875 87.39640625 69.8984375 86.5703125 C69.08462077 84.81137103 69.08462077 84.81137103 67 84 C67.13364306 85.25326934 67.13364306 85.25326934 67.26998597 86.53185725 C69.97818826 112.80436611 70.42196625 138.87087049 70.34819686 165.26625538 C70.33501893 171.20432741 70.33964101 177.14239228 70.34190369 183.08047485 C70.34346294 193.32417433 70.33419663 203.56781569 70.31719017 213.81150055 C70.29940218 224.53301767 70.28786954 235.25450508 70.28463173 245.97603607 C70.28442551 246.64732598 70.28421929 247.31861589 70.28400682 248.01024791 C70.28299156 251.42058721 70.28208751 254.83092653 70.2812262 258.24126586 C70.27495608 282.28000023 70.2548319 306.31870445 70.22631836 330.35742188 C70.19868232 353.68359214 70.17747226 377.0097541 70.16479492 400.3359375 C70.16440034 401.05731373 70.16400576 401.77868996 70.16359923 402.52192608 C70.15964304 409.76751207 70.15581569 417.01309812 70.15208265 424.25868423 C70.14447782 439.0135007 70.13601407 453.76831663 70.12702942 468.52313232 C70.12641161 469.54032009 70.12641161 469.54032009 70.12578133 470.57805711 C70.09826614 515.71871741 70.05067793 560.8593604 70 606 C61.02079223 606.02312566 52.04159463 606.04091623 43.06236362 606.05181217 C38.89337172 606.05704051 34.72440013 606.06413726 30.55541992 606.07543945 C26.53542314 606.08627008 22.51544595 606.09227721 18.49543571 606.09487724 C16.95837025 606.09673118 15.42130591 606.10035119 13.88424873 606.10573006 C11.73864513 606.11294284 9.59312345 606.11399084 7.44750977 606.11352539 C6.22395279 606.115746 5.00039581 606.11796661 3.73976135 606.12025452 C1 606 1 606 0 605 C-0.09673236 603.66837473 -0.12447441 602.33165784 -0.1241985 600.9965238 C-0.12756944 599.69232675 -0.12756944 599.69232675 -0.13100848 598.36178228 C-0.12838146 597.3937803 -0.12575445 596.42577833 -0.12304783 595.42844296 C-0.12420167 594.40582303 -0.12535552 593.38320311 -0.12654433 592.3295947 C-0.1292194 588.85691594 -0.12468155 585.38428231 -0.12025452 581.91160583 C-0.12069004 579.41523845 -0.12156459 576.91887111 -0.12284368 574.42250401 C-0.12462138 568.97122084 -0.12326385 563.51995198 -0.11920547 558.06867027 C-0.11318745 549.96272863 -0.11286808 541.8567939 -0.11374746 533.75085044 C-0.11506354 520.11747708 -0.11171171 506.48410856 -0.10573006 492.85073662 C-0.09981976 479.34549371 -0.09596547 465.84025281 -0.09487724 452.33500862 C-0.0948085 451.49633756 -0.09473976 450.6576665 -0.09466894 449.79358116 C-0.09433062 445.53466295 -0.09402923 441.27574473 -0.09374207 437.01682652 C-0.09163979 406.82477425 -0.08489725 376.63272461 -0.07543945 346.44067383 C-0.06626001 317.10343439 -0.05917396 287.76619567 -0.05493164 258.42895508 C-0.05480011 257.52518278 -0.05466859 256.62141048 -0.05453308 255.69025114 C-0.05321459 246.61447381 -0.05193877 237.53869647 -0.05069422 228.46291914 C-0.04815778 209.97333135 -0.04533652 191.4837436 -0.04234314 172.99415588 C-0.04220585 172.14397238 -0.04206856 171.29378887 -0.04192711 170.41784222 C-0.03272127 113.61189371 -0.01685473 56.80594669 0 0 Z " fill="#FFFFFF" transform="translate(1275,640)"/>
<path d="M0 0 C100.98 0 201.96 0 306 0 C306 21.12 306 42.24 306 64 C228.78 64 151.56 64 72 64 C72 130.33 72 196.66 72 265 C144.27 265 216.54 265 291 265 C291 324 291 324 290 329 C218.06 329 146.12 329 72 329 C72 398.3 72 467.6 72 539 C154.5 539 237 539 322 539 C322 561.11 322 583.22 322 606 C281.12351841 606.02202561 240.24704239 606.04049738 199.37055657 606.05106533 C194.55001622 606.05231611 189.72947588 606.05361042 184.90893555 606.05493164 C183.94921052 606.05519395 182.98948548 606.05545626 182.00067788 606.05572652 C166.43965557 606.06008357 150.87863695 606.06797131 135.31761683 606.0771528 C119.36296715 606.08648836 103.4083194 606.0920554 87.4536671 606.09408849 C77.60053352 606.09546393 67.74741033 606.09981559 57.89427995 606.10791647 C51.14718493 606.11318273 44.40009532 606.11480457 37.6529984 606.11350138 C33.75422937 606.11285781 29.85547855 606.11387762 25.95671272 606.11920547 C21.74001499 606.12492606 17.52335657 606.12300128 13.30665588 606.12025452 C12.06057432 606.12316736 10.81449276 606.1260802 9.53065115 606.12908131 C8.41049012 606.12709026 7.2903291 606.12509921 6.13622379 606.12304783 C5.16148171 606.12342755 4.18673962 606.12380727 3.18245989 606.1241985 C1 606 1 606 0 605 C-0.09673236 603.66837473 -0.12447441 602.33165784 -0.1241985 600.9965238 C-0.12756944 599.69232675 -0.12756944 599.69232675 -0.13100848 598.36178228 C-0.12838146 597.3937803 -0.12575445 596.42577833 -0.12304783 595.42844296 C-0.12420167 594.40582303 -0.12535552 593.38320311 -0.12654433 592.3295947 C-0.1292194 588.85691594 -0.12468155 585.38428231 -0.12025452 581.91160583 C-0.12069004 579.41523845 -0.12156459 576.91887111 -0.12284368 574.42250401 C-0.12462138 568.97122084 -0.12326385 563.51995198 -0.11920547 558.06867027 C-0.11318745 549.96272863 -0.11286808 541.8567939 -0.11374746 533.75085044 C-0.11506354 520.11747708 -0.11171171 506.48410856 -0.10573006 492.85073662 C-0.09981976 479.34549371 -0.09596547 465.84025281 -0.09487724 452.33500862 C-0.0948085 451.49633756 -0.09473976 450.6576665 -0.09466894 449.79358116 C-0.09433062 445.53466295 -0.09402923 441.27574473 -0.09374207 437.01682652 C-0.09163979 406.82477425 -0.08489725 376.63272461 -0.07543945 346.44067383 C-0.06626001 317.10343438 -0.05919086 287.76619567 -0.05493164 258.42895508 C-0.054661 256.58519616 -0.05439029 254.74143724 -0.05411953 252.89767832 C-0.05193086 237.91716737 -0.04988824 222.93665641 -0.04788104 207.95614544 C-0.03848784 138.6374278 -0.01841896 69.31871703 0 0 Z " fill="#FEFEFE" transform="translate(1920,640)"/>
<path d="M0 0 C138.93 0 277.86 0 421 0 C421 21.12 421 42.24 421 64 C363.25 64 305.5 64 246 64 C246.00523682 80.38325928 246.01047363 96.76651855 246.01586914 113.64624023 C246.01921852 124.58361306 246.02254742 135.52098587 246.02565002 146.45835876 C246.02584736 147.15309277 246.02604469 147.84782678 246.02624801 148.56361334 C246.0328697 171.93889813 246.03812181 195.31418303 246.04234314 218.68946838 C246.04255023 219.83326331 246.04255023 219.83326331 246.04276149 221.00016521 C246.04575405 237.56995774 246.04852428 254.13975029 246.05106533 270.7095429 C246.05231272 278.83476363 246.05360927 286.95998436 246.05493164 295.08520508 C246.0550624 295.89378422 246.05519316 296.70236335 246.05532788 297.53544489 C246.05959311 323.76793517 246.06710731 350.00042329 246.07629722 376.23291227 C246.08571993 403.17871314 246.09188314 430.12451283 246.09391499 457.07031532 C246.09420317 460.87176257 246.0945288 464.67320981 246.09487724 468.47465706 C246.09497838 469.59698254 246.09497838 469.59698254 246.09508156 470.74198126 C246.09626562 482.81101953 246.10091 494.88005413 246.10683203 506.94909091 C246.11270505 519.06751325 246.11497156 531.18593195 246.11350138 543.30435567 C246.11280535 549.8764728 246.11387953 556.44858121 246.11920547 563.02069664 C246.12403735 569.02661064 246.12434006 575.03250648 246.12089889 581.03842128 C246.12047299 583.22146673 246.1217705 585.40451326 246.12488318 587.58755653 C246.12884358 590.53437876 246.12676564 593.48113369 246.12304783 596.42795467 C246.12698835 597.72594048 246.12698835 597.72594048 246.13100848 599.05014822 C246.1141458 604.8858542 246.1141458 604.8858542 245 606 C221.57 606 198.14 606 174 606 C174 427.14 174 248.28 174 64 C116.58 64 59.16 64 0 64 C0 42.88 0 21.76 0 0 Z " fill="#FEFEFE" transform="translate(2296,640)"/>
<path d="M0 0 C0.94875 0.37125 1.8975 0.7425 2.875 1.125 C4.49783775 1.67311076 6.12299018 2.21440049 7.75 2.75 C9.125 3.20833333 10.5 3.66666667 11.875 4.125 C11.875 4.785 11.875 5.445 11.875 6.125 C12.535 6.125 13.195 6.125 13.875 6.125 C13.875 6.785 13.875 7.445 13.875 8.125 C14.720625 8.33125 15.56625 8.5375 16.4375 8.75 C20.63355209 10.42842083 23.90186129 12.70138573 26.875 16.125 C27.57421875 18.3203125 27.57421875 18.3203125 27.875 20.125 C28.535 20.125 29.195 20.125 29.875 20.125 C30.37 22.6 30.37 22.6 30.875 25.125 C31.535 25.125 32.195 25.125 32.875 25.125 C33.20113281 25.91003906 33.52726562 26.69507813 33.86328125 27.50390625 C34.30027344 28.55449219 34.73726562 29.60507813 35.1875 30.6875 C35.83138672 32.23630859 35.83138672 32.23630859 36.48828125 33.81640625 C37.43714589 36.0803171 38.42353381 38.32876497 39.44140625 40.5625 C41.84328143 46.53119255 42.76599054 52.8153561 43.875 59.125 C44.01035156 59.89328125 44.14570313 60.6615625 44.28515625 61.453125 C47.44253682 82.6209159 42.55168645 109.23252216 29.8125 126.6875 C28.85391977 127.8506102 27.87685391 128.99894932 26.875 130.125 C26.1325 130.970625 25.39 131.81625 24.625 132.6875 C10.53758266 145.17407446 -5.34230965 149.09662593 -23.85986328 148.30419922 C-40.63998135 146.97669257 -53.6692894 139.15378397 -65.05859375 127.07421875 C-81.02680001 108.18976993 -81.74535842 84.7105674 -81.41552734 61.18261719 C-81.10305599 57.8940531 -80.26594729 55.21669274 -79.125 52.125 C-78.71075534 50.77116891 -78.30135623 49.41583866 -77.8984375 48.05859375 C-74.90649671 38.31156355 -71.57945856 29.17347464 -65.125 21.125 C-63.80057964 20.4407976 -62.46821466 19.77152656 -61.125 19.125 C-60.43480493 17.8036927 -59.76933798 16.46926589 -59.125 15.125 C-57.28515625 13.421875 -57.28515625 13.421875 -55.1875 11.875 C-54.49785156 11.35421875 -53.80820313 10.8334375 -53.09765625 10.296875 C-51.125 9.125 -51.125 9.125 -48.125 9.125 C-48.125 8.465 -48.125 7.805 -48.125 7.125 C-38.43786585 3.51641115 -29.42039228 0.91218647 -19.13671875 -0.41015625 C-12.30011222 -1.46535233 -7.02847133 -1.96797197 0 0 Z " fill="#6F449D" transform="translate(2363.125,1445.875)"/>
<path d="M0 0 C0 0.66 0 1.32 0 2 C0.74636719 2.2371875 1.49273438 2.474375 2.26171875 2.71875 C5.43612184 4.20406271 6.73257637 5.70864279 8.8125 8.5 C9.41707031 9.2940625 10.02164062 10.088125 10.64453125 10.90625 C12 13 12 13 12 15 C12.66 15 13.32 15 14 15 C18.3123311 23.05945376 20.29157669 31.07025802 22 40 C22.17196836 40.77123829 22.34393673 41.54247658 22.52111626 42.33708572 C22.99447363 44.9692697 23.12580827 47.36496568 23.12698364 50.03631592 C23.13121338 51.5211422 23.13121338 51.5211422 23.13552856 53.03596497 C23.13249222 54.64769844 23.13249222 54.64769844 23.12939453 56.29199219 C23.13202301 58.00242958 23.13202301 58.00242958 23.13470459 59.74742126 C23.13910373 63.51392135 23.13619268 67.28037445 23.1328125 71.046875 C23.13348591 73.66050221 23.13445624 76.27412935 23.13571167 78.88775635 C23.13752893 84.36186228 23.1351376 89.83595471 23.13037109 95.31005859 C23.12491845 101.64547324 23.12670016 107.98085576 23.1321975 114.31626964 C23.13727317 120.4090243 23.13674799 126.50176467 23.13381577 132.59452057 C23.1331465 135.18940485 23.13397491 137.78428995 23.13629532 140.37917328 C23.13881961 143.99466668 23.13498492 147.61009725 23.12939453 151.22558594 C23.13141876 152.30817184 23.13344299 153.39075775 23.13552856 154.50614929 C23.13270874 155.48475418 23.12988892 156.46335907 23.12698364 157.47161865 C23.1264181 158.75469217 23.1264181 158.75469217 23.12584114 160.06368637 C23 162 23 162 22 163 C17.38 163 12.76 163 8 163 C8 152.77 8 142.54 8 132 C6.35 134.97 4.7 137.94 3 141 C-7.87800457 155.43325484 -22.70133025 164.76668151 -40.6875 167.375 C-55.3060876 169.11655201 -69.77925876 166.56049606 -81.8125 157.6875 C-90.39522609 150.47056034 -96.6249573 142.18190966 -99 131 C-99.27052507 127.46190526 -99.27716775 123.92235741 -99.3125 120.375 C-99.34150391 119.42753906 -99.37050781 118.48007813 -99.40039062 117.50390625 C-99.46277389 110.48818813 -97.94089418 105.31827969 -95 99 C-94.32482798 97.3367607 -93.65587545 95.67094273 -93 94 C-92.34 94 -91.68 94 -91 94 C-90.5978125 93.11441406 -90.5978125 93.11441406 -90.1875 92.2109375 C-86.26066357 84.89978809 -79.00574119 80.91961083 -72 77 C-71.27304932 76.5268335 -70.54609863 76.05366699 -69.79711914 75.56616211 C-57.2845018 68.56010117 -41.28506516 67.30042367 -27.36743164 65.20483398 C-23.91003239 64.68335708 -20.45600051 64.1428029 -17.00195312 63.59960938 C-14.78142118 63.25670216 -12.56072348 62.91486619 -10.33984375 62.57421875 C-8.80842995 62.33526131 -8.80842995 62.33526131 -7.24607849 62.09147644 C-1.76062686 61.27325997 3.45406902 60.83421036 9 61 C7.54810304 36.02938621 7.54810304 36.02938621 -5.5 15.5625 C-15.03963805 8.18434857 -26.24939633 7.0378216 -38 8 C-55.18779219 10.26795989 -69.23448848 15.18250069 -83 26 C-83.99 26.66 -84.98 27.32 -86 28 C-86.81555247 21.99986397 -87.56647335 15.93357057 -86 10 C-82.2083348 5.29310527 -77.49064066 3.17584324 -72 1 C-71.17016602 0.66935547 -70.34033203 0.33871094 -69.48535156 -0.00195312 C-46.36134381 -8.90173809 -22.42732115 -12.55334569 0 0 Z " fill="#F4F1F7" transform="translate(1507,1440)"/>
<path d="M0 0 C0 0.66 0 1.32 0 2 C0.56203125 2.2371875 1.1240625 2.474375 1.703125 2.71875 C4.51894042 4.28947697 6.47955416 6.21471464 8.75 8.5 C9.54921875 9.2940625 10.3484375 10.088125 11.171875 10.90625 C13 13 13 13 13 15 C13.66 15 14.32 15 15 15 C15.495 17.475 15.495 17.475 16 20 C16.66 20 17.32 20 18 20 C25.01867697 32.73759894 29.04067907 47.06195076 29.6875 61.5625 C29.73455078 62.36107422 29.78160156 63.15964844 29.83007812 63.98242188 C30.08595472 69.12931663 29.77620632 73.90505174 29 79 C24.31710713 79.92425442 19.79403684 80.13176918 15.03857422 80.09765625 C14.26383759 80.09619598 13.48910095 80.09473572 12.69088745 80.0932312 C11.01798738 80.08944158 9.34509125 80.08334246 7.67220688 80.07516479 C5.02423041 80.06235263 2.37630428 80.0558735 -0.271698 80.05102539 C-5.889488 80.03962371 -11.50723631 80.02037245 -17.125 80 C-23.64318421 79.97639446 -30.16134473 79.95601207 -36.67956161 79.94406128 C-39.28755623 79.93758139 -41.89547793 79.9250758 -44.50344849 79.91235352 C-46.10141944 79.90872113 -47.69939106 79.90536938 -49.29736328 79.90234375 C-50.02161499 79.89717743 -50.7458667 79.89201111 -51.49206543 79.88668823 C-54.83429965 79.88633655 -57.79003223 80.07379496 -61 81 C-63.54635479 81.08298675 -66.06393883 81.11639258 -68.609375 81.09765625 C-69.33618469 81.0962413 -70.06299438 81.09482635 -70.81182861 81.09336853 C-73.12459494 81.08778792 -75.43726312 81.07523904 -77.75 81.0625 C-79.32161318 81.05748249 -80.89322789 81.05292002 -82.46484375 81.04882812 C-86.30993343 81.03782485 -90.1549501 81.02057361 -94 81 C-94.21109756 100.94019689 -88.01934888 121.49154992 -74.6875 136.625 C-73.800625 137.40875 -72.91375 138.1925 -72 139 C-71.08154297 139.83144531 -71.08154297 139.83144531 -70.14453125 140.6796875 C-57.57764581 151.34666129 -42.82479731 152.89518024 -27 152 C-11.60468741 150.49001198 2.02990122 144.09161752 15 136 C16.66524828 134.99763981 18.331476 133.99689791 20 133 C21.35849057 147.12159329 21.35849057 147.12159329 18.41796875 151.1875 C16.02340448 152.77524712 13.64636719 153.88314976 11 155 C9.69482422 155.74056641 9.69482422 155.74056641 8.36328125 156.49609375 C-10.39509852 166.98718202 -35.65510693 170.60206209 -56.5625 165.4375 C-63.975359 163.28489064 -70.49172194 160.12484109 -77 156 C-77.80953125 155.48824219 -78.6190625 154.97648437 -79.453125 154.44921875 C-96.30945549 142.57316772 -105.51551353 120.70394135 -109 101 C-112.49393643 76.94398279 -110.01753479 52.97094806 -98.7421875 31.40625 C-96.96164701 28.13570056 -96.96164701 28.13570056 -96 25 C-95.34 25 -94.68 25 -94 25 C-94 24.01 -94 23.02 -94 22 C-93.34 22 -92.68 22 -92 22 C-91.731875 21.443125 -91.46375 20.88625 -91.1875 20.3125 C-85.75474053 9.73291576 -76.22924299 3.63299529 -66 -2 C-65.38125 -2.37898438 -64.7625 -2.75796875 -64.125 -3.1484375 C-44.79547996 -14.22958476 -18.421235 -10.25614705 0 0 Z " fill="#F5F2F8" transform="translate(1968,1440)"/>
<path d="M0 0 C0.87479004 -0.01426025 1.74958008 -0.02852051 2.65087891 -0.04321289 C11.09760313 0.0209575 18.89798851 1.64182242 25.75 6.8125 C26.97783203 7.72902344 26.97783203 7.72902344 28.23046875 8.6640625 C28.95878906 9.22867187 29.68710938 9.79328125 30.4375 10.375 C31.984375 11.5196875 31.984375 11.5196875 33.5625 12.6875 C34.18125 13.244375 34.8 13.80125 35.4375 14.375 C35.4375 15.035 35.4375 15.695 35.4375 16.375 C36.0975 16.375 36.7575 16.375 37.4375 16.375 C40.4375 19.83653846 40.4375 19.83653846 40.4375 22.375 C41.0975 22.375 41.7575 22.375 42.4375 22.375 C44.97059233 27.01703897 46.90265599 31.02655992 47.4375 36.375 C50.16176311 34.02222731 51.2516763 31.75003669 52.4375 28.375 C53.0975 28.375 53.7575 28.375 54.4375 28.375 C54.664375 27.653125 54.89125 26.93125 55.125 26.1875 C56.70676808 22.79799697 58.7365137 20.95035903 61.4375 18.375 C62.22125 17.364375 63.005 16.35375 63.8125 15.3125 C66.85853232 11.90384478 69.35926637 10.37564291 73.4375 8.375 C74.0975 8.375 74.7575 8.375 75.4375 8.375 C75.4375 7.715 75.4375 7.055 75.4375 6.375 C83.51724462 2.89390176 90.62443933 0.54589037 99.4375 0.375 C100.51257812 0.33632812 101.58765625 0.29765625 102.6953125 0.2578125 C116.37730923 -0.02789045 128.05143733 3.138383 138.4375 12.375 C153.3429224 27.05878043 156.4620909 44.76285999 156.75390625 64.99609375 C156.78521385 66.84612 156.78521385 66.84612 156.81715393 68.73352051 C156.8719364 72.06927406 156.92246652 75.40502789 156.97013092 78.74088669 C157.00005947 80.81662489 157.03142609 82.89233694 157.06317139 84.9680481 C157.35347527 104.08238367 157.54021706 123.19576098 157.5625 142.3125 C157.5650882 143.34543182 157.56767639 144.37836365 157.57034302 145.44259644 C157.57614743 148.34588166 157.57466595 151.24905798 157.5703125 154.15234375 C157.57229141 154.99124146 157.57427032 155.83013916 157.5763092 156.69445801 C157.57320236 157.47712036 157.57009552 158.25978271 157.56689453 159.06616211 C157.56609894 159.73409286 157.56530334 160.40202362 157.56448364 161.0901947 C157.39147958 164.20304134 156.87840236 167.28868347 156.4375 170.375 C151.4875 170.375 146.5375 170.375 141.4375 170.375 C141.43972061 169.17469147 141.44194122 167.97438293 141.44422913 166.73770142 C141.4646169 155.35301366 141.4795468 143.96832966 141.48931217 132.5836277 C141.49450161 126.73250179 141.50152655 120.88139078 141.51293945 115.03027344 C141.52390978 109.36978385 141.5298064 103.70930846 141.53237724 98.04880905 C141.53420627 95.90338289 141.53777702 93.75795739 141.54323006 91.61253738 C141.56779485 81.53500303 141.54846785 71.47073333 141.04077148 61.40380859 C140.99191473 60.3497177 140.99191473 60.3497177 140.94207096 59.27433205 C140.51439243 51.98973339 138.74093206 45.28529618 136.4375 38.375 C136.06496094 37.25738281 135.69242188 36.13976563 135.30859375 34.98828125 C132.91525025 28.56653779 130.57053284 23.73759387 124.4375 20.375 C110.16225213 13.87656627 98.11147014 12.93841434 83.4375 18.375 C80.59156213 19.84629618 77.94452263 21.40877363 75.29296875 23.203125 C73.4375 24.375 73.4375 24.375 71.4375 24.375 C71.07398438 25.18710938 71.07398438 25.18710938 70.703125 26.015625 C69.13092921 28.94650851 67.17671898 31.45917593 65.1875 34.125 C61.63641201 39.07730485 59.05547059 44.03708816 56.9375 49.75 C56.69483398 50.40323242 56.45216797 51.05646484 56.20214844 51.72949219 C53.51450577 59.41685441 53.29405125 66.86006692 53.32397461 74.90014648 C53.32382858 75.93504715 53.32368256 76.96994781 53.3235321 78.03620911 C53.32422593 81.43952569 53.33199348 84.84278679 53.33984375 88.24609375 C53.34170981 90.61263499 53.34313283 92.97917662 53.34413147 95.34571838 C53.34794182 101.56156488 53.35775944 107.77738786 53.36883545 113.9932251 C53.37908145 120.34118329 53.38363592 126.68914529 53.38867188 133.03710938 C53.39938305 145.48308323 53.41644165 157.92903965 53.4375 170.375 C52.01060771 170.5407158 50.58347686 170.70437834 49.15625 170.8671875 C47.96418945 171.00423096 47.96418945 171.00423096 46.74804688 171.14404297 C43.95830476 171.42289927 41.23801093 171.51502555 38.4375 171.375 C37.4375 170.375 37.4375 170.375 37.32562542 168.60552502 C37.33174249 167.8286197 37.33785955 167.05171438 37.34416199 166.25126648 C37.34856796 165.36165222 37.35297394 164.47203796 37.35751343 163.5554657 C37.36739288 162.57125137 37.37727234 161.58703705 37.38745117 160.57299805 C37.39373032 159.54183868 37.40000946 158.51067932 37.40647888 157.44827271 C37.42037729 155.19690877 37.43632354 152.94555679 37.45403099 150.69421959 C37.48063816 147.11392244 37.49853309 143.53368704 37.51350403 139.95332336 C37.55624581 129.76832872 37.60311492 119.58345202 37.68432617 109.39868164 C37.73332604 103.17293394 37.7619858 96.9473611 37.77807045 90.72144508 C37.78787344 88.36271775 37.80493596 86.00400753 37.82985497 83.64539146 C38.01510181 65.68289519 36.4017662 49.37990478 30.4375 32.375 C29.7775 32.375 29.1175 32.375 28.4375 32.375 C28.210625 31.818125 27.98375 31.26125 27.75 30.6875 C23.96252606 24.01433163 17.45686878 20.09280381 10.23828125 18.0390625 C-2.48538805 14.92041952 -12.78643181 14.91338008 -24.5625 21.375 C-26.58568078 22.67288956 -28.59116014 23.99964661 -30.5625 25.375 C-31.305 25.705 -32.0475 26.035 -32.8125 26.375 C-35.10458585 27.68476334 -35.4041245 29.01290334 -36.5625 31.375 C-37.66119748 32.98291747 -38.76598452 34.58668165 -39.875 36.1875 C-47.64855772 48.28509919 -50.90531405 62.7784929 -50.77368164 77.01953125 C-50.7723674 78.04336411 -50.77105316 79.06719696 -50.7696991 80.12205505 C-50.76325205 83.47730048 -50.74284878 86.83231174 -50.72265625 90.1875 C-50.71638159 92.52636467 -50.71114291 94.86523233 -50.70689392 97.20410156 C-50.69363287 103.33901915 -50.66920791 109.47383592 -50.64154053 115.60870361 C-50.59829281 125.45625714 -50.56877113 135.30383988 -50.5454998 145.15145874 C-50.53524393 148.59555692 -50.51820478 152.03957562 -50.50050354 155.48364258 C-50.49368068 157.57763599 -50.48707184 159.67163012 -50.48071289 161.765625 C-50.47397552 162.72971786 -50.46723816 163.69381073 -50.46029663 164.68711853 C-50.45878098 165.55897293 -50.45726532 166.43082733 -50.45570374 167.32910156 C-50.45218431 168.09079651 -50.44866488 168.85249146 -50.4450388 169.63726807 C-50.5625 171.375 -50.5625 171.375 -51.5625 172.375 C-56.5125 172.375 -61.4625 172.375 -66.5625 172.375 C-66.5625 117.265 -66.5625 62.155 -66.5625 5.375 C-61.2825 5.375 -56.0025 5.375 -50.5625 5.375 C-50.2325 12.965 -49.9025 20.555 -49.5625 28.375 C-48.345625 26.84875 -47.12875 25.3225 -45.875 23.75 C-44.44300106 21.95393354 -43.00512347 20.16254391 -41.5625 18.375 C-40.79550781 17.37082031 -40.02851562 16.36664062 -39.23828125 15.33203125 C-28.99411966 4.01111107 -14.71758408 0.19638848 0 0 Z " fill="#F3F0F7" transform="translate(1655.5625,1432.625)"/>
<path d="M0 0 C5.61 0 11.22 0 17 0 C19.33452943 6.0110638 21.29942728 12.06690446 23.125 18.25 C23.38925781 19.13429688 23.65351563 20.01859375 23.92578125 20.9296875 C25.84565342 27.38123764 25.84565342 27.38123764 26.49291992 29.97607422 C27.07351292 32.2934146 27.74024698 34.57635243 28.41796875 36.8671875 C28.69954834 37.82351074 28.98112793 38.77983398 29.27124023 39.76513672 C29.57360596 40.7913916 29.87597168 41.81764648 30.1875 42.875 C32.52999122 50.8520674 34.79051229 58.84323672 36.9375 66.875 C39.41615421 76.11270517 42.19106125 85.24336829 45.0300293 94.37597656 C47.17081612 101.27378187 49.25916593 108.18235502 51.25 115.125 C51.47171875 115.89207275 51.6934375 116.65914551 51.921875 117.44946289 C54.13954353 125.25007893 56.05659728 133.12763404 58 141 C58.25056152 140.18772949 58.50112305 139.37545898 58.75927734 138.53857422 C63.85374079 122.05376846 69.04167569 105.61224245 74.59912109 89.27685547 C76.94073662 82.35326793 79.06419867 75.40334021 81.03955078 68.36669922 C82.49920462 63.25011902 84.11567231 58.18800754 85.75 53.125 C86.08999023 52.06563232 86.42998047 51.00626465 86.78027344 49.91479492 C89.53857187 41.35178534 92.39542643 32.82313092 95.26489258 24.296875 C97.46699978 17.71319858 99.49062756 11.11526522 101.30859375 4.4140625 C102 2 102 2 103 0 C106.63 0 110.26 0 114 0 C128.82113424 51.77380623 128.82113424 51.77380623 135 74 C136.10231124 77.95885275 137.20666203 81.91713096 138.3125 85.875 C138.589729 86.86790039 138.86695801 87.86080078 139.15258789 88.88378906 C140.95543418 95.32231016 142.78476736 101.75290128 144.62890625 108.1796875 C144.96916588 109.36635513 144.96916588 109.36635513 145.31629944 110.57699585 C146.4454974 114.51420734 147.57700117 118.45073293 148.7121582 122.38623047 C149.12848748 123.83559201 149.54475033 125.28497264 149.9609375 126.734375 C150.15228775 127.39476776 150.343638 128.05516052 150.54078674 128.73556519 C151.51523144 132.13678036 152.36604793 135.51866428 153 139 C155.04995524 133.68186015 156.86305229 128.36984379 158.453125 122.8984375 C158.67421432 122.1476593 158.89530365 121.3968811 159.12309265 120.62335205 C159.5925673 119.02896571 160.06086167 117.43423141 160.52804565 115.83917236 C163.88056421 104.39636628 167.26020955 92.96847114 170.9375 81.625 C173.1593379 74.76689299 175.12258991 67.91256519 176.91796875 60.9296875 C178.20476566 56.10576528 179.77237391 51.37274453 181.3125 46.625 C184.63105031 36.3817174 187.56756276 26.05289377 190.421875 15.671875 C191.8679112 10.42236889 193.41615664 5.20950887 195 0 C200.28 0 205.56 0 211 0 C209.64529536 6.38187875 208.03603289 12.61980143 206.1875 18.875 C205.89689697 19.86532227 205.60629395 20.85564453 205.30688477 21.87597656 C200.75129729 37.3256566 196.05055996 52.73257356 191.37626648 68.14663696 C189.33530751 74.88158814 187.3129783 81.62200934 185.2947998 88.36381531 C183.41198619 94.64547068 181.5039252 100.91921675 179.58984375 107.19140625 C175.85905444 119.42378269 172.20639799 131.67900917 168.5625 143.9375 C167.91998739 146.0970247 167.27740951 148.25652998 166.63476562 150.41601562 C165.08909622 155.61045502 163.54429299 160.80515124 162 166 C157.05 166 152.1 166 147 166 C141.19120945 147.37986643 135.67960529 128.68947452 130.3125 109.9375 C128.85161029 104.84206065 127.38851154 99.74725495 125.92578125 94.65234375 C125.58035782 93.44829895 125.23493439 92.24425415 124.87904358 91.00372314 C122.61709294 83.12584909 120.32835968 75.25657498 118.00292969 67.3972168 C115.88745264 60.23147602 113.79613288 53.05889396 111.8984375 45.83203125 C111.71676025 45.14061035 111.53508301 44.44918945 111.34790039 43.73681641 C110.83870425 41.78780026 110.33521215 39.83729652 109.83203125 37.88671875 C109.28877393 35.12756994 109.28877393 35.12756994 108 34 C104.02107561 45.74398147 100.06326979 57.47469246 96.65356445 69.39819336 C95.3243964 74.00939707 93.76444568 78.47711594 92.0690918 82.96337891 C90.88008495 86.34060366 89.88966848 89.75749096 88.91015625 93.19921875 C85.39466655 105.33461261 81.38364575 117.31206575 77.4375 129.3125 C76.67490118 131.6385968 75.91253005 133.96476826 75.15039062 136.29101562 C71.79163639 146.53570968 68.4147484 156.77381472 65 167 C60.05 167 55.1 167 50 167 C47.8120985 159.76350906 45.62504242 152.52676331 43.4387207 145.28979492 C42.69708288 142.8353001 41.95522651 140.3808713 41.21313477 137.92651367 C30.82818908 103.57846338 30.82818908 103.57846338 26.68164062 88.80273438 C24.42129585 80.75228008 21.97700061 72.82281388 19.2734375 64.91015625 C17.44306018 59.41759655 15.93595472 53.82970324 14.37329102 48.2565918 C12.52899097 41.7291184 10.52422435 35.26623413 8.4375 28.8125 C5.35409469 19.27186143 2.61809197 9.67900668 0 0 Z " fill="#F4F1F7" transform="translate(2026,1437)"/>
<path d="M0 0 C1.27931396 -0.01015137 2.55862793 -0.02030273 3.87670898 -0.03076172 C11.63276955 0.04067634 18.40645925 0.93742343 25.75 3.4375 C26.89855469 3.82292969 28.04710938 4.20835938 29.23046875 4.60546875 C30.12378906 4.94191406 31.01710938 5.27835938 31.9375 5.625 C32.85917969 5.96917969 33.78085938 6.31335937 34.73046875 6.66796875 C35.39691406 6.92191406 36.06335937 7.17585938 36.75 7.4375 C36.75 8.0975 36.75 8.7575 36.75 9.4375 C38.4 9.7675 40.05 10.0975 41.75 10.4375 C41.75 11.0975 41.75 11.7575 41.75 12.4375 C42.74 12.4375 43.73 12.4375 44.75 12.4375 C44.75 13.0975 44.75 13.7575 44.75 14.4375 C45.53375 14.685 46.3175 14.9325 47.125 15.1875 C50.15937999 16.63244285 50.42029725 17.49315819 51.75 20.4375 C52.74 20.7675 53.73 21.0975 54.75 21.4375 C56.5 23.375 56.5 23.375 58.75 26.4375 C59.26691406 27.09492187 59.78382813 27.75234375 60.31640625 28.4296875 C77.33252863 51.0417159 79.21514442 79.24299064 76.43652344 106.51416016 C73.38954522 127.50402162 62.40973866 147.81790321 45.4375 160.6875 C26.17142989 173.92291658 4.55491224 177.41468948 -18.45703125 173.89453125 C-21.48341578 173.24473813 -24.32908107 172.45499728 -27.25 171.4375 C-28.10851563 171.1590625 -28.96703125 170.880625 -29.8515625 170.59375 C-49.82634574 163.42014363 -62.5601622 148.26838331 -71.390625 129.65234375 C-82.46327264 105.24628894 -83.62690687 76.44482628 -74.3984375 51.22265625 C-68.69620957 37.39378374 -59.88386509 19.58824753 -45.453125 13.19921875 C-44.72609375 12.94785156 -43.9990625 12.69648437 -43.25 12.4375 C-43.25 11.7775 -43.25 11.1175 -43.25 10.4375 C-28.8315118 3.14315521 -16.22467082 0.07443075 0 0 Z M-5.25 13.4375 C-7.30940302 13.75028567 -9.37243101 14.03961588 -11.4375 14.3125 C-18.61885794 15.35146961 -25.72905764 17.17702882 -32.25 20.4375 C-32.25 21.0975 -32.25 21.7575 -32.25 22.4375 C-32.98605469 22.53160156 -33.72210937 22.62570312 -34.48046875 22.72265625 C-37.65808164 23.54282996 -39.14661485 24.68659933 -41.5625 26.875 C-42.60857422 27.80119141 -42.60857422 27.80119141 -43.67578125 28.74609375 C-45.47709787 30.2963981 -45.47709787 30.2963981 -45.25 32.4375 C-45.83007812 32.6540625 -46.41015625 32.870625 -47.0078125 33.09375 C-56.25389468 38.63495605 -59.83350154 53.75646957 -62.65283203 63.43383789 C-63.17579148 65.18851008 -63.77707478 66.91944656 -64.390625 68.64453125 C-69.47800355 91.0983702 -64.69954159 114.89546687 -53.25 134.4375 C-51.42758528 137.3063621 -49.51063689 139.90248502 -47.25 142.4375 C-46.73050781 143.03691406 -46.21101563 143.63632813 -45.67578125 144.25390625 C-34.95916383 155.81985932 -20.01544616 160.71092315 -4.64453125 161.66015625 C12.03956707 162.05780833 28.2307579 158.02415748 40.75 146.4375 C55.89363106 130.42959223 61.16617299 105.28774636 60.97265625 83.91796875 C60.31327236 73.61075741 58.59532128 63.0508032 54.75 53.4375 C54.33234375 52.33148437 53.9146875 51.22546875 53.484375 50.0859375 C51.31229564 44.17807144 51.31229564 44.17807144 48.75 38.4375 C48.09 38.4375 47.43 38.4375 46.75 38.4375 C46.42 36.7875 46.09 35.1375 45.75 33.4375 C45.09 33.4375 44.43 33.4375 43.75 33.4375 C43.60111328 32.54417969 43.60111328 32.54417969 43.44921875 31.6328125 C42.21607141 27.76114321 39.00534387 25.68712788 35.75 23.4375 C32.50381554 22.04544936 32.50381554 22.04544936 29.75 21.4375 C29.75 20.7775 29.75 20.1175 29.75 19.4375 C29.09 19.4375 28.43 19.4375 27.75 19.4375 C27.255 18.4475 27.255 18.4475 26.75 17.4375 C21.19846508 15.05827075 15.6788117 13.54005095 9.75 12.4375 C9.05648437 12.30085938 8.36296875 12.16421875 7.6484375 12.0234375 C2.72924305 11.20673726 -0.54887975 11.97321664 -5.25 13.4375 Z " fill="#F5F2F8" transform="translate(2347.25,1432.5625)"/>
<path d="M0 0 C4.95 0 9.9 0 15 0 C15.33 51.81 15.66 103.62 16 157 C20.52158806 152.87593941 20.52158806 152.87593941 24 148 C24.66 148 25.32 148 26 148 C26 147.34 26 146.68 26 146 C26.66 146 27.32 146 28 146 C28.23630127 145.43700195 28.47260254 144.87400391 28.71606445 144.29394531 C30.29807106 141.4674509 32.22864009 139.56395401 34.54296875 137.296875 C35.45240234 136.39839844 36.36183594 135.49992187 37.29882812 134.57421875 C38.26134531 133.63243069 39.22423819 132.69102645 40.1875 131.75 C45.74074752 126.30022914 51.20708767 120.87672777 56.26391602 114.9609375 C59.61789975 111.17255368 63.26777369 107.67003275 66.875 104.125 C68.39550816 102.62991839 69.91385411 101.13263356 71.4296875 99.6328125 C72.42331299 98.65658936 72.42331299 98.65658936 73.43701172 97.66064453 C75.08544452 96.06857485 75.08544452 96.06857485 76 94 C76.66 94 77.32 94 78 94 C78.24878906 93.44828125 78.49757813 92.8965625 78.75390625 92.328125 C81.41701463 87.35253693 84.84029694 82.55873313 90 80 C96.26058043 78.77439067 102.69408161 79.4173176 109 80 C105.65823057 87.98719616 97.1893773 93.94596829 90.75 99.4765625 C87.62866918 102.19379246 84.75370887 104.96713969 82.3125 108.3125 C81.879375 108.869375 81.44625 109.42625 81 110 C80.34 110 79.68 110 79 110 C78.505 111.485 78.505 111.485 78 113 C77.34 113 76.68 113 76 113 C76 113.66 76 114.32 76 115 C75.34 115 74.68 115 74 115 C73.01 116.98 73.01 116.98 72 119 C71.34 119 70.68 119 70 119 C69.773125 119.53625 69.54625 120.0725 69.3125 120.625 C66.40769674 125.88131066 62.46315522 129.52798653 57.90380859 133.29833984 C56.01891353 134.98309473 54.4304511 136.73375476 52.80078125 138.6640625 C48.92310711 143.15438032 44.78097358 147.3317004 40.5625 151.5 C39.83095703 152.22703125 39.09941406 152.9540625 38.34570312 153.703125 C36.56610176 155.47109499 34.78419082 157.23666378 33 159 C33.77479736 161.99152582 33.77479736 161.99152582 35 165 C35.99 165.33 36.98 165.66 38 166 C38 166.66 38 167.32 38 168 C38.66 168 39.32 168 40 168 C40 168.66 40 169.32 40 170 C40.66 170 41.32 170 42 170 C42 170.66 42 171.32 42 172 C42.66 172 43.32 172 44 172 C44 172.66 44 173.32 44 174 C44.66 174 45.32 174 46 174 C47.33203125 175.35546875 47.33203125 175.35546875 48.8125 177.1875 C51.36633132 180.33015034 54.12628944 183.14609108 57 186 C57.94727595 186.94457424 58.89431535 187.88938576 59.84114075 188.83441162 C60.88862188 189.8788851 61.9361236 190.92333792 62.98364258 191.96777344 C68.82077003 197.78862826 74.65540458 203.6119751 80.48859119 209.43677902 C84.01346179 212.95640388 87.53927286 216.47507639 91.06713867 219.99169922 C94.48558211 223.3993214 97.90161588 226.80934176 101.31595421 230.22107697 C102.61851034 231.52178018 103.92194872 232.82160049 105.22626686 234.1205368 C107.04093014 235.9279981 108.85249783 237.73850642 110.66333008 239.54980469 C111.20716843 240.09004776 111.75100677 240.63029083 112.31132507 241.18690491 C116 244.88594491 116 244.88594491 116 246 C98.2064369 248.3775146 98.2064369 248.3775146 91.56640625 244.62451172 C86.67544452 240.71108846 82.79861177 235.94756667 79 231 C75.86745872 227.10586177 72.57787883 223.49316582 69 220 C65.70345297 216.73407337 62.41468958 213.46033172 59.125 210.1875 C58.25230469 209.32318359 57.37960938 208.45886719 56.48046875 207.56835938 C52.71777865 203.81981472 49.00316748 200.08127982 45.55078125 196.04296875 C40.58564092 190.25249425 35.03866845 185.01099545 29.58764648 179.68359375 C28.17005197 178.29600999 26.75874095 176.90201582 25.34765625 175.5078125 C24.09480835 174.28022217 24.09480835 174.28022217 22.81665039 173.02783203 C21 171 21 171 21 169 C20.34 169 19.68 169 19 169 C19 168.34 19 167.68 19 167 C18.34 167 17.68 167 17 167 C17 166.34 17 165.68 17 165 C16.34 165 15.68 165 15 165 C15 191.73 15 218.46 15 246 C10.05 246 5.1 246 0 246 C0 164.82 0 83.64 0 0 Z " fill="#F6F3F8" transform="translate(2593,1357)"/>
<path d="M0 0 C5.15678802 5.37765604 8.27549166 10.970787 10.84765625 17.9375 C11.09386719 18.60394531 11.34007812 19.27039062 11.59375 19.95703125 C14.9095008 30.81897353 13.40201399 43.62451109 8.48828125 53.734375 C5.79146776 58.43294696 2.93364282 62.33794041 -1.15234375 65.9375 C-1.74917969 66.50210937 -2.34601563 67.06671875 -2.9609375 67.6484375 C-12.5432435 76.5022641 -24.23209138 80.67233605 -37.3671875 80.21875 C-50.66544348 78.87586861 -62.39884783 73.05028006 -70.99609375 62.72265625 C-76.73736716 55.02302475 -80.43731349 46.59040855 -81.15234375 36.9375 C-81.20390625 36.27621094 -81.25546875 35.61492187 -81.30859375 34.93359375 C-81.85455445 22.21725909 -77.08952367 10.24396437 -68.90234375 0.6875 C-60.76369134 -7.88091623 -50.31132474 -14.07466919 -38.29296875 -15.02734375 C-22.94562769 -15.27939862 -11.04059849 -10.57973866 0 0 Z " fill="#FFFFFF" transform="translate(1136.15234375,1174.0625)"/>
<path d="M0 0 C14.06417657 -0.02333039 28.12835015 -0.04091345 42.19254208 -0.05181217 C48.72236233 -0.0570417 55.25216963 -0.06414061 61.78198242 -0.07543945 C68.07781159 -0.08626585 74.37362826 -0.09227631 80.66946602 -0.09487724 C83.07734944 -0.09673194 85.48523214 -0.1003534 87.89311028 -0.10573006 C91.25289286 -0.1129372 94.6126231 -0.11399108 97.97241211 -0.11352539 C98.97869659 -0.11712067 99.98498108 -0.12071594 101.02175903 -0.12442017 C101.93186234 -0.1230455 102.84196564 -0.12167084 103.77964783 -0.12025452 C104.97290884 -0.12163721 104.97290884 -0.12163721 106.19027615 -0.12304783 C108 0 108 0 109 1 C109.07271741 3.35313555 109.08370868 5.70833668 109.0625 8.0625 C109.05347656 9.35285156 109.04445313 10.64320312 109.03515625 11.97265625 C109.02355469 12.97167969 109.01195312 13.97070312 109 15 C104.40476883 15.7386686 100.03080896 16.11115088 95.37890625 16.0625 C94.12650146 16.05412109 92.87409668 16.04574219 91.58374023 16.03710938 C90.60085526 16.02780396 90.60085526 16.02780396 89.59811401 16.01831055 C79.36237011 15.92623903 69.16444528 15.99908839 58.9375 16.5 C44.96958668 17.08504349 30.98016017 17 17 17 C16.67 47.69 16.34 78.38 16 110 C44.38 110 72.76 110 102 110 C102.495 116.93 102.495 116.93 103 124 C101.2120694 125.7879306 98.80241742 125.1198974 96.42249203 125.12442875 C95.62041097 125.12083064 94.81832991 125.11723253 93.99194336 125.11352539 C93.13937486 125.11364593 92.28680635 125.11376646 91.40840244 125.11389065 C88.63552344 125.11314141 85.8627108 125.10551268 83.08984375 125.09765625 C81.38317904 125.09618687 79.67651388 125.09516613 77.96984863 125.09460449 C71.62572557 125.08935121 65.28161214 125.07539013 58.9375 125.0625 C44.768125 125.041875 30.59875 125.02125 16 125 C16 160.64 16 196.28 16 233 C12.34437536 233.73112493 9.46109677 234.15990093 5.8125 234.1875 C4.95269531 234.20167969 4.09289063 234.21585938 3.20703125 234.23046875 C1 234 1 234 -1 232 C-1.1944426 229.27767163 -1.26212421 226.65761676 -1.24291992 223.93432617 C-1.24479561 223.08865932 -1.2466713 222.24299246 -1.24860382 221.37169933 C-1.25230224 218.5120349 -1.24140872 215.65261212 -1.23046875 212.79296875 C-1.22960919 210.73719297 -1.22953257 208.68141673 -1.23017883 206.62564087 C-1.22901055 200.99310101 -1.21448593 195.360664 -1.19723511 189.72815323 C-1.18425758 185.00823304 -1.17868323 180.28831477 -1.17279625 175.56838131 C-1.09446311 117.04428623 -0.55280612 58.52119183 0 0 Z " fill="#F5F3F8" transform="translate(1139,1368)"/>
<path d="M0 0 C0.69089125 20.96908101 0.44789811 37.72029173 -11 56 C-11.56460937 56.96292969 -11.56460937 56.96292969 -12.140625 57.9453125 C-18.59526491 68.08182448 -30.7996971 75.20927873 -42.1875 78.375 C-53.35881391 80.3284538 -64.76756744 80.12470088 -75 75 C-75.72574219 74.67257812 -76.45148438 74.34515625 -77.19921875 74.0078125 C-84.42231035 70.2380466 -88.45965972 63.38614626 -91.1015625 55.86328125 C-94.55757614 42.99205288 -92.3212322 32.55259678 -86 21 C-85.34 21 -84.68 21 -84 21 C-84 20.01 -84 19.02 -84 18 C-81.797998 16.90208304 -79.58949317 15.82223483 -77.375 14.75 C-76.776875 14.44964844 -76.17875 14.14929687 -75.5625 13.83984375 C-62.0669393 7.36748301 -47.52094183 5.66902514 -32.85620117 3.70751953 C-29.41236011 3.24663557 -25.97078994 2.77104207 -22.52929688 2.29296875 C-20.33084497 1.99134221 -18.132281 1.69053115 -15.93359375 1.390625 C-14.39764809 1.17977264 -14.39764809 1.17977264 -12.83067322 0.96466064 C-11.87520096 0.83742615 -10.9197287 0.71019165 -9.93530273 0.57910156 C-9.10038803 0.46681213 -8.26547333 0.35452271 -7.40525818 0.23883057 C-4.92086383 -0.00785784 -2.49492349 -0.04120424 0 0 Z " fill="#6F449D" transform="translate(1516,1514)"/>
<path d="M0 0 C0 0.66 0 1.32 0 2 C1.98 2.66 3.96 3.32 6 4 C6 4.66 6 5.32 6 6 C7.65 6.66 9.3 7.32 11 8 C11 8.99 11 9.98 11 11 C11.99 11.33 12.98 11.66 14 12 C16.32265612 14.58072903 17 15.45176068 17 19 C17.66 19 18.32 19 19 19 C23.21612709 28.12342255 25.81881182 37.23811368 28 47 C28.22171875 47.85722656 28.4434375 48.71445313 28.671875 49.59765625 C29.07782518 52.5697915 28.53634518 55.06343466 28 58 C-31.27076656 58.19593422 -31.27076656 58.19593422 -53.125 57.5625 C-53.83700562 57.54285187 -54.54901123 57.52320374 -55.28259277 57.50296021 C-62.89313912 57.28574895 -70.43806105 56.90392787 -78 56 C-77.11018912 43.43260037 -74.06809861 33.0757528 -68 22 C-67.34 22 -66.68 22 -66 22 C-65.90589844 21.43796875 -65.81179688 20.8759375 -65.71484375 20.296875 C-64.8240591 17.43468169 -63.41128118 15.60229539 -61.5625 13.25 C-60.94503906 12.45078125 -60.32757812 11.6515625 -59.69140625 10.828125 C-59.13324219 10.22484375 -58.57507812 9.6215625 -58 9 C-57.34 9 -56.68 9 -56 9 C-56 8.34 -56 7.68 -56 7 C-39.06094101 -6.02510975 -19.56918943 -5.56281527 0 0 Z " fill="#6F449D" transform="translate(1953,1449)"/>
<path d="M0 0 C2.93447357 2.93447357 2.46158423 6.18259456 2.625 10.125 C2.66367188 10.87910156 2.70234375 11.63320312 2.7421875 12.41015625 C2.83651031 14.27303184 2.91934662 16.13648255 3 18 C2.47792969 17.72285156 1.95585938 17.44570312 1.41796875 17.16015625 C-8.88206798 12.09131156 -18.57911854 12.19303951 -29.34375 15.78125 C-35.08958783 18.06384311 -39.8315051 21.41678239 -44 26 C-44.33 26.99 -44.66 27.98 -45 29 C-45.66 29 -46.32 29 -47 29 C-47.66 31.31 -48.32 33.62 -49 36 C-49.66 36 -50.32 36 -51 36 C-51.0825 36.804375 -51.165 37.60875 -51.25 38.4375 C-51.87959057 41.42805522 -52.58582362 43.42248659 -53.8762207 46.125 C-64.13327152 68.93751491 -61.60018341 95.38244571 -61.34332275 119.75921631 C-61.29147643 125.2104719 -61.2691914 130.66184834 -61.24414062 136.11328125 C-61.19107933 146.74249905 -61.1061437 157.37118863 -61 168 C-65.95 168 -70.9 168 -76 168 C-76 113.22 -76 58.44 -76 2 C-71.05 2 -66.1 2 -61 2 C-60.67 11.9 -60.34 21.8 -60 32 C-57.5853969 27.66672156 -57.5853969 27.66672156 -55.18481445 23.32568359 C-52.82718007 19.14798223 -50.2683786 15.52312785 -47 12 C-46.34 12 -45.68 12 -45 12 C-44.67 11.01 -44.34 10.02 -44 9 C-31.76565474 -1.30260653 -15.41226916 -5.48744528 0 0 Z " fill="#F5F2F8" transform="translate(1374,1435)"/>
<path d="M0 0 C0.94875 0.37125 1.8975 0.7425 2.875 1.125 C4.49783775 1.67311076 6.12299018 2.21440049 7.75 2.75 C9.125 3.20833333 10.5 3.66666667 11.875 4.125 C11.875 4.785 11.875 5.445 11.875 6.125 C12.535 6.125 13.195 6.125 13.875 6.125 C13.875 6.785 13.875 7.445 13.875 8.125 C14.720625 8.33125 15.56625 8.5375 16.4375 8.75 C20.63355209 10.42842083 23.90186129 12.70138573 26.875 16.125 C27.57421875 18.3203125 27.57421875 18.3203125 27.875 20.125 C28.535 20.125 29.195 20.125 29.875 20.125 C30.37 22.6 30.37 22.6 30.875 25.125 C31.535 25.125 32.195 25.125 32.875 25.125 C33.20113281 25.91003906 33.52726562 26.69507813 33.86328125 27.50390625 C34.30027344 28.55449219 34.73726562 29.60507813 35.1875 30.6875 C35.83138672 32.23630859 35.83138672 32.23630859 36.48828125 33.81640625 C37.43714589 36.0803171 38.42353381 38.32876497 39.44140625 40.5625 C41.84328143 46.53119255 42.76599054 52.8153561 43.875 59.125 C44.01035156 59.89328125 44.14570313 60.6615625 44.28515625 61.453125 C45.87707543 72.12570992 44.62491916 82.56298792 42.875 93.125 C14.20833333 64.45833333 -14.45833333 35.79166667 -43.125 7.125 C-37.09392456 0.78996263 -27.30726456 0.58019365 -19.03125 -0.4453125 C-12.24113946 -1.44922669 -6.98346819 -1.95537109 0 0 Z " fill="#5D2E91" transform="translate(2363.125,1445.875)"/>
<path d="M0 0 C0 4.95 0 9.9 0 15 C-1.32 14.67 -2.64 14.34 -4 14 C-4 13.34 -4 12.68 -4 12 C-6.35282812 11.63360077 -8.70640636 11.28169841 -11.0625 10.9375 C-11.71927734 10.83373047 -12.37605469 10.72996094 -13.05273438 10.62304688 C-18.90824218 9.78654576 -24.37561896 9.91369791 -29.75 12.5625 C-33 14 -33 14 -36 14 C-36 14.66 -36 15.32 -36 16 C-42.75 20 -42.75 20 -45 20 C-45.309375 20.78375 -45.61875 21.5675 -45.9375 22.375 C-47 25 -47 25 -48 27 C-48.66 27 -49.32 27 -50 27 C-50.18175781 27.60328125 -50.36351563 28.2065625 -50.55078125 28.828125 C-50.80214844 29.62734375 -51.05351562 30.4265625 -51.3125 31.25 C-51.55613281 32.03890625 -51.79976562 32.8278125 -52.05078125 33.640625 C-53 36 -53 36 -54.46118164 37.82397461 C-56.19303921 40.27297453 -56.83021506 42.27702295 -57.5703125 45.17578125 C-57.82683594 46.16900391 -58.08335937 47.16222656 -58.34765625 48.18554688 C-58.60417969 49.21744141 -58.86070312 50.24933594 -59.125 51.3125 C-59.38925781 52.33279297 -59.65351563 53.35308594 -59.92578125 54.40429688 C-62.08184651 62.86986277 -63.14777431 70.88314884 -63.20532227 79.60717773 C-63.22017166 81.01322517 -63.22017166 81.01322517 -63.23532104 82.44767761 C-63.26674736 85.52629119 -63.29161842 88.60492017 -63.31640625 91.68359375 C-63.33699209 93.82593675 -63.35798898 95.96827584 -63.37937927 98.11061096 C-63.4344316 103.73457662 -63.48391481 109.35857791 -63.53222656 114.98260498 C-63.58256491 120.72736766 -63.63818646 126.47207895 -63.69335938 132.21679688 C-63.80073484 143.47782062 -63.90222516 154.73888909 -64 166 C-68.95 166 -73.9 166 -79 166 C-79 111.22 -79 56.44 -79 0 C-74.05 0 -69.1 0 -64 0 C-63.67 10.56 -63.34 21.12 -63 32 C-60.69 27.71 -58.38 23.42 -56 19 C-46.82800505 7.73154906 -38.15791574 0.73255079 -23.9375 -2.75 C-15.2406377 -3.49015849 -8.38567405 -2.5802074 0 0 Z " fill="#F3EFF6" transform="translate(2553,1437)"/>
<path d="M0 0 C4.22752741 3.62359492 8.20259254 7.07699102 12.10913086 10.97973633 C12.79829086 11.66626785 12.79829086 11.66626785 13.50137329 12.3666687 C14.99169085 13.85264909 16.47839696 15.3421797 17.96484375 16.83203125 C19.0084449 17.87495772 20.05219437 18.91773579 21.09608459 19.96037292 C23.26856386 22.13138689 25.43924625 24.30417701 27.60864258 26.47827148 C30.39516082 29.27052921 33.18620245 32.05821587 35.97856808 34.84462452 C38.12754077 36.98999631 40.2741418 39.13772829 42.42001534 41.28619957 C43.44917896 42.31603157 44.4790895 43.34511768 45.50974846 44.37345314 C46.94112097 45.80230231 48.36897164 47.23467696 49.79663086 48.66723633 C50.61046738 49.48186844 51.42430389 50.29650055 52.26280212 51.13581848 C54 53 54 53 54 54 C36.18 54 18.36 54 0 54 C0 36.18 0 18.36 0 0 Z " fill="#6F449D" transform="translate(1992,1125)"/>
<path d="M0 0 C0.99 0.33 1.98 0.66 3 1 C0.36 3.64 -2.28 6.28 -5 9 C-5.33 8.34 -5.66 7.68 -6 7 C-4.31525278 3.63050557 -3.1808342 2.12055614 0 0 Z M-8 9 C-7.01 9.495 -7.01 9.495 -6 10 C-6.99 10.495 -6.99 10.495 -8 11 C-8 10.34 -8 9.68 -8 9 Z " fill="#7B55A5" transform="translate(2511,1455)"/>
</svg>
