<?xml version="1.0" encoding="UTF-8"?>
<svg version="1.1" xmlns="http://www.w3.org/2000/svg" width="676" height="683">
<path d="M0 0 C223.08 0 446.16 0 676 0 C676 225.39 676 450.78 676 683 C452.92 683 229.84 683 0 683 C0 457.61 0 232.22 0 0 Z " fill="#F0EFEF" transform="translate(0,0)"/>
<path d="M0 0 C0.46293457 0.32613281 0.92586914 0.65226563 1.40283203 0.98828125 C6.69666143 4.52881524 11.72029807 6.45966765 17.875 8 C18.84244141 8.24854736 19.80988281 8.49709473 20.80664062 8.75317383 C31.33668003 11.31151699 42.0279703 12.82128891 52.75732422 14.26367188 C60.75847204 15.34216585 68.61992963 16.66238771 76.52929688 18.30151367 C81.49679108 19.30123236 86.4904891 20.05853599 91.5 20.8125 C105.22516808 22.94514238 118.83595851 25.59451012 132.45703125 28.29931641 C135.65703456 28.93217263 138.859014 29.5530331 142.0625 30.16796875 C162.18605529 34.05607082 162.18605529 34.05607082 168.015625 37.02734375 C170.53123875 38.26039065 173.1328383 38.79154183 175.84765625 39.43359375 C179.33516735 40.35135983 182.65461167 41.66451564 186 43 C186.77988281 43.2990625 187.55976563 43.598125 188.36328125 43.90625 C192.37491704 45.57033596 196.19577463 47.58968093 200.0625 49.5625 C202.90820734 51.00157162 202.90820734 51.00157162 205.57421875 52.0234375 C208.11820914 53.04758822 210.42826386 54.27274667 212.8125 55.625 C213.60269531 56.07101563 214.39289063 56.51703125 215.20703125 56.9765625 C215.79871094 57.31429687 216.39039063 57.65203125 217 58 C217 58.66 217 59.32 217 60 C217.72058594 60.25007813 218.44117188 60.50015625 219.18359375 60.7578125 C232.79959616 66.76320607 244.84560006 82.05331286 253 94 C253.56589844 94.70125 254.13179687 95.4025 254.71484375 96.125 C256 98 256 98 256 101 C255.071875 101.14695312 254.14375 101.29390625 253.1875 101.4453125 C222.76011811 105.93541588 222.76011811 105.93541588 193.15625 113.921875 C186.62421384 116.15311507 179.84230723 117.49432094 173.11547852 119.00537109 C162.44390545 121.41118807 151.89047091 124.02495072 141.41137695 127.17089844 C140.60659912 127.41098633 139.80182129 127.65107422 138.97265625 127.8984375 C138.27406494 128.11161621 137.57547363 128.32479492 136.85571289 128.54443359 C135 129 135 129 132 129 C132 129.66 132 130.32 132 131 C130.58074219 131.32871094 130.58074219 131.32871094 129.1328125 131.6640625 C120.54074414 133.70743894 112.18974623 136.14375038 103.85400391 139.06884766 C100.78135192 140.13607433 98.27855883 141 95 141 C95 141.66 95 142.32 95 143 C94.16597656 143.25394531 93.33195312 143.50789062 92.47265625 143.76953125 C91.34730469 144.11371094 90.22195313 144.45789063 89.0625 144.8125 C87.96035156 145.14894531 86.85820312 145.48539063 85.72265625 145.83203125 C78.42954058 148.12021759 71.24450217 150.59193596 64.125 153.375 C62.93849854 153.8383374 62.93849854 153.8383374 61.72802734 154.31103516 C56.79289617 156.25456521 51.92872497 158.29512892 47.125 160.546875 C44.4477542 161.7917943 41.76019039 163.00347942 39.0625 164.203125 C38.16966309 164.60096191 37.27682617 164.99879883 36.35693359 165.40869141 C34.56909996 166.20466881 32.78039499 166.99869271 30.99072266 167.79052734 C26.81798998 169.65525018 22.91263465 171.63148203 19 174 C17.35945556 174.70221051 15.71818805 175.40286363 14.07080078 176.08886719 C9.59276689 178.05915986 5.27550608 180.3672448 0.9375 182.625 C-0.07658936 183.1511792 -1.09067871 183.6773584 -2.13549805 184.21948242 C-9.23408978 187.95097454 -15.95673877 191.99301727 -22.55078125 196.55078125 C-23.35902344 197.02902344 -24.16726563 197.50726563 -25 198 C-25.66 197.67 -26.32 197.34 -27 197 C-21.05069276 191.51672183 -15.09878139 186.04671038 -8.9921875 180.73828125 C1.62644657 171.4730025 11.25232867 162.06877815 20 151 C20.41040527 150.48775879 20.82081055 149.97551758 21.24365234 149.44775391 C37.56137493 129.05845479 48.83373905 107.25543061 47.6875 80.625 C47.65205078 79.53960937 47.61660156 78.45421875 47.58007812 77.3359375 C47.23789086 68.878294 46.73581806 61.19844345 42 54 C41.4121875 52.453125 41.4121875 52.453125 40.8125 50.875 C36.75677262 41.12851379 28.50028947 31.74809125 20.5 24.9375 C16.2014243 21.26030257 12.11783347 17.37875335 8.0625 13.4375 C7.38703125 12.79997803 6.7115625 12.16245605 6.015625 11.50561523 C2.29704488 7.85188306 0.1267719 5.48499745 0 0 Z " fill="#D83537" transform="translate(310,138)"/>
<path d="M0 0 C20.46 0 40.92 0 62 0 C62 0.33 62 0.66 62 1 C60.36804687 1.41958984 60.36804687 1.41958984 58.703125 1.84765625 C38.47488689 7.270182 22.06727811 18.69164986 11.41796875 37.078125 C6.4428479 47.32988918 3.84532502 57.80157724 3.86857224 69.15565586 C3.8665196 70.08474708 3.86446697 71.01383829 3.86235213 71.97108379 C3.85667274 75.10163111 3.85814055 78.23213457 3.85955811 81.36268616 C3.85697501 83.62296504 3.853962 85.88324346 3.8505547 88.14352125 C3.8424749 94.36852343 3.84069459 100.5935141 3.83995724 106.8185209 C3.83829814 112.83842058 3.83198124 118.85831429 3.82587883 124.87821066 C3.80981836 141.00788925 3.80391539 157.1375669 3.79913008 173.26725206 C3.79679407 180.89828019 3.7931914 188.52930757 3.7894347 196.16033511 C3.77659885 222.28390417 3.76587993 248.40747281 3.7624321 274.53104496 C3.76221047 276.17096842 3.76198868 277.81089188 3.76176675 279.45081535 C3.76154611 281.09469457 3.76132562 282.7385738 3.7611053 284.38245302 C3.76066275 287.68034303 3.76021563 290.97823304 3.75976562 294.27612305 C3.75965623 295.09380815 3.75954684 295.91149324 3.75943414 296.75395668 C3.75580395 323.26417006 3.73988551 349.7743561 3.71657526 376.28455901 C3.69197356 404.3147733 3.67825909 432.34497195 3.67706418 460.37519735 C3.67689273 463.45287955 3.6766773 466.53056175 3.67642975 469.60824394 C3.67637398 470.36605198 3.67631821 471.12386001 3.67626075 471.90463193 C3.67511057 484.09490158 3.66409129 496.28514314 3.64954269 508.47540331 C3.63516895 520.73120043 3.63194565 532.98696159 3.63998267 545.24276484 C3.64404339 551.88111149 3.64294601 558.51938378 3.62892532 565.15772438 C3.61620316 571.23684734 3.61736932 577.31580476 3.62951604 583.39492743 C3.63147594 585.59215214 3.6283811 587.78938851 3.61967167 589.98659683 C3.51524375 605.72168111 3.51524375 605.72168111 7 621 C7.56460937 622.68802734 7.56460937 622.68802734 8.140625 624.41015625 C16.22868525 643.74745523 29.56448727 657.70247704 49.01426828 665.85646856 C61.56510523 670.6634231 73.91063641 670.42538756 87.15267944 670.38095093 C89.40122728 670.38441106 91.64977341 670.389178 93.89831603 670.39513266 C100.05388948 670.4076236 106.2093229 670.40148084 112.36489677 670.39217401 C118.32910728 670.38607496 124.29329475 670.39408514 130.25749995 670.4016161 C143.2036664 670.41738554 156.14978834 670.41605513 169.09595899 670.40737936 C180.42681744 670.39982368 191.7576596 670.39786679 203.08852005 670.4014473 C203.84100856 670.40167645 204.59349707 670.40190561 205.36878826 670.40214171 C208.42363885 670.40307577 211.47848944 670.40403098 214.53334002 670.405021 C243.17474661 670.41419242 271.81612491 670.40588679 300.45752713 670.38973031 C325.88283273 670.37549702 351.30809324 670.37676558 376.73339844 670.39111328 C405.32041478 670.40719136 433.90740613 670.41353901 462.49442637 670.40427649 C465.54423371 670.40331439 468.59404106 670.40237587 471.64384842 670.4014473 C472.77020016 670.40109145 472.77020016 670.40109145 473.91930649 670.40072841 C485.23941773 670.39732156 496.55951086 670.40129649 507.8796196 670.40888596 C520.75766134 670.41747705 533.63565174 670.41529105 546.51368712 670.39904372 C553.0815737 670.39102993 559.64938781 670.38805093 566.21727562 670.39799118 C572.23518097 670.40696112 578.25291067 670.40196721 584.27080019 670.38605852 C586.44226398 670.38272044 588.61374275 670.38438275 590.78519683 670.39168589 C611.70685767 670.45662682 629.76464063 668.11802352 647 655 C647.73734375 654.43925781 648.4746875 653.87851562 649.234375 653.30078125 C663.75787176 641.35645719 671.8165832 623.43125311 674 605 C674.51768255 597.6266885 674.40610367 590.22817001 674.38095093 582.84132385 C674.38441248 580.61651138 674.38918038 578.39170063 674.39513266 576.16689342 C674.40760388 570.08617804 674.4014899 564.00560472 674.39217401 557.92488897 C674.38606802 552.03011632 674.39408927 546.13537329 674.4016161 540.24060476 C674.41737411 527.44776829 674.41605977 514.65497691 674.40737936 501.8621362 C674.39982009 490.66600466 674.39786846 479.4698896 674.4014473 468.27375603 C674.40167645 467.5298682 674.40190561 466.78598038 674.40214171 466.0195505 C674.40307579 462.99953546 674.404031 459.97952043 674.405021 456.9595054 C674.41418962 428.65275653 674.40589109 400.34603628 674.38973031 372.03929182 C674.3754959 346.91574626 674.37676711 321.79224633 674.39111328 296.66870117 C674.40719375 268.41383491 674.41353781 240.15899393 674.40427649 211.90412372 C674.4033144 208.88943573 674.40237588 205.87474774 674.4014473 202.86005974 C674.40121006 202.1178179 674.40097283 201.37557607 674.40072841 200.61084206 C674.39732269 189.42515588 674.40129435 178.23948803 674.40888596 167.0538044 C674.41747969 154.32845234 674.41528537 141.60315223 674.39904372 128.87780661 C674.39117558 122.38876031 674.38804463 115.89980644 674.39799118 109.41076088 C674.40696871 103.46381517 674.40195485 97.51704707 674.38605852 91.57011735 C674.38272365 89.42561329 674.38437543 87.28109404 674.39168589 85.13659985 C674.4671349 61.15310153 671.02017249 39.32754834 654.046875 20.96484375 C643.2166759 10.56867935 630.53313326 4.34262065 616 1 C616 0.67 616 0.34 616 0 C635.8 0 655.6 0 676 0 C676 225.39 676 450.78 676 683 C452.92 683 229.84 683 0 683 C0 457.61 0 232.22 0 0 Z " fill="#020202" transform="translate(0,0)"/>
<path d="M0 0 C0.7835083 0.00837891 1.5670166 0.01675781 2.37426758 0.02539062 C11.75893577 0.38741332 18.9868971 3.83373442 25.4375 10.6875 C27.87605989 13.58885228 28.71083056 15.87679802 29.25 19.625 C29.91 19.625 30.57 19.625 31.25 19.625 C33.08290085 25.88315149 33.58595211 31.55688588 33.5625 38.0625 C33.57861328 38.95259766 33.59472656 39.84269531 33.61132812 40.75976562 C33.61583049 46.92349976 32.51415612 51.91243692 30.25 57.625 C29.816875 58.82125 29.38375 60.0175 28.9375 61.25 C26.94968102 65.22563795 24.62993276 68.69958142 21.25 71.625 C20.54746094 71.79257812 19.84492188 71.96015625 19.12109375 72.1328125 C18.50363281 72.29523438 17.88617188 72.45765625 17.25 72.625 C16.755 74.11 16.755 74.11 16.25 75.625 C6.38687048 79.37298922 -5.69761602 79.02806414 -15.37890625 74.95703125 C-23.73845145 70.26081228 -28.50376186 62.37633041 -31.1171875 53.38696289 C-32.1239317 48.99294395 -32.19774884 44.74130554 -32.125 40.25 C-32.11412354 39.3331543 -32.10324707 38.41630859 -32.09204102 37.47167969 C-31.8442466 26.89787117 -30.40584768 18.77133066 -23.6640625 10.3671875 C-21.49327073 8.39132397 -19.5174547 7.5474849 -16.75 6.625 C-16.75 5.965 -16.75 5.305 -16.75 4.625 C-10.95652428 1.3350398 -6.64974158 -0.09790677 0 0 Z " fill="#EDECEC" transform="translate(143.75,484.375)"/>
<path d="M0 0 C0.9075 -0.020625 1.815 -0.04125 2.75 -0.0625 C13.37554642 -0.12374234 22.98361129 3.94586822 30.78125 11.27734375 C33.70602085 14.49579036 35.84027957 16.89044206 36.625 21.25 C37.285 21.25 37.945 21.25 38.625 21.25 C39.615 25.705 39.615 25.705 40.625 30.25 C41.285 30.25 41.945 30.25 42.625 30.25 C45.31353337 48.87301162 45.1011662 66.54298912 33.625 82.25 C28.16148678 88.80168183 22.23308126 93.70099377 13.625 95 C12.635 95.0825 11.645 95.165 10.625 95.25 C10.625 96.24 10.625 97.23 10.625 98.25 C11.19734375 98.48460937 11.7696875 98.71921875 12.359375 98.9609375 C15.15034707 100.54890437 16.78172216 102.44288222 18.875 104.875 C22.49617985 109.01263336 26.24318236 112.92882385 30.19140625 116.75390625 C31.625 118.25 31.625 118.25 31.625 119.25 C17.83309175 120.77303281 17.83309175 120.77303281 12.8046875 117.3046875 C10.54053592 114.72497472 8.57420003 112.07353256 6.625 109.25 C5.33240046 107.73281752 4.02145013 106.23095688 2.6875 104.75 C1.86958984 103.80640625 1.86958984 103.80640625 1.03515625 102.84375 C-2.34102129 99.02801472 -5.06347851 98.67230487 -9.9375 97.9375 C-16.56313204 96.81478658 -21.84157499 95.22118649 -27.375 91.25 C-28.40625 90.528125 -29.4375 89.80625 -30.5 89.0625 C-38.13829624 82.29412084 -43.65145509 72.26646491 -45.375 62.25 C-45.59169746 58.3771247 -45.56012645 54.50337855 -45.5625 50.625 C-45.57474609 49.59503906 -45.58699219 48.56507813 -45.59960938 47.50390625 C-45.61253016 40.65588937 -45.28767441 33.86718235 -43.375 27.25 C-42.715 26.59 -42.055 25.93 -41.375 25.25 C-40.983125 24.21875 -40.59125 23.1875 -40.1875 22.125 C-38.23487217 17.35301668 -34.87652316 13.95368963 -31.375 10.25 C-30.715 9.486875 -30.055 8.72375 -29.375 7.9375 C-26.63909916 5.62908366 -23.69113084 4.55276569 -20.375 3.25 C-19.3540625 2.693125 -19.3540625 2.693125 -18.3125 2.125 C-12.66891492 -0.42371584 -6.07042583 0.03419958 0 0 Z M-18.375 14.25 C-18.375 14.91 -18.375 15.57 -18.375 16.25 C-19.50035156 16.62511719 -19.50035156 16.62511719 -20.6484375 17.0078125 C-26.05191515 19.46956879 -29.14023592 24.45120143 -31.48828125 29.7734375 C-33.48381857 36.37478843 -33.66879779 43.02995464 -33.75 49.875 C-33.76409912 50.74543945 -33.77819824 51.61587891 -33.79272461 52.51269531 C-33.70436231 64.37337704 -29.929688 72.27803743 -21.90234375 80.81640625 C-14.80956739 87.43501371 -6.25166261 87.72246216 3.00390625 87.5546875 C7.67155847 87.16194006 11.32210366 86.06174583 15.625 84.25 C15.625 83.59 15.625 82.93 15.625 82.25 C16.32625 82.064375 17.0275 81.87875 17.75 81.6875 C24.41414363 78.35542818 27.3123487 72.41759373 29.86328125 65.6796875 C31.72559792 59.73937483 31.80819289 54.1095936 31.8125 47.9375 C31.82474609 47.02548828 31.83699219 46.11347656 31.84960938 45.17382812 C31.86178369 39.51277033 31.2356755 34.6804593 29.625 29.25 C28.965 29.25 28.305 29.25 27.625 29.25 C27.47417969 28.13818359 27.47417969 28.13818359 27.3203125 27.00390625 C26.02367014 21.86832838 22.01236065 17.97476691 17.78125 14.91796875 C16.11126174 13.94014667 14.36861791 13.08951974 12.625 12.25 C11.91214844 11.89421875 11.19929688 11.5384375 10.46484375 11.171875 C6.54858749 9.9005731 2.90542447 9.88175958 -1.1875 9.875 C-1.95642578 9.85050781 -2.72535156 9.82601563 -3.51757812 9.80078125 C-9.47236428 9.77063043 -13.22535158 11.27882315 -18.375 14.25 Z " fill="#0A0A0A" transform="translate(145.375,474.75)"/>
<path d="M0 0 C6.39938713 4.96279002 11.19256149 10.34526403 13.0625 18.375 C13.0625 23.985 13.0625 29.595 13.0625 35.375 C-2.4475 35.375 -17.9575 35.375 -33.9375 35.375 C-31.60492768 48.03141089 -31.60492768 48.03141089 -23.74609375 55.98828125 C-18.11842158 58.76689547 -11.07106294 58.37022429 -4.9375 57.375 C-1.44146365 56.08225344 1.59726709 54.57524607 4.8046875 52.6875 C7.0625 51.375 7.0625 51.375 9.0625 51.375 C9.0625 55.005 9.0625 58.635 9.0625 62.375 C7.16917466 63.19332722 5.27272267 64.00442268 3.375 64.8125 C2.31925781 65.26496094 1.26351562 65.71742188 0.17578125 66.18359375 C-8.8366882 69.63253124 -19.89355926 69.82031076 -28.9375 66.375 C-28.9375 65.715 -28.9375 65.055 -28.9375 64.375 C-29.63875 64.354375 -30.34 64.33375 -31.0625 64.3125 C-37.79351021 62.11760537 -40.92867346 54.95871046 -43.95703125 49 C-47.35678178 39.89787906 -47.77281762 26.27375145 -44.87890625 16.97265625 C-40.32878896 8.1806952 -32.75638282 -0.12961186 -23.1015625 -3.2109375 C-14.94286788 -4.77198737 -7.2407872 -4.00554186 0 0 Z " fill="#0C0C0C" transform="translate(384.9375,504.625)"/>
<path d="M0 0 C1.24910156 0.01450195 1.24910156 0.01450195 2.5234375 0.02929688 C6.58335265 0.10364245 10.41643233 0.31881873 14.375 1.3125 C14.375 1.9725 14.375 2.6325 14.375 3.3125 C15.25478516 3.70308594 15.25478516 3.70308594 16.15234375 4.1015625 C21.02285751 6.75509372 24.40830546 10.94308436 26.4921875 16.05078125 C28.65234947 23.81707787 28.375 29.96611052 28.375 38.3125 C12.535 38.3125 -3.305 38.3125 -19.625 38.3125 C-16.42223244 50.38683673 -16.42223244 50.38683673 -8.41015625 59 C-4.89525808 60.6563896 -1.75160772 60.84496433 2.0625 60.8125 C2.76785889 60.81185547 3.47321777 60.81121094 4.19995117 60.81054688 C9.70036823 60.65463152 13.73916847 59.32953847 18.45703125 56.40625 C20.375 55.3125 20.375 55.3125 23.375 55.3125 C23.375 58.6125 23.375 61.9125 23.375 65.3125 C21.67105107 66.13415509 19.96160102 66.94440645 18.25 67.75 C17.29867187 68.20246094 16.34734375 68.65492188 15.3671875 69.12109375 C7.335654 72.31902811 -3.72719926 72.92552881 -12 70.25 C-20.65364279 66.24745858 -24.94968835 59.81700021 -28.625 51.3125 C-28.96813232 50.70301514 -29.31126465 50.09353027 -29.66479492 49.46557617 C-33.32070691 41.26789302 -31.75538012 26.65632957 -28.6875 18.5 C-22.69113818 6.72810554 -13.14500834 -0.4621292 0 0 Z " fill="#090909" transform="translate(544.625,501.6875)"/>
<path d="M0 0 C1.52947266 -0.01160156 1.52947266 -0.01160156 3.08984375 -0.0234375 C4.57677734 -0.01957031 4.57677734 -0.01957031 6.09375 -0.015625 C7.43469727 -0.01224121 7.43469727 -0.01224121 8.80273438 -0.00878906 C11.5 0.25 11.5 0.25 17.5 2.25 C17.5 6.54 17.5 10.83 17.5 15.25 C8.75 12.375 8.75 12.375 6.5 11.25 C3.88139265 11.09887061 1.30709118 11.01866138 -1.3125 11 C-2.02470703 10.979375 -2.73691406 10.95875 -3.47070312 10.9375 C-9.44877499 10.89325895 -12.45526388 12.42631643 -16.8125 16.3125 C-19.31409838 20.66713421 -19.43758495 24.35205621 -18.5 29.25 C-15.09471349 37.41376548 -6.75048754 41.03898238 0.5 45.25 C18.0046561 56.22925176 18.0046561 56.22925176 20.5 64.25 C21.24207812 72.43874575 22.03180463 81.55449256 16.5 88.25 C14.58131922 90.2323105 12.78940257 91.65737212 10.5 93.25 C9.84 93.25 9.18 93.25 8.5 93.25 C8.005 94.735 8.005 94.735 7.5 96.25 C-2.02271062 99.36950865 -12.72552337 99.12681963 -22.5 97.25 C-22.5 96.59 -22.5 95.93 -22.5 95.25 C-25.47 94.59 -28.44 93.93 -31.5 93.25 C-31.5 88.96 -31.5 84.67 -31.5 80.25 C-30.18 80.91 -28.86 81.57 -27.5 82.25 C-25.2605683 82.99106798 -23.00938128 83.69718562 -20.75 84.375 C-19.57953125 84.72820312 -18.4090625 85.08140625 -17.203125 85.4453125 C-16.31109375 85.71085938 -15.4190625 85.97640625 -14.5 86.25 C-14.5 86.91 -14.5 87.57 -14.5 88.25 C-11.89337756 87.99503693 -9.29094478 87.72179707 -6.6875 87.4375 C-5.94951172 87.36724609 -5.21152344 87.29699219 -4.45117188 87.22460938 C-0.20349842 86.79515207 -0.20349842 86.79515207 3.38671875 84.67578125 C3.75410156 84.20527344 4.12148437 83.73476563 4.5 83.25 C5.16 83.25 5.82 83.25 6.5 83.25 C8.22648146 80.01284726 8.77950628 76.99109694 9 73.375 C9.0515625 72.57320312 9.103125 71.77140625 9.15625 70.9453125 C7.35789203 63.55919942 0.52856588 59.67329782 -5.5546875 55.90234375 C-7.01261719 55.02255859 -7.01261719 55.02255859 -8.5 54.125 C-29.07588587 41.54478331 -29.07588587 41.54478331 -31.109375 33.984375 C-32.16860649 26.56975456 -33.13227253 18.83475948 -29 12.25 C-21.01627359 2.13853518 -12.4538487 -0.09446661 0 0 Z " fill="#0A0A0A" transform="translate(69.5,474.75)"/>
<path d="M0 0 C1.02802734 -0.00773437 2.05605469 -0.01546875 3.11523438 -0.0234375 C4.10974609 -0.02085937 5.10425781 -0.01828125 6.12890625 -0.015625 C7.02810791 -0.01336914 7.92730957 -0.01111328 8.85375977 -0.00878906 C11.97187603 0.30352344 15.15219898 0.96469898 17.4375 3.25 C17.50994053 5.26964199 17.52127188 7.29167124 17.5 9.3125 C17.49097656 10.41722656 17.48195313 11.52195312 17.47265625 12.66015625 C17.46105469 13.51480469 17.44945312 14.36945313 17.4375 15.25 C15.4575 14.59 13.4775 13.93 11.4375 13.25 C11.4375 12.59 11.4375 11.93 11.4375 11.25 C-1.46068915 9.29774921 -1.46068915 9.29774921 -13.5625 13.25 C-16.3756374 15.76386747 -18.22603444 17.62965268 -19.0078125 21.39453125 C-19.28246152 26.76849712 -18.09134211 31.09604872 -14.5625 35.25 C-10.68673563 38.95047854 -6.18073108 41.49218036 -1.50683594 44.0612793 C7.60093647 49.07348738 16.39527209 54.84084257 21.4375 64.25 C21.93600608 67.14866829 21.90924928 69.94196931 21.8125 72.875 C21.81121094 73.62523437 21.80992187 74.37546875 21.80859375 75.1484375 C21.74761884 78.96953155 21.57838607 82.01298027 19.4375 85.25 C18.7775 85.25 18.1175 85.25 17.4375 85.25 C17.04304688 86.14332031 17.04304688 86.14332031 16.640625 87.0546875 C14.21648533 91.47795533 10.13879154 94.45606395 5.625 96.5625 C1.23932445 97.50843002 -3.08852437 97.96399243 -7.5625 98.25 C-8.29597656 98.30414062 -9.02945312 98.35828125 -9.78515625 98.4140625 C-17.20226265 98.71020831 -25.33891603 97.39905598 -31.5625 93.25 C-31.85546875 89.9921875 -31.85546875 89.9921875 -31.75 86.125 C-31.72292969 84.84367188 -31.69585937 83.56234375 -31.66796875 82.2421875 C-31.61576172 80.76105469 -31.61576172 80.76105469 -31.5625 79.25 C-30.9025 79.25 -30.2425 79.25 -29.5625 79.25 C-29.5625 79.91 -29.5625 80.57 -29.5625 81.25 C-28.82644531 81.53617188 -28.09039062 81.82234375 -27.33203125 82.1171875 C-24.5625 83.25 -24.5625 83.25 -22.44921875 84.3203125 C-14.60483504 88.08227271 -7.04953148 87.62907337 1.4375 87.25 C1.4375 86.59 1.4375 85.93 1.4375 85.25 C3.40472008 83.86876037 5.40618328 82.53511874 7.4375 81.25 C9.21197243 79.47552757 8.81675289 77.09942344 8.9375 74.6875 C8.82635908 69.150067 8.06248361 66.17029625 4.125 62.265625 C-0.28717531 58.95649352 -5.03966576 56.22538425 -9.87084961 53.57373047 C-10.60311768 53.17041504 -11.33538574 52.76709961 -12.08984375 52.3515625 C-12.75749756 51.99400879 -13.42515137 51.63645508 -14.11303711 51.26806641 C-14.59135986 50.93210449 -15.06968262 50.59614258 -15.5625 50.25 C-15.5625 49.59 -15.5625 48.93 -15.5625 48.25 C-16.30242187 48.00636719 -17.04234375 47.76273438 -17.8046875 47.51171875 C-23.57500478 44.87175773 -27.35192798 39.2550099 -30.5625 33.9375 C-32.20119627 27.89480752 -32.55916567 21.23999701 -30.5625 15.25 C-29.9025 15.25 -29.2425 15.25 -28.5625 15.25 C-28.48 14.693125 -28.3975 14.13625 -28.3125 13.5625 C-26.52994093 8.0662762 -22.40181899 5.05680501 -17.5625 2.25 C-11.81908487 -0.29960451 -6.16361984 -0.04654716 0 0 Z " fill="#0A0A0A" transform="translate(309.5625,474.75)"/>
<path d="M0 0 C3.49629054 0.55248434 5.98135605 1.3545905 8.93359375 3.30078125 C9.65820801 3.77741211 10.38282227 4.25404297 11.12939453 4.74511719 C11.89106934 5.26235352 12.65274414 5.77958984 13.4375 6.3125 C14.2301123 6.84649414 15.02272461 7.38048828 15.83935547 7.93066406 C26.13887977 14.99567832 37.00533655 23.31702253 45 33 C45 33.66 45 34.32 45 35 C44.37883301 35.06993164 43.75766602 35.13986328 43.11767578 35.21191406 C30.75872201 36.61649459 18.42570666 38.14889671 6.125 40 C5.07586426 40.1537207 4.02672852 40.30744141 2.94580078 40.46582031 C-3.02334106 41.38502819 -8.7317565 42.64215526 -14.51342773 44.39575195 C-18.40777942 45.34209662 -22.0111633 45.1961723 -26 45 C-26 45.66 -26 46.32 -26 47 C-30.455 47.495 -30.455 47.495 -35 48 C-35 47.34 -35 46.68 -35 46 C-33.63671875 44.6953125 -33.63671875 44.6953125 -31.6875 43.125 C-17.49920565 30.91007758 -8.92884517 16.21365659 0 0 Z " fill="#EFEBEB" transform="translate(514,201)"/>
<path d="M0 0 C3.96 0 7.92 0 12 0 C12 28.05 12 56.1 12 85 C24.54 85 37.08 85 50 85 C50 88.63 50 92.26 50 96 C33.5 96 17 96 0 96 C0 64.32 0 32.64 0 0 Z " fill="#111111" transform="translate(203,476)"/>
<path d="M0 0 C3.63 0 7.26 0 11 0 C14 6.625 14 6.625 14 10 C14.66 10 15.32 10 16 10 C16.18175781 10.6290625 16.36351562 11.258125 16.55078125 11.90625 C17.92056797 16.57054941 19.37605868 21.15066055 21.12109375 25.69140625 C24.79594394 35.34401274 28.05667729 45.10122753 31 55 C33.46622951 47.69227895 35.90613491 40.3876167 38.125 33 C39.48967508 28.51294834 41.09350924 24.2896042 43 20 C44.74760734 15.36161359 46.43254002 10.70237995 48 6 C48.66 6 49.32 6 50 6 C50.33 4.02 50.66 2.04 51 0 C54.63 0 58.26 0 62 0 C60.54666467 6.36993781 59.15876504 12.23182036 56 18 C55.32060826 19.99571323 54.65438441 21.99594773 54 24 C53.2265625 25.794375 53.2265625 25.794375 52.4375 27.625 C51.36696546 30.13842892 50.53145508 32.3427246 50 35 C49.34 35 48.68 35 48 35 C47.34 38.3 46.68 41.6 46 45 C45.34 45 44.68 45 44 45 C43.773125 46.258125 43.54625 47.51625 43.3125 48.8125 C42.23246656 53.75091377 40.3021389 58.07388276 38.12109375 62.6171875 C36.91441378 65.06052642 36.91441378 65.06052642 36 68 C32.37 68 28.74 68 25 68 C24.67386719 67.20335937 24.34773438 66.40671875 24.01171875 65.5859375 C21.36405555 59.12168885 21.36405555 59.12168885 18.375 52.8125 C16.89288176 49.78089452 15.9073058 46.7590629 14.8828125 43.55078125 C13.88193697 40.65887098 12.70584169 37.87492718 11.5 35.0625 C9.59624362 30.57872751 8.07872836 26.13387263 6.75 21.453125 C5.24281435 16.52337194 3.42677837 11.51550471 0.87890625 7.0234375 C0 5 0 5 0 0 Z " fill="#0D0D0D" transform="translate(449,503)"/>
<path d="M0 0 C-1.75356593 3.97015207 -4.30812494 7.34264777 -6.875 10.8125 C-7.3596875 11.47048584 -7.844375 12.12847168 -8.34375 12.80639648 C-13.22264214 19.38117277 -18.34212681 25.75284935 -23.48730469 32.11962891 C-26.05556958 35.31213636 -28.59202444 38.52946641 -31.125 41.75 C-31.58648437 42.33467041 -32.04796875 42.91934082 -32.5234375 43.52172852 C-34.44536503 45.96719315 -36.27350212 48.41025318 -38 51 C-41.36125397 49.59464813 -42.91798319 48.08536765 -45 45.125 C-48.11412661 40.96382431 -51.5133487 37.2846422 -55.1875 33.625 C-55.69861328 33.11340332 -56.20972656 32.60180664 -56.73632812 32.07470703 C-58.85800398 29.98284558 -60.95515632 28.03276183 -63.36328125 26.2734375 C-63.90339844 25.85320312 -64.44351562 25.43296875 -65 25 C-65 24.34 -65 23.68 -65 23 C-58.80409484 19.65530783 -52.65450109 17.09647221 -45.9453125 14.96875 C-42.46525909 13.82411705 -39.11020078 12.46460949 -35.7421875 11.02734375 C-33.29075618 10.10893002 -30.85771755 9.34725177 -28.34765625 8.609375 C-22.1031007 6.76780931 -16.00355566 4.55991405 -9.88476562 2.34179688 C-8.61342773 1.88836914 -8.61342773 1.88836914 -7.31640625 1.42578125 C-6.55787354 1.15161377 -5.79934082 0.87744629 -5.01782227 0.5949707 C-3 0 -3 0 0 0 Z " fill="#EFE9EA" transform="translate(510,199)"/>
<path d="M0 0 C1.17949219 0.01804687 2.35898437 0.03609375 3.57421875 0.0546875 C4.92966797 0.08949219 4.92966797 0.08949219 6.3125 0.125 C6.3125 3.755 6.3125 7.385 6.3125 11.125 C5.44367187 11.06699219 4.57484375 11.00898437 3.6796875 10.94921875 C-3.67644882 10.37870025 -3.67644882 10.37870025 -10.25 13.0625 C-15.90129838 20.16284924 -17.285188 26.92649883 -17.296875 35.84765625 C-17.31341125 36.83374374 -17.32994751 37.81983124 -17.34698486 38.83580017 C-17.39516477 41.9530987 -17.4167691 45.06991049 -17.4375 48.1875 C-17.46568476 50.31447722 -17.49561565 52.44143206 -17.52734375 54.56835938 C-17.6009157 59.75386613 -17.65067334 64.9391074 -17.6875 70.125 C-19.49992052 70.15187279 -21.31245233 70.17133715 -23.125 70.1875 C-24.13433594 70.19910156 -25.14367187 70.21070313 -26.18359375 70.22265625 C-28.6875 70.125 -28.6875 70.125 -29.6875 69.125 C-29.7817174 67.00818683 -29.80492761 64.88819242 -29.80102539 62.76928711 C-29.80117142 62.10589828 -29.80131744 61.44250946 -29.8014679 60.75901794 C-29.80076881 58.55676044 -29.79297665 56.35458655 -29.78515625 54.15234375 C-29.78329206 52.62919664 -29.78186816 51.10604893 -29.78086853 49.582901 C-29.77704346 45.56662349 -29.76721328 41.55038192 -29.75616455 37.53411865 C-29.74595019 33.43876634 -29.74137086 29.34340824 -29.73632812 25.24804688 C-29.725591 17.20701472 -29.70851472 9.16601183 -29.6875 1.125 C-25.7275 1.125 -21.7675 1.125 -17.6875 1.125 C-17.3575 4.095 -17.0275 7.065 -16.6875 10.125 C-16.21699219 9.57070313 -15.74648438 9.01640625 -15.26171875 8.4453125 C-14.63910156 7.72085937 -14.01648438 6.99640625 -13.375 6.25 C-12.76011719 5.53070313 -12.14523437 4.81140625 -11.51171875 4.0703125 C-7.76900129 0.07914912 -5.2869275 -0.10469163 0 0 Z " fill="#040404" transform="translate(613.6875,501.875)"/>
<path d="M0 0 C8.3904428 3.52398598 15.01984903 9.28660916 22 15 C23.21623047 15.98033203 23.21623047 15.98033203 24.45703125 16.98046875 C26.0168404 18.26707304 27.5183149 19.62414955 29 21 C29 21.66 29 22.32 29 23 C28.38253906 23.18175781 27.76507813 23.36351562 27.12890625 23.55078125 C25.85853516 23.92783203 25.85853516 23.92783203 24.5625 24.3125 C23.73878906 24.55613281 22.91507812 24.79976562 22.06640625 25.05078125 C19.61075892 25.81093705 17.17490467 26.60407861 14.73828125 27.421875 C10.05373003 28.99282133 5.34234969 30.46863621 0.625 31.9375 C-4.64025333 33.58034067 -9.84999466 35.26865789 -15 37.25 C-20.21873883 39.21624383 -25.4949772 40.190751 -31 41 C-31 41.66 -31 42.32 -31 43 C-34.465 43.495 -34.465 43.495 -38 44 C-33.8184651 38.93814197 -29.36344007 34.30357822 -24.66015625 29.72265625 C-18.48121091 23.39853745 -13.00660881 16.56777117 -7.625 9.5625 C-6.38857414 7.95920856 -5.15162403 6.35632124 -3.9140625 4.75390625 C-3.3773291 4.05595947 -2.8405957 3.3580127 -2.28759766 2.63891602 C-1 1 -1 1 0 0 Z " fill="#F1E7E7" transform="translate(435,230)"/>
<path d="M0 0 C1.08410156 -0.00257813 2.16820312 -0.00515625 3.28515625 -0.0078125 C5.9375 0.125 5.9375 0.125 6.9375 1.125 C7.00976502 2.97787502 7.0213122 4.83333878 7 6.6875 C6.99097656 7.69941406 6.98195313 8.71132813 6.97265625 9.75390625 C6.96105469 10.53636719 6.94945312 11.31882812 6.9375 12.125 C6.1125 11.96 5.2875 11.795 4.4375 11.625 C-2.9439611 10.46155541 -2.9439611 10.46155541 -9.875 12.75 C-12.31810812 15.40251739 -13.64468606 17.81676747 -15.0625 21.125 C-15.58529541 22.15113403 -15.58529541 22.15113403 -16.11865234 23.19799805 C-17.49186153 27.45650941 -17.42037352 31.56980002 -17.4765625 36.01953125 C-17.49592865 36.96688644 -17.5152948 37.91424164 -17.5352478 38.89030457 C-17.59486371 41.90594577 -17.64135705 44.92162552 -17.6875 47.9375 C-17.72569633 49.98634446 -17.76474902 52.03517314 -17.8046875 54.08398438 C-17.90055053 59.09752762 -17.98464807 64.11114603 -18.0625 69.125 C-21.6925 69.125 -25.3225 69.125 -29.0625 69.125 C-29.0625 46.685 -29.0625 24.245 -29.0625 1.125 C-25.4325 1.125 -21.8025 1.125 -18.0625 1.125 C-18.0625 4.755 -18.0625 8.385 -18.0625 12.125 C-17.4025 12.125 -16.7425 12.125 -16.0625 12.125 C-16.041875 11.42375 -16.02125 10.7225 -16 10 C-14.61655081 5.75742249 -11.59529256 3.70320427 -8.0625 1.125 C-5.31744537 -0.24752731 -3.05922588 -0.00729255 0 0 Z " fill="#080808" transform="translate(439.0625,501.875)"/>
<path d="M0 0 C2.97 0.33 5.94 0.66 9 1 C9 1.66 9 2.32 9 3 C12.3 3.33 15.6 3.66 19 4 C19 4.66 19 5.32 19 6 C19.99 6.12375 20.98 6.2475 22 6.375 C26.08880024 6.95194727 30.00861887 7.94963654 34 9 C34 9.66 34 10.32 34 11 C35.7325 11.12375 35.7325 11.12375 37.5 11.25 C42.22127498 11.81486683 45.9106739 13.66168853 50 16 C50 16.66 50 17.32 50 18 C47.50145233 18.65192688 45.0013863 19.29663064 42.5 19.9375 C41.80390625 20.11990234 41.1078125 20.30230469 40.390625 20.49023438 C35.60162506 21.70965566 30.91462529 22.47422365 26 23 C26 23.66 26 24.32 26 25 C25.35675781 25.17015625 24.71351563 25.3403125 24.05078125 25.515625 C21.0287259 26.32610489 18.01356974 27.158502 15 28 C13.91976563 28.30164063 12.83953125 28.60328125 11.7265625 28.9140625 C5.42685592 30.75459435 -0.30217706 32.91051192 -6.07421875 36.046875 C-8 37 -8 37 -10 37 C-9.56929933 34.07123546 -8.94188481 31.88633825 -7.5859375 29.234375 C-3.1449303 20.17734555 -1.38126599 9.92330569 0 0 Z " fill="#EFE9E9" transform="translate(454,178)"/>
<path d="M0 0 C0.36103536 1.81114432 0.71365504 3.62396823 1.0625 5.4375 C1.25972656 6.44683594 1.45695312 7.45617187 1.66015625 8.49609375 C1.82837891 9.73552734 1.82837891 9.73552734 2 11 C1.67 11.33 1.34 11.66 1 12 C1.08984301 13.85772162 1.24611861 15.71247985 1.4375 17.5625 C1.59025391 19.08037109 1.59025391 19.08037109 1.74609375 20.62890625 C1.87177734 21.80259766 1.87177734 21.80259766 2 23 C1.34 22.67 0.68 22.34 0 22 C-0.64259881 19.52982661 -1.16873874 17.12978118 -1.625 14.625 C-1.82609375 13.59632812 -1.82609375 13.59632812 -2.03125 12.546875 C-2.58338211 9.65099843 -3 6.95439007 -3 4 C-4.58468677 4.45363171 -6.16769924 4.91311452 -7.75 5.375 C-8.63171875 5.63023438 -9.5134375 5.88546875 -10.421875 6.1484375 C-12.97862332 6.91878431 -12.97862332 6.91878431 -15.140625 8.1015625 C-17 9 -17 9 -20 9 C-20 9.66 -20 10.32 -20 11 C-21.43554025 11.50559908 -22.8735202 12.0042749 -24.3125 12.5 C-25.11300781 12.7784375 -25.91351563 13.056875 -26.73828125 13.34375 C-29 14 -29 14 -32 14 C-32 14.66 -32 15.32 -32 16 C-33.95585325 17.00484204 -35.91476237 18.00373805 -37.875 19 C-38.96554687 19.556875 -40.05609375 20.11375 -41.1796875 20.6875 C-44 22 -44 22 -46 22 C-46 23.32 -46 24.64 -46 26 C-45.01 26.66 -44.02 27.32 -43 28 C-44.32 28 -45.64 28 -47 28 C-37.8863058 38.96115941 -37.8863058 38.96115941 -27 48 C-27 48.66 -27 49.32 -27 50 C-36.960258 49.22457052 -46.50305948 47.60620792 -56.1875 45.125 C-57.16662354 44.88056152 -58.14574707 44.63612305 -59.15454102 44.38427734 C-65.82404202 42.61073747 -71.0269331 40.95960035 -75 35 C-66.60473742 26.8090469 -54.513872 16 -42 16 C-42 15.34 -42 14.68 -42 14 C-41.46109131 13.80365967 -40.92218262 13.60731934 -40.36694336 13.4050293 C-37.88972109 12.50120305 -35.41360862 11.5943725 -32.9375 10.6875 C-32.08994141 10.37876953 -31.24238281 10.07003906 -30.36914062 9.75195312 C-26.57665492 8.36088694 -22.81257107 6.95156444 -19.109375 5.3359375 C-15.79462918 3.91176279 -12.46770047 2.98142466 -9 2 C-7.948125 1.443125 -7.948125 1.443125 -6.875 0.875 C-4.49652525 -0.23495488 -2.59716828 -0.05960714 0 0 Z " fill="#9C9FA4" transform="translate(385,102)"/>
<path d="M0 0 C-0.33 2.97 -0.66 5.94 -1 9 C-1.66 9 -2.32 9 -3 9 C-3.12737549 9.91531494 -3.12737549 9.91531494 -3.25732422 10.84912109 C-4.37756301 17.61070114 -6.64302764 22.76319219 -10.125 28.625 C-10.59292969 29.43839844 -11.06085938 30.25179687 -11.54296875 31.08984375 C-12.68302862 33.06749863 -13.83520191 35.03684995 -15 37 C-16.98 36.67 -18.96 36.34 -21 36 C-21 35.34 -21 34.68 -21 34 C-21.763125 33.855625 -22.52625 33.71125 -23.3125 33.5625 C-26 33 -26 33 -29 32 C-29 31.34 -29 30.68 -29 30 C-29.70125 29.896875 -30.4025 29.79375 -31.125 29.6875 C-34.39137647 28.90640997 -37.0471852 27.57941257 -40 26 C-39.63531009 23.4067656 -39.2930213 22.2600274 -37.30444336 20.49536133 C-36.57362549 20.0289624 -35.84280762 19.56256348 -35.08984375 19.08203125 C-34.27185303 18.55375732 -33.4538623 18.0254834 -32.61108398 17.48120117 C-31.72880127 16.93052979 -30.84651855 16.3798584 -29.9375 15.8125 C-29.04168213 15.24313721 -28.14586426 14.67377441 -27.22290039 14.0871582 C-21.53161247 10.50065295 -15.78027689 7.02163004 -9.9375 3.6875 C-8.94834595 3.11962769 -8.94834595 3.11962769 -7.93920898 2.5402832 C-5.07945278 0.94976797 -3.32638236 0 0 0 Z " fill="#F0E7E8" transform="translate(450,178)"/>
<path d="M0 0 C0.64324219 0.12117187 1.28648437 0.24234375 1.94921875 0.3671875 C7.16386746 1.33424076 12.37868407 2.22139481 17.625 3 C26.90391256 4.40987011 35.90803735 6.69239527 45 9 C40.69527722 12.56677031 36.8251057 15.38076771 31.5 17.1875 C24.01523388 19.86266356 17.22967289 24.77622762 10.7265625 29.25390625 C8 31 8 31 6 31 C5.96132813 29.83597656 5.96132813 29.83597656 5.921875 28.6484375 C5.46569384 19.96025987 3.59005418 12.27738147 1 4 C0.65395977 2.66990788 0.31405505 1.33800535 0 0 Z " fill="#F0E8E9" transform="translate(397,166)"/>
<path d="M0 0 C2.76983244 7.50904592 3.38502924 14.16305217 3.1875 22.125 C3.16719727 23.7028125 3.16719727 23.7028125 3.14648438 25.3125 C3.11153356 27.87555954 3.06247682 30.43748913 3 33 C-0.465 32.505 -0.465 32.505 -4 32 C-4 31.34 -4 30.68 -4 30 C-5.175625 29.9175 -6.35125 29.835 -7.5625 29.75 C-12.13084551 29.2383453 -16.55020383 28.25426621 -21 27.125 C-21.6710376 26.96354492 -22.3420752 26.80208984 -23.03344727 26.63574219 C-24.9375 26.1328125 -24.9375 26.1328125 -28 25 C-28.33 24.01 -28.66 23.02 -29 22 C-28.52691406 21.5875 -28.05382812 21.175 -27.56640625 20.75 C-26.90511719 20.1725 -26.24382812 19.595 -25.5625 19 C-24.8303125 18.360625 -24.098125 17.72125 -23.34375 17.0625 C-21.8150382 15.71723362 -20.29379365 14.36341963 -18.78125 13 C-4.359375 0 -4.359375 0 0 0 Z " fill="#F0E3E3" transform="translate(394,166)"/>
<path d="M0 0 C4.842541 1.93873972 7.73404487 5.48291136 10.37109375 9.86328125 C11 12 11 12 11 20 C-0.88 20 -12.76 20 -25 20 C-23.87124932 9.84124386 -23.87124932 9.84124386 -20.75 6.625 C-20.16734375 5.99851562 -19.5846875 5.37203125 -18.984375 4.7265625 C-13.00650144 -0.47465819 -7.73114723 -1.07661865 0 0 Z " fill="#EBEAEA" transform="translate(551,511)"/>
<path d="M0 0 C1.98 0 3.96 0 6 0 C6 0.99 6 1.98 6 3 C6.66 3 7.32 3 8 3 C8.66 5.97 9.32 8.94 10 12 C10.66 12 11.32 12 12 12 C12.83764268 13.95649397 13.66999059 15.91525556 14.5 17.875 C14.9640625 18.96554687 15.428125 20.05609375 15.90625 21.1796875 C17 24 17 24 17 26 C17.66 26 18.32 26 19 26 C19.0825 25.34 19.165 24.68 19.25 24 C20.07096836 20.71612658 21.38747431 18.12162769 22.9453125 15.13671875 C24.56850208 11.8482569 25.76724238 8.45172133 27 5 C27.66 5 28.32 5 29 5 C29.33 3.68 29.66 2.36 30 1 C31.65 1 33.3 1 35 1 C35 12.55 35 24.1 35 36 C33.68 36 32.36 36 31 36 C31 28.08 31 20.16 31 12 C27.82277532 15.17722468 27.03820909 17.08898422 25.5625 21.25 C23.7452218 26.17867877 21.78906036 30.55816314 19 35 C17.515 34.505 17.515 34.505 16 34 C16 33.01 16 32.02 16 31 C15.34 31 14.68 31 14 31 C13.67386719 30.20335937 13.34773438 29.40671875 13.01171875 28.5859375 C12.57472656 27.52632813 12.13773438 26.46671875 11.6875 25.375 C11.25824219 24.33085937 10.82898437 23.28671875 10.38671875 22.2109375 C9.03840145 19.0889183 7.52085262 16.04170524 6 13 C5.67 20.26 5.34 27.52 5 35 C3.35 35 1.7 35 0 35 C0 23.45 0 11.9 0 0 Z " fill="#292929" transform="translate(42,430)"/>
<path d="M0 0 C1.80404297 -0.02513672 1.80404297 -0.02513672 3.64453125 -0.05078125 C7.52075504 0.34667058 9.88832028 1.27083371 13.1875 3.3125 C17.60355821 9.04144038 18.1875 11.87257415 18.1875 19.3125 C6.3075 19.3125 -5.5725 19.3125 -17.8125 19.3125 C-16.68432663 10.287113 -16.68432663 10.287113 -13.4375 6.4375 C-12.83164062 5.69757812 -12.22578125 4.95765625 -11.6015625 4.1953125 C-7.86341777 0.26128246 -5.25853122 0.01680042 0 0 Z " fill="#E3E2E2" transform="translate(368.8125,511.6875)"/>
<path d="M0 0 C-1.68343112 3.70894986 -3.95006509 6.95169886 -6.3125 10.25 C-6.74401367 10.85408691 -7.17552734 11.45817383 -7.62011719 12.08056641 C-11.66004404 17.66148159 -15.96626511 23.00964599 -20.35668945 28.31738281 C-20.87320068 28.94225586 -21.38971191 29.56712891 -21.921875 30.2109375 C-22.42783203 30.82291992 -22.93378906 31.43490234 -23.45507812 32.06542969 C-25.6449695 34.8076388 -27.68354628 37.65493147 -29.71191406 40.51806641 C-30.13698242 41.00710449 -30.56205078 41.49614258 -31 42 C-31.66 42 -32.32 42 -33 42 C-33.03867187 41.07380859 -33.03867187 41.07380859 -33.078125 40.12890625 C-33.46092685 34.41297856 -34.51456391 30.14737046 -37.2578125 25.10546875 C-38.27053832 22.2325255 -38.12153565 20.83524211 -37 18 C-34.453125 16.05078125 -34.453125 16.05078125 -31.25 14.3125 C-29.67992187 13.44044922 -29.67992187 13.44044922 -28.078125 12.55078125 C-25 11 -25 11 -22.34765625 9.94140625 C-20.07619589 9.03055442 -18.22401085 7.97124086 -16.1875 6.625 C-5.78801929 0 -5.78801929 0 0 0 Z " fill="#F1E6E5" transform="translate(422,234)"/>
<path d="M0 0 C0 0.66 0 1.32 0 2 C0.61875 2.268125 1.2375 2.53625 1.875 2.8125 C4 4 4 4 6 7 C6.23046875 9.375 6.23046875 9.375 6.1875 12 C6.18105469 12.86625 6.17460937 13.7325 6.16796875 14.625 C6 17 6 17 5 20 C4.34 20 3.68 20 3 20 C2.731875 20.61875 2.46375 21.2375 2.1875 21.875 C1 24 1 24 -2 26 C-6.14591987 26.74212679 -10.30018097 27.07768526 -13.953125 24.76171875 C-17.65345972 21.14221659 -18.90252273 18.4865283 -19.25 13.1875 C-19.18294591 9.13445254 -18.30073322 6.41143202 -16 3 C-11.50331852 -1.21563889 -5.77533459 -0.27308938 0 0 Z " fill="#262626" transform="translate(153,440)"/>
<path d="M0 0 C3.91288936 0.84409679 6.52891077 3.5432161 9.13671875 6.4609375 C10.98127636 10.15005273 10.4873484 14.42550895 10.13671875 18.4609375 C8.42598661 22.60271006 6.0009428 25.19280599 2.13671875 27.4609375 C-2.48077415 28.29208622 -5.77682717 28.13130278 -9.80078125 25.6484375 C-14.42467177 20.74431119 -14.34076148 17.08112321 -14.25390625 10.57421875 C-13.86328125 7.4609375 -13.86328125 7.4609375 -11.55078125 4.2734375 C-7.47587914 1.5252477 -5.06696751 -0.09365929 0 0 Z " fill="#333333" transform="translate(195.86328125,438.5390625)"/>
<path d="M0 0 C8.24430867 0.47912816 16.00044527 1.97785501 24 4 C23.67 4.598125 23.34 5.19625 23 5.8125 C21.79212012 8.05386471 21.79212012 8.05386471 22 11 C18.66666667 11.66666667 15.33333333 12.33333333 12 13 C12 13.66 12 14.32 12 15 C8.38026598 16.31626692 5.90432869 17 2 17 C2 17.66 2 18.32 2 19 C1.09121094 19.23074219 0.18242187 19.46148437 -0.75390625 19.69921875 C-7.40304373 21.42458468 -13.89393756 23.26523834 -20.375 25.5625 C-29.10625301 28.55290801 -38.72339976 31 -48 31 C-48 31.66 -48 32.32 -48 33 C-47.25878906 33.04898438 -46.51757812 33.09796875 -45.75390625 33.1484375 C-31.92778156 34.12997389 -18.43637533 35.49485861 -5 39 C-5 39.33 -5 39.66 -5 40 C-15.12599604 39.47978164 -24.90413542 38.1852595 -34.875 36.4375 C-36.25640445 36.20055325 -37.63791468 35.96422235 -39.01953125 35.72851562 C-42.34743846 35.15834971 -45.67416358 34.58210155 -49 34 C-49.33 32.68 -49.66 31.36 -50 30 C-50.66 30.33 -51.32 30.66 -52 31 C-53.99960012 31.039992 -56.00047242 31.04346799 -58 31 C-58 30.01 -58 29.02 -58 28 C-57.67 28.66 -57.34 29.32 -57 30 C-56.42902588 29.69223633 -55.85805176 29.38447266 -55.26977539 29.06738281 C-53.04592111 28.02159483 -51.07834171 27.44375697 -48.68359375 26.921875 C-47.84634766 26.73359131 -47.00910156 26.54530762 -46.14648438 26.35131836 C-45.25251953 26.1528833 -44.35855469 25.95444824 -43.4375 25.75 C-33.80325872 23.53783513 -24.45287965 20.7616501 -15.06738281 17.67578125 C-4.45552209 14.20700108 6.28651593 11.13565388 17 8 C3.635 5.03 3.635 5.03 -10 2 C-5.99998285 0.99999571 -3.94476647 1.19311595 0 2 C0 1.34 0 0.68 0 0 Z " fill="#C2C5C8" transform="translate(396,396)"/>
<path d="M0 0 C1.828125 0.1796875 1.828125 0.1796875 4 1 C5.484375 3.2578125 5.484375 3.2578125 6.75 6.125 C7.17796875 7.05570312 7.6059375 7.98640625 8.046875 8.9453125 C9.13428642 12.43037696 9.16293615 15.37014457 9 19 C7.49759766 19.48919922 7.49759766 19.48919922 5.96484375 19.98828125 C4.6223418 20.42952315 3.27989693 20.87093871 1.9375 21.3125 C0.95233398 21.63250977 0.95233398 21.63250977 -0.05273438 21.95898438 C-4.47875793 23.41979018 -8.72838584 25.1246572 -13 27 C-14.91651237 27.77121688 -16.83317398 28.54206302 -18.75 29.3125 C-23.99747242 31.4802216 -28.90197989 34.03345799 -33.8203125 36.86328125 C-36 38 -36 38 -38 38 C-38 37.34 -38 36.68 -38 36 C-36.40273461 34.72815878 -34.74413105 33.5329956 -33.0625 32.375 C-28.31291033 29.02451427 -24.00890402 25.44779402 -19.77734375 21.46875 C-18 20 -18 20 -16 20 C-15.64035156 19.14921875 -15.64035156 19.14921875 -15.2734375 18.28125 C-13.73905388 15.53253825 -11.88270062 13.69019462 -9.625 11.5 C-8.85414063 10.7471875 -8.08328125 9.994375 -7.2890625 9.21875 C-5.79454457 7.77013876 -4.28970827 6.33207655 -2.7734375 4.90625 C-0.77823014 3.0257915 -0.77823014 3.0257915 0 0 Z " fill="#F2E5E5" transform="translate(376,261)"/>
<path d="M0 0 C3.22772123 -0.15370101 5.71067609 -0.09806217 8.7890625 0.9453125 C12.13864789 2.04554128 15.2558261 2.55729923 18.75 3 C24.55914105 3.77701887 30.27300763 4.75959151 36 6 C34.7703691 9.68889269 33.88823057 9.87676682 30.5625 11.6875 C24.06948648 15.4230788 18.04939312 19.84052049 12.8359375 25.2421875 C11 27 11 27 9 27 C8.76925781 26.10539062 8.53851563 25.21078125 8.30078125 24.2890625 C6.459649 17.46304648 4.41806032 11.19802979 0.953125 4.98828125 C0 3 0 3 0 0 Z " fill="#EFE6E6" transform="translate(350,158)"/>
<path d="M0 0 C6.44244624 1.28848925 12.43902295 2.60604734 18.625 4.625 C19.34300781 4.85445312 20.06101562 5.08390625 20.80078125 5.3203125 C22.53540295 5.87539144 24.26794159 6.43697357 26 7 C26 10 26 10 23.65625 12.453125 C22.61184668 13.39401224 21.55923015 14.32583629 20.5 15.25 C19.6800354 15.98198608 19.6800354 15.98198608 18.84350586 16.72875977 C17.23585806 18.16048611 15.61886384 19.58098317 14 21 C13.20722656 21.70511719 12.41445313 22.41023438 11.59765625 23.13671875 C8.13371504 26.20174159 4.61742637 29.10605891 1 32 C0.67 21.44 0.34 10.88 0 0 Z " fill="#F1E8E8" transform="translate(363,199)"/>
<path d="M0 0 C0.61359375 0.15339844 1.2271875 0.30679688 1.859375 0.46484375 C2.56578125 0.64144531 3.2721875 0.81804687 4 1 C5.33333333 1.33333333 6.66666667 1.66666667 8 2 C8 2.66 8 3.32 8 4 C9.175625 4.2475 10.35125 4.495 11.5625 4.75 C15.90806003 5.81896129 19.21724066 7.63577541 23 10 C23 10.66 23 11.32 23 12 C19.32547562 14.8394052 17.73113419 16 13 16 C13 16.66 13 17.32 13 18 C11.9275 18.45375 10.855 18.9075 9.75 19.375 C8.49966371 19.91588995 7.24963868 20.45750027 6 21 C4.9171875 21.4640625 4.9171875 21.4640625 3.8125 21.9375 C1.86840804 22.96804333 1.86840804 22.96804333 0.1875 24.875 C-3.25622302 28.22033093 -7.06321466 31 -12 31 C-10.66666667 27.66666667 -9.33333333 24.33333333 -8 21 C-7.34 21 -6.68 21 -6 21 C-3.57919742 14.0834212 -1.70022388 7.12647031 0 0 Z " fill="#F1E7E6" transform="translate(401,212)"/>
<path d="M0 0 C0 1.32 0 2.64 0 4 C-0.66 4 -1.32 4 -2 4 C-2.0825 4.94875 -2.165 5.8975 -2.25 6.875 C-2.83781367 11.07488604 -4.37787358 14.72957163 -6.01171875 18.62109375 C-7.15402256 21.37074996 -8.10361372 24.16144345 -9 27 C-9.66 27 -10.32 27 -11 27 C-11.66 29.31 -12.32 31.62 -13 34 C-16.36205563 33.39212833 -18.34514405 32.1832736 -21 30.0625 C-23.57402971 28.01634748 -26.0108422 26.38115104 -29 25 C-27.46853407 21.24405842 -25.20051146 19.10719981 -22.1875 16.4375 C-21.33542969 15.67308594 -20.48335938 14.90867188 -19.60546875 14.12109375 C-17 12 -17 12 -14.30078125 10.47265625 C-11.71295825 8.81627379 -11.27801177 7.70512492 -10 5 C-8.125 3.515625 -8.125 3.515625 -6 2.25 C-5.29875 1.82203125 -4.5975 1.3940625 -3.875 0.953125 C-2 0 -2 0 0 0 Z " fill="#F1E5E4" transform="translate(394,214)"/>
<path d="M0 0 C3.05675993 1.99448166 5.17730146 4.63241517 7.453125 7.4375 C7.91203125 7.9840625 8.3709375 8.530625 8.84375 9.09375 C12.203125 13.17299107 12.203125 13.17299107 12.203125 15.4375 C12.863125 15.4375 13.523125 15.4375 14.203125 15.4375 C14.533125 16.7575 14.863125 18.0775 15.203125 19.4375 C5.36349427 19.20372908 -3.5018143 16.39056149 -12.796875 13.4375 C-12.30245247 9.08658177 -11.01297465 7.17572101 -7.859375 4.1875 C-7.14910156 3.50171875 -6.43882812 2.8159375 -5.70703125 2.109375 C-2.42845946 -0.7602134 -2.42845946 -0.7602134 0 0 Z " fill="#ECE8E8" transform="translate(331.796875,130.5625)"/>
<path d="M0 0 C2.15234375 1.21875 2.15234375 1.21875 4 3 C5.07589271 7.66747574 4.56282713 11.87434573 2.4375 16.125 C0 18 0 18 -3.5 18.5625 C-7 18 -7 18 -9.4375 16.6875 C-11.9646822 12.34074661 -11.87569787 7.88867853 -11 3 C-7.77237736 -0.32255271 -4.49889634 -0.57432719 0 0 Z " fill="#E4E3E3" transform="translate(150,444)"/>
<path d="M0 0 C7.30260155 -0.36513008 7.30260155 -0.36513008 10.23828125 1.171875 C12 3 12 3 12.49609375 5.55859375 C12.47675781 6.50863281 12.45742187 7.45867187 12.4375 8.4375 C12.43621094 9.38496094 12.43492187 10.33242188 12.43359375 11.30859375 C11.93430553 14.40777918 11.2329887 15.8076111 9 18 C5.82450719 18.45364183 4.01284677 18.67895138 1 18 C-1.5 16.0625 -1.5 16.0625 -3 13 C-3.45189717 9.20144405 -3.73720468 5.47440936 -2 2 C-1.34 2 -0.68 2 0 2 C0 1.34 0 0.68 0 0 Z " fill="#E4E3E3" transform="translate(189,444)"/>
<path d="M0 0 C2.31 0 4.62 0 7 0 C7 1.32 7 2.64 7 4 C5.02 4.66 3.04 5.32 1 6 C0.67 7.98 0.34 9.96 0 12 C1.98 12 3.96 12 6 12 C6 13.32 6 14.64 6 16 C4.35 16 2.7 16 1 16 C1 22.93 1 29.86 1 37 C-1.475 37.495 -1.475 37.495 -4 38 C-4 30.74 -4 23.48 -4 16 C-5.32 16 -6.64 16 -8 16 C-8 14.68 -8 13.36 -8 12 C-6.68 12 -5.36 12 -4 12 C-4 9.36 -4 6.72 -4 4 C-3.34 4 -2.68 4 -2 4 C-1.34 2.68 -0.68 1.36 0 0 Z " fill="#292828" transform="translate(216,428)"/>
<path d="M0 0 C3.96 0 7.92 0 12 0 C12 3.96 12 7.92 12 12 C11.67 12 11.34 12 11 12 C11 8.37 11 4.74 11 1 C8.03 1 5.06 1 2 1 C2 22.78 2 44.56 2 67 C4.97 67 7.94 67 11 67 C11 53.8 11 40.6 11 27 C11.33 27 11.66 27 12 27 C12 40.86 12 54.72 12 69 C8.37 69 4.74 69 1 69 C0 68 0 68 -0.12025452 65.29820251 C-0.11803391 64.09241043 -0.11581329 62.88661835 -0.11352539 61.64428711 C-0.11367142 60.98089828 -0.11381744 60.31750946 -0.1139679 59.63401794 C-0.11326881 57.43176044 -0.10547665 55.22958655 -0.09765625 53.02734375 C-0.09579206 51.50419664 -0.09436816 49.98104893 -0.09336853 48.457901 C-0.08954346 44.44162349 -0.07971328 40.42538192 -0.06866455 36.40911865 C-0.05845019 32.31376634 -0.05387086 28.21840824 -0.04882812 24.12304688 C-0.038091 16.08201472 -0.02101472 8.04101183 0 0 Z " fill="#4F4F4F" transform="translate(584,503)"/>
<path d="M0 0 C0 2.31 0 4.62 0 7 C1.98 7 3.96 7 6 7 C6 8.32 6 9.64 6 11 C4.02 11 2.04 11 0 11 C0.33 16.61 0.66 22.22 1 28 C2.32 28.33 3.64 28.66 5 29 C5 30.32 5 31.64 5 33 C-1.42061701 33.48457487 -1.42061701 33.48457487 -3.71875 31.5625 C-5.65993847 27.68012306 -5.31768369 24.0226955 -5.1875 19.75 C-5.17396484 18.90953125 -5.16042969 18.0690625 -5.14648438 17.203125 C-5.11123464 15.13514062 -5.0574302 13.06748729 -5 11 C-6.32 11 -7.64 11 -9 11 C-9 9.68 -9 8.36 -9 7 C-7.68 7 -6.36 7 -5 7 C-5 5.02 -5 3.04 -5 1 C-3 0 -3 0 0 0 Z " fill="#2E2D2D" transform="translate(233,433)"/>
<path d="M0 0 C0.99 0.33 1.98 0.66 3 1 C-7.11578058 11.61324662 -17.45108715 21.23122182 -29.35791016 29.80761719 C-30.71315265 30.79170942 -32.03873148 31.81651529 -33.35546875 32.8515625 C-35 34 -35 34 -37 34 C-35.4563893 30.40654069 -33.27381666 27.91811796 -30.625 25.0625 C-28.32308772 22.57196949 -26.10269284 20.13644069 -24.0625 17.42578125 C-21.73769139 14.6914893 -19.39925697 13.04807633 -16.375 11.125 C-11.46169566 7.96773589 -6.72942921 4.65738777 -2.05859375 1.15234375 C-1.37925781 0.77207031 -0.69992187 0.39179688 0 0 Z " fill="#F1DCDC" transform="translate(365,265)"/>
<path d="M0 0 C0.90105469 0.02707031 1.80210937 0.05414063 2.73046875 0.08203125 C3.76107422 0.13423828 3.76107422 0.13423828 4.8125 0.1875 C5.1425 1.5075 5.4725 2.8275 5.8125 4.1875 C3.1725 4.1875 0.5325 4.1875 -2.1875 4.1875 C-2.5175 5.8375 -2.8475 7.4875 -3.1875 9.1875 C-2.54941406 9.53683594 -1.91132813 9.88617188 -1.25390625 10.24609375 C-0.42761719 10.70113281 0.39867187 11.15617187 1.25 11.625 C2.07371094 12.07746094 2.89742187 12.52992188 3.74609375 12.99609375 C5.8125 14.1875 5.8125 14.1875 6.8125 15.1875 C7.34618372 19.10118062 7.10719444 20.75021147 4.875 24.0625 C0.83998255 26.86230803 -2.40012394 26.8798891 -7.1875 26.1875 C-7.5175 25.8575 -7.8475 25.5275 -8.1875 25.1875 C-8.1875 23.5375 -8.1875 21.8875 -8.1875 20.1875 C-4.8875 20.5175 -1.5875 20.8475 1.8125 21.1875 C1.23807356 18.74471737 1.23807356 18.74471737 -0.1875 16.1875 C-2.15365661 15.1224985 -4.15476926 14.11916826 -6.1875 13.1875 C-8.65074069 9.49263897 -8.57741688 7.55456908 -8.1875 3.1875 C-5.87430438 -0.11598525 -3.88322225 -0.15129437 0 0 Z " fill="#262525" transform="translate(171.1875,439.8125)"/>
<path d="M0 0 C0.33 1.65 0.66 3.3 1 5 C-0.216875 4.938125 -1.43375 4.87625 -2.6875 4.8125 C-5.46123551 4.84206024 -7.30781161 5.09619113 -10 5.9375 C-12.76148278 8.78527912 -12.5208015 10.9007889 -12.46875 14.74609375 C-11.8780241 17.5865008 -11.09026857 18.98259483 -9 21 C-6.49119384 21.48261667 -6.49119384 21.48261667 -3.8125 21.25 C-2.46091797 21.19585937 -2.46091797 21.19585937 -1.08203125 21.140625 C-0.39496094 21.09421875 0.29210937 21.0478125 1 21 C0.125 24.875 0.125 24.875 -1 26 C-5.80557505 26.81467903 -9.97020772 26.60764442 -14.0625 23.8125 C-17.23133813 20.70289249 -17.59143371 17.92353492 -17.8125 13.5625 C-17.49568199 8.43474177 -16.80159296 4.75574516 -13.06640625 1.1015625 C-8.96321 -1.08577463 -4.49536153 -0.50392843 0 0 Z " fill="#191818" transform="translate(113,440)"/>
<path d="M0 0 C2.13838373 0.47519638 4.2756234 0.95298739 6.41015625 1.4453125 C8.09488559 1.80614443 9.79150137 2.11643369 11.49609375 2.3671875 C12.67365234 2.55667969 12.67365234 2.55667969 13.875 2.75 C14.59429687 2.84796875 15.31359375 2.9459375 16.0546875 3.046875 C20.09335908 5.02566188 21.03055488 9.9605646 22.421875 13.98046875 C22.86997215 15.3810999 23.31262027 16.78348517 23.75 18.1875 C23.98332031 18.89841797 24.21664063 19.60933594 24.45703125 20.34179688 C26.12090269 25.63729192 26.12090269 25.63729192 25 29 C24.59910156 28.39414063 24.19820313 27.78828125 23.78515625 27.1640625 C17.44187491 17.81455486 10.26288494 9.81137404 1.65234375 2.49609375 C1.10707031 2.00238281 0.56179688 1.50867188 0 1 C0 0.67 0 0.34 0 0 Z " fill="#ECDCDC" transform="translate(327,152)"/>
<path d="M0 0 C2.5 2.125 2.5 2.125 4 5 C4.08104732 8.97131876 3.4688579 10.47755834 0.8125 13.4375 C-2 15 -2 15 -5.125 15 C-8.46294538 13.83897552 -9.4614746 13.16252443 -11 10 C-11.52755517 6.38247881 -11.45932313 4.69817115 -9.4375 1.625 C-6.04129157 -0.63913895 -3.99900698 -0.64269755 0 0 Z " fill="#6A6A6A" transform="translate(252,435)"/>
<path d="M0 0 C1.65 0 3.3 0 5 0 C5 0.66 5 1.32 5 2 C5.99 1.34 6.98 0.68 8 0 C11.1875 -0.125 11.1875 -0.125 14 0 C14 1.32 14 2.64 14 4 C11.69 4.66 9.38 5.32 7 6 C6.0672582 10.099361 5.71174738 14.12043288 5.4375 18.3125 C5.35371094 19.56675781 5.26992187 20.82101562 5.18359375 22.11328125 C5.12300781 23.06589844 5.06242187 24.01851563 5 25 C3.35 25 1.7 25 0 25 C0 16.75 0 8.5 0 0 Z " fill="#313030" transform="translate(119,440)"/>
<path d="M0 0 C2.31 0.33 4.62 0.66 7 1 C5.68 1.33 4.36 1.66 3 2 C12.1136942 12.96115941 12.1136942 12.96115941 23 22 C23 22.66 23 23.32 23 24 C19.04 23.67 15.08 23.34 11 23 C11 21.35 11 19.7 11 18 C10.34 18 9.68 18 9 18 C7.44921875 16.2421875 7.44921875 16.2421875 5.6875 13.875 C0.63865789 7.18746311 0.63865789 7.18746311 -5 1 C-2.525 1.495 -2.525 1.495 0 2 C0 1.34 0 0.68 0 0 Z " fill="#B9BABD" transform="translate(335,128)"/>
<path d="M0 0 C3.99500618 1.3697164 6.80009492 3.25722422 10 6 C8.48870125 9.94519267 6.17812012 11.57247178 2.75 13.9375 C-1.33437387 16.80890607 -5.2254926 19.73556117 -9 23 C-9.66 22.67 -10.32 22.34 -11 22 C-10.360625 21.071875 -9.72125 20.14375 -9.0625 19.1875 C-6.91377907 16.15780057 -6.91377907 16.15780057 -6 13 C-5.34 12.67 -4.68 12.34 -4 12 C-3.12381416 9.45808722 -3.12381416 9.45808722 -2.4375 6.5 C-1.09262436 1.09262436 -1.09262436 1.09262436 0 0 Z " fill="#F2E5E5" transform="translate(360,248)"/>
<path d="M0 0 C1.65 0 3.3 0 5 0 C5 0.66 5 1.32 5 2 C5.61875 2.268125 6.2375 2.53625 6.875 2.8125 C9 4 9 4 11 7 C11.23046875 9.375 11.23046875 9.375 11.1875 12 C11.18105469 12.86625 11.17460937 13.7325 11.16796875 14.625 C11 17 11 17 10 20 C9.34 20 8.68 20 8 20 C7.731875 20.61875 7.46375 21.2375 7.1875 21.875 C6 24 6 24 3 26 C0.51953125 26.1953125 0.51953125 26.1953125 -2.1875 26.125 C-3.08855469 26.10695313 -3.98960937 26.08890625 -4.91796875 26.0703125 C-5.60503906 26.04710937 -6.29210937 26.02390625 -7 26 C-7.33 25.34 -7.66 24.68 -8 24 C-4.7 24.33 -1.4 24.66 2 25 C2.12375 24.236875 2.2475 23.47375 2.375 22.6875 C3 20 3 20 5 17 C5.35373621 14.5559896 5.35373621 14.5559896 5.3125 11.9375 C5.32925781 11.05964844 5.34601563 10.18179687 5.36328125 9.27734375 C5.24339844 8.52582031 5.12351563 7.77429688 5 7 C1.91111478 4.94074319 1.29064073 4.7609626 -2.1875 4.875 C-3.445625 4.91625 -4.70375 4.9575 -6 5 C-5.67 4.34 -5.34 3.68 -5 3 C-3.02 3 -1.04 3 1 3 C0.67 2.01 0.34 1.02 0 0 Z " fill="#303030" transform="translate(148,440)"/>
<path d="M0 0 C8.24430867 0.47912816 16.00044527 1.97785501 24 4 C23.67 4.598125 23.34 5.19625 23 5.8125 C21.79212012 8.05386471 21.79212012 8.05386471 22 11 C18.66666667 11.66666667 15.33333333 12.33333333 12 13 C12 13.66 12 14.32 12 15 C11.01 14.67 10.02 14.34 9 14 C9.66 14 10.32 14 11 14 C11 13.34 11 12.68 11 12 C10.01 11.67 9.02 11.34 8 11 C10.97 10.01 13.94 9.02 17 8 C3.635 5.03 3.635 5.03 -10 2 C-5.99998285 0.99999571 -3.94476647 1.19311595 0 2 C0 1.34 0 0.68 0 0 Z " fill="#D5D6D8" transform="translate(396,396)"/>
<path d="M0 0 C0.36103536 1.81114432 0.71365504 3.62396823 1.0625 5.4375 C1.35833984 6.95150391 1.35833984 6.95150391 1.66015625 8.49609375 C1.77230469 9.32238281 1.88445312 10.14867188 2 11 C1.67 11.33 1.34 11.66 1 12 C1.08984301 13.85772162 1.24611861 15.71247985 1.4375 17.5625 C1.59025391 19.08037109 1.59025391 19.08037109 1.74609375 20.62890625 C1.82988281 21.41136719 1.91367187 22.19382812 2 23 C1.34 22.67 0.68 22.34 0 22 C-0.64259881 19.52982661 -1.16873874 17.12978118 -1.625 14.625 C-1.7590625 13.93921875 -1.893125 13.2534375 -2.03125 12.546875 C-2.58338211 9.65099843 -3 6.95439007 -3 4 C-4.58468677 4.45363171 -6.16769924 4.91311452 -7.75 5.375 C-8.63171875 5.63023438 -9.5134375 5.88546875 -10.421875 6.1484375 C-12.97862332 6.91878431 -12.97862332 6.91878431 -15.140625 8.1015625 C-17 9 -17 9 -20 9 C-20 9.66 -20 10.32 -20 11 C-21.98 11.33 -23.96 11.66 -26 12 C-26 11.34 -26 10.68 -26 10 C-28.31 10.66 -30.62 11.32 -33 12 C-31.34587892 8.69175783 -27.69271692 8.19461465 -24.375 7 C-23.67503906 6.73960938 -22.97507812 6.47921875 -22.25390625 6.2109375 C-18.90025407 4.97898364 -15.55159636 3.84191494 -12.109375 2.8828125 C-9.09060629 2.14260541 -9.09060629 2.14260541 -6.875 0.875 C-4.49652525 -0.23495488 -2.59716828 -0.05960714 0 0 Z " fill="#BCBEC1" transform="translate(385,102)"/>
<path d="M0 0 C0 0.66 0 1.32 0 2 C-1.98 2.66 -3.96 3.32 -6 4 C-6 4.66 -6 5.32 -6 6 C-6.66 6 -7.32 6 -8 6 C-8.08142927 7.7492214 -8.13938541 9.49954542 -8.1875 11.25 C-8.22230469 12.22453125 -8.25710937 13.1990625 -8.29296875 14.203125 C-7.95408181 17.43836565 -7.30742832 18.73452493 -5 21 C-1.39534252 21.81314911 -1.39534252 21.81314911 2 22 C2 22.99 2 23.98 2 25 C-3.17033045 25.54213174 -6.75654507 25.87041845 -11.125 22.8125 C-14.36405309 18.02283638 -13.85048589 11.48563396 -13 6 C-11.08052391 2.60664048 -10.28768104 2.10274323 -6.5 0.75 C-3 0 -3 0 0 0 Z " fill="#161515" transform="translate(195,440)"/>
<path d="M0 0 C1.65 0 3.3 0 5 0 C5 11.22 5 22.44 5 34 C4.01 34 3.02 34 2 34 C2 25.42 2 16.84 2 8 C0.68 8 -0.64 8 -2 8 C-1.125 1.125 -1.125 1.125 0 0 Z " fill="#060606" transform="translate(72,431)"/>
<path d="M0 0 C1.32 0 2.64 0 4 0 C4 8.58 4 17.16 4 26 C2.35 26 0.7 26 -1 26 C-1.02886751 21.85418113 -1.04675327 17.70838784 -1.0625 13.5625 C-1.07087891 12.37849609 -1.07925781 11.19449219 -1.08789062 9.97460938 C-1.09111328 8.84990234 -1.09433594 7.72519531 -1.09765625 6.56640625 C-1.10289307 5.52427979 -1.10812988 4.48215332 -1.11352539 3.40844727 C-1 1 -1 1 0 0 Z " fill="#323232" transform="translate(86,440)"/>
<path d="M0 0 C0 0.99 0 1.98 0 3 C-4.29 3.66 -8.58 4.32 -13 5 C-13 5.66 -13 6.32 -13 7 C-12.25878906 7.04898437 -11.51757812 7.09796875 -10.75390625 7.1484375 C3.07221844 8.12997389 16.56362467 9.49485861 30 13 C30 13.33 30 13.66 30 14 C19.87400396 13.47978164 10.09586458 12.1852595 0.125 10.4375 C-1.25640445 10.20055325 -2.63791468 9.96422235 -4.01953125 9.72851562 C-7.34743846 9.15834971 -10.67416358 8.58210155 -14 8 C-14.33 6.68 -14.66 5.36 -15 4 C-15.99 4.495 -15.99 4.495 -17 5 C-18.99960012 5.039992 -21.00047242 5.04346799 -23 5 C-23 4.01 -23 3.02 -23 2 C-22.67 2.66 -22.34 3.32 -22 4 C-21.2265625 3.53980469 -21.2265625 3.53980469 -20.4375 3.0703125 C-17.31240532 1.69807541 -14.3800162 1.32614623 -11 0.875 C-9.783125 0.70742188 -8.56625 0.53984375 -7.3125 0.3671875 C-4 0 -4 0 0 0 Z " fill="#B4B7BC" transform="translate(361,422)"/>
<path d="M0 0 C0.66 0.33 1.32 0.66 2 1 C1.37351562 1.58007812 0.74703125 2.16015625 0.1015625 2.7578125 C-0.71570313 3.53898438 -1.53296875 4.32015625 -2.375 5.125 C-3.18710937 5.89070312 -3.99921875 6.65640625 -4.8359375 7.4453125 C-7.50486489 10.27492962 -7.50486489 10.27492962 -9 16 C1.89 16 12.78 16 24 16 C23.67 12.7 23.34 9.4 23 6 C23.66 6.33 24.32 6.66 25 7 C26 10 26 10 26 18 C14.12 18 2.24 18 -10 18 C-8.8732101 7.85889091 -8.8732101 7.85889091 -5.5625 4.5 C-4.94503906 3.8503125 -4.32757812 3.200625 -3.69140625 2.53125 C-2 1 -2 1 0 0 Z " fill="#A2A1A1" transform="translate(536,513)"/>
<path d="M0 0 C1.6026782 -0.10824843 3.20745748 -0.18570645 4.8125 -0.25 C5.70582031 -0.29640625 6.59914063 -0.3428125 7.51953125 -0.390625 C10 0 10 0 11.82421875 2.015625 C12.40623047 2.99789063 12.40623047 2.99789063 13 4 C13.66 2.68 14.32 1.36 15 0 C15.99 0 16.98 0 18 0 C18 3.3 18 6.6 18 10 C17.01 10 16.02 10 15 10 C15 9.34 15 8.68 15 8 C14.01 8.33 13.02 8.66 12 9 C11.67 8.67 11.34 8.34 11 8 C10.67 8.66 10.34 9.32 10 10 C9.01 10 8.02 10 7 10 C7 7.36 7 4.72 7 2 C6.01 2 5.02 2 4 2 C4 4.64 4 7.28 4 10 C3.34 10 2.68 10 2 10 C2 7.36 2 4.72 2 2 C1.34 2 0.68 2 0 2 C0 1.34 0 0.68 0 0 Z " fill="#706F6F" transform="translate(420,431)"/>
<path d="M0 0 C-0.33 0.33 -0.66 0.66 -1 1 C1.31 1 3.62 1 6 1 C0.77468437 4.48354375 -4.8131337 5.30934332 -11 5 C-11 5.66 -11 6.32 -11 7 C-12.32 7 -13.64 7 -15 7 C-15 7.66 -15 8.32 -15 9 C-14.34 9.33 -13.68 9.66 -13 10 C-13.99 10 -14.98 10 -16 10 C-16.33 8.68 -16.66 7.36 -17 6 C-18.65 5.67 -20.3 5.34 -22 5 C-21.34 3.35 -20.68 1.7 -20 0 C-19.67 0.66 -19.34 1.32 -19 2 C-19.33 2.99 -19.66 3.98 -20 5 C-19.03578125 4.65066406 -18.0715625 4.30132812 -17.078125 3.94140625 C-15.80211997 3.48166914 -14.52607626 3.02203937 -13.25 2.5625 C-12.61578125 2.33240234 -11.9815625 2.10230469 -11.328125 1.86523438 C-2.56676136 -1.28338068 -2.56676136 -1.28338068 0 0 Z " fill="#B0B3B8" transform="translate(311,400)"/>
<path d="M0 0 C2.375 1 2.375 1 4 3 C4.46573923 5.84683105 4.27925007 8.06787431 4 11 C3.34 11.66 2.68 12.32 2 13 C1.01 13 0.02 13 -1 13 C-1.66 11.68 -2.32 10.36 -3 9 C-3.66 10.65 -4.32 12.3 -5 14 C-6.9375 13.25 -6.9375 13.25 -9 12 C-9.75 9.875 -9.75 9.875 -10 8 C-8.515 8.99 -8.515 8.99 -7 10 C-6.67 8.35 -6.34 6.7 -6 5 C-4.68 5.33 -3.36 5.66 -2 6 C-2 5.34 -2 4.68 -2 4 C-2.99 3.67 -3.98 3.34 -5 3 C-3.35 3.33 -1.7 3.66 0 4 C0 5.65 0 7.3 0 9 C0.66 9.33 1.32 9.66 2 10 C1.34 7.69 0.68 5.38 0 3 C-0.763125 2.855625 -1.52625 2.71125 -2.3125 2.5625 C-5 2 -5 2 -8 1 C-5.19084526 -0.40457737 -3.11189466 -0.24895157 0 0 Z " fill="#383838" transform="translate(634,501)"/>
<path d="M0 0 C1.7290774 -0.02725341 3.45828176 -0.04650987 5.1875 -0.0625 C6.15042969 -0.07410156 7.11335938 -0.08570313 8.10546875 -0.09765625 C10.86163188 -0.00466829 13.31077269 0.42599686 16 1 C16.99 1 17.98 1 19 1 C18.67 2.32 18.34 3.64 18 5 C7.10238692 5.2071352 -3.27133239 5.15729044 -14 3 C-14 2.67 -14 2.34 -14 2 C-6.74 2 0.52 2 8 2 C5.36 1.67 2.72 1.34 0 1 C0 0.67 0 0.34 0 0 Z " fill="#C2C4C8" transform="translate(392,436)"/>
<path d="M0 0 C0.33 0 0.66 0 1 0 C1.02578125 0.67546875 1.0515625 1.3509375 1.078125 2.046875 C1.39661816 7.5721821 1.39661816 7.5721821 3.5625 12.5625 C7.04482493 14.6161788 9.97693571 14.73179571 14 15 C13.67 15.99 13.34 16.98 13 18 C8.96301345 18.2052705 5.94792354 18.32971253 2.125 17 C-0.95632449 14.09992989 -1.58577689 11.14223115 -2 7 C-1.5 1.5 -1.5 1.5 0 0 Z " fill="#0A0A0A" transform="translate(137,447)"/>
<path d="M0 0 C1.7325 0.1546875 1.7325 0.1546875 3.5 0.3125 C5.5 3.3125 5.5 3.3125 5.125 6.5 C4.91875 7.428125 4.7125 8.35625 4.5 9.3125 C3.84 8.9825 3.18 8.6525 2.5 8.3125 C1.875 6.25 1.875 6.25 1.5 4.3125 C0.51 4.6425 -0.48 4.9725 -1.5 5.3125 C-1.5 5.9725 -1.5 6.6325 -1.5 7.3125 C-0.51 7.6425 0.48 7.9725 1.5 8.3125 C1.5 9.3025 1.5 10.2925 1.5 11.3125 C-3.25 10.5625 -3.25 10.5625 -5.5 8.3125 C-5.75 5.3125 -5.75 5.3125 -5.5 2.3125 C-3.5 0.3125 -3.5 0.3125 0 0 Z " fill="#B8B8B8" transform="translate(248.5,436.6875)"/>
<path d="M0 0 C2 2 2 2 2.125 5.125 C2.08375 6.07375 2.0425 7.0225 2 8 C1.01 7.67 0.02 7.34 -1 7 C-1 5.35 -1 3.7 -1 2 C-1.33 2.66 -1.66 3.32 -2 4 C-2.99 4 -3.98 4 -5 4 C-5.33 5.65 -5.66 7.3 -6 9 C-8.475 8.01 -8.475 8.01 -11 7 C-10.8125 4.125 -10.8125 4.125 -10 1 C-6.48955807 -1.24278235 -3.91156967 -1.26861719 0 0 Z " fill="#A4A4A4" transform="translate(634,503)"/>
<path d="M0 0 C1.0326802 2.78823655 1.04509293 3.8677274 0.0625 6.75 C-0.288125 7.4925 -0.63875 8.235 -1 9 C-0.41992188 8.7834375 0.16015625 8.566875 0.7578125 8.34375 C5.32553887 6.71564951 9.0780464 5.62138818 14 6 C11.83572512 7.12221661 9.73059447 8.098563 7.4375 8.9375 C4.96225747 9.83968083 4.96225747 9.83968083 3.375 11.625 C2.92125 12.07875 2.4675 12.5325 2 13 C1.01 13 0.02 13 -1 13 C-0.67 15.97 -0.34 18.94 0 22 C-2.46542986 19.53457014 -2.2600215 18.10709746 -2.2734375 14.73632812 C-2.26570313 14.06021484 -2.25796875 13.38410156 -2.25 12.6875 C-2.25515625 11.37136719 -2.2603125 10.05523437 -2.265625 8.69921875 C-2.02139485 5.29795479 -1.47970157 3.03573695 0 0 Z " fill="#B7BABF" transform="translate(268,357)"/>
<path d="M0 0 C0.33 0 0.66 0 1 0 C1.36103536 1.81114432 1.71365504 3.62396823 2.0625 5.4375 C2.25972656 6.44683594 2.45695312 7.45617187 2.66015625 8.49609375 C2.77230469 9.32238281 2.88445312 10.14867188 3 11 C2.67 11.33 2.34 11.66 2 12 C2.08984301 13.85772162 2.24611861 15.71247985 2.4375 17.5625 C2.53933594 18.57441406 2.64117187 19.58632812 2.74609375 20.62890625 C2.82988281 21.41136719 2.91367187 22.19382812 3 23 C2.34 22.67 1.68 22.34 1 22 C0.35740119 19.52982661 -0.16873874 17.12978118 -0.625 14.625 C-0.7590625 13.93921875 -0.893125 13.2534375 -1.03125 12.546875 C-1.58338211 9.65099843 -2 6.95439007 -2 4 C-2.66 3.67 -3.32 3.34 -4 3 C-3.01 3 -2.02 3 -1 3 C-0.67 2.01 -0.34 1.02 0 0 Z " fill="#CFD0D1" transform="translate(384,102)"/>
<path d="M0 0 C0.99386719 0.02707031 1.98773438 0.05414063 3.01171875 0.08203125 C4.15060547 0.13423828 4.15060547 0.13423828 5.3125 0.1875 C5.6425 1.8375 5.9725 3.4875 6.3125 5.1875 C3.0125 5.1875 -0.2875 5.1875 -3.6875 5.1875 C-3.0275 4.1975 -2.3675 3.2075 -1.6875 2.1875 C-5.55882028 2.76102893 -7.76922796 4.67454352 -10.6875 7.1875 C-8.16861825 1.5684561 -6.31328865 -0.22282195 0 0 Z " fill="#373737" transform="translate(107.6875,439.8125)"/>
<path d="M0 0 C0.66 0.33 1.32 0.66 2 1 C1.01 1.99 0.02 2.98 -1 4 C-0.67 4.66 -0.34 5.32 0 6 C-1.93269959 7.17460192 -3.87133313 8.33944472 -5.8125 9.5 C-6.89144531 10.1496875 -7.97039062 10.799375 -9.08203125 11.46875 C-12 13 -12 13 -15 13 C-13.06478939 11.20580474 -11.1269646 9.41458671 -9.1875 7.625 C-8.64029297 7.11710937 -8.09308594 6.60921875 -7.52929688 6.0859375 C-5.09977985 3.84783697 -2.75431332 1.83620888 0 0 Z " fill="#B94346" transform="translate(298,322)"/>
<path d="M0 0 C0.375 2.1875 0.375 2.1875 0 5 C-2.69768836 8.11271734 -4.28368764 9.77673986 -8.40234375 10.3125 C-10.62395028 10.3125 -12.790154 10.2209846 -15 10 C-15 9.67 -15 9.34 -15 9 C-12.36 9 -9.72 9 -7 9 C-6.938125 8.2575 -6.87625 7.515 -6.8125 6.75 C-5.94641035 3.81861964 -3.5372257 0 0 0 Z " fill="#2E2D2D" transform="translate(204,456)"/>
<path d="M0 0 C1.97909398 -0.02686553 3.95828971 -0.04633375 5.9375 -0.0625 C7.03964844 -0.07410156 8.14179688 -0.08570313 9.27734375 -0.09765625 C12 0 12 0 13 1 C13.07226502 2.85287502 13.0838122 4.70833878 13.0625 6.5625 C13.05347656 7.57441406 13.04445313 8.58632813 13.03515625 9.62890625 C13.02355469 10.41136719 13.01195312 11.19382812 13 12 C10.03 11.505 10.03 11.505 7 11 C8.32 10.67 9.64 10.34 11 10 C11 7.03 11 4.06 11 1 C7.37 1 3.74 1 0 1 C0 0.67 0 0.34 0 0 Z " fill="#484848" transform="translate(433,502)"/>
<path d="M0 0 C-0.33 0.33 -0.66 0.66 -1 1 C1.31 1 3.62 1 6 1 C2.99559979 3.00293347 1.29006055 3.49271626 -2.1875 4.125 C-3.08855469 4.29257812 -3.98960937 4.46015625 -4.91796875 4.6328125 C-5.60503906 4.75398438 -6.29210937 4.87515625 -7 5 C-6.67 4.01 -6.34 3.02 -6 2 C-7.98 2.33 -9.96 2.66 -12 3 C-9.84267191 0.84267191 -8.88177557 0.51705175 -6 -0.1875 C-5.29875 -0.36667969 -4.5975 -0.54585938 -3.875 -0.73046875 C-2 -1 -2 -1 0 0 Z " fill="#B7BABE" transform="translate(311,400)"/>
<path d="M0 0 C-2.17899346 0.97338256 -4.35930521 1.94337474 -6.54296875 2.90625 C-8.05256858 3.57824992 -9.55667875 4.26296444 -11.05078125 4.96875 C-15.67595291 7.1080157 -15.67595291 7.1080157 -19 6 C-17.08588443 5.01585567 -15.1686033 4.03786651 -13.25 3.0625 C-12.18265625 2.51722656 -11.1153125 1.97195313 -10.015625 1.41015625 C-4.08679245 -1.36226415 -4.08679245 -1.36226415 0 0 Z " fill="#E72326" transform="translate(367,294)"/>
<path d="M0 0 C1.125 3.75 1.125 3.75 0 6 C2.97 5.01 5.94 4.02 9 3 C5.72509912 6.27490088 3.08751751 7.88324986 -1 10 C-1.99 10 -2.98 10 -4 10 C-2.66666667 6.66666667 -1.33333333 3.33333333 0 0 Z " fill="#F18B86" transform="translate(393,233)"/>
<path d="M0 0 C2.375 1 2.375 1 4 3 C4.33686831 5.75471344 4.18319242 8.2063156 4 11 C3.01 11.495 3.01 11.495 2 12 C1.34 11.34 0.68 10.68 0 10 C0.66 10 1.32 10 2 10 C1.34 7.69 0.68 5.38 0 3 C-0.763125 2.855625 -1.52625 2.71125 -2.3125 2.5625 C-5 2 -5 2 -8 1 C-5.19084526 -0.40457737 -3.11189466 -0.24895157 0 0 Z " fill="#5E5D5D" transform="translate(634,501)"/>
<path d="M0 0 C0.66 0.33 1.32 0.66 2 1 C0.61122646 4.35620271 -0.91677965 6.07298728 -4 8 C-4.66 8 -5.32 8 -6 8 C-7.69774938 9.29352333 -9.36739286 10.62517293 -11 12 C-9.49650623 8.33213607 -7.36271208 6.31089607 -4.375 3.75 C-3.14910156 2.69039063 -3.14910156 2.69039063 -1.8984375 1.609375 C-1.27195312 1.07828125 -0.64546875 0.5471875 0 0 Z " fill="#BCB4B6" transform="translate(282,335)"/>
<path d="M0 0 C0.66 0 1.32 0 2 0 C2 7.59 2 15.18 2 23 C1.67 23 1.34 23 1 23 C0.67 17.06 0.34 11.12 0 5 C-0.66 5 -1.32 5 -2 5 C-1.34 3.35 -0.68 1.7 0 0 Z " fill="#C3C2C2" transform="translate(71,442)"/>
<path d="M0 0 C0.99 0.33 1.98 0.66 3 1 C-2.91684902 7.86214442 -2.91684902 7.86214442 -7.4375 8.4375 C-8.283125 8.293125 -9.12875 8.14875 -10 8 C-6.97731777 4.74480375 -3.85903564 2.21689281 0 0 Z " fill="#F2BDBB" transform="translate(365,265)"/>
<path d="M0 0 C7.34918342 -0.43230491 13.90215087 1.18225815 21 3 C21 3.33 21 3.66 21 4 C6.21867882 3.22095672 6.21867882 3.22095672 0 1 C0 0.67 0 0.34 0 0 Z " fill="#C6C7CA" transform="translate(370,432)"/>
<path d="M0 0 C1.8871875 0.0309375 1.8871875 0.0309375 3.8125 0.0625 C1.16511084 1.5231285 -0.08198334 2.0625 -3.1875 2.0625 C-3.1875 2.7225 -3.1875 3.3825 -3.1875 4.0625 C-5.8275 4.3925 -8.4675 4.7225 -11.1875 5.0625 C-11.1875 4.4025 -11.1875 3.7425 -11.1875 3.0625 C-9.8675 3.0625 -8.5475 3.0625 -7.1875 3.0625 C-7.1875 2.4025 -7.1875 1.7425 -7.1875 1.0625 C-4.43671116 0.14557039 -2.82801087 -0.04636083 0 0 Z " fill="#F04C41" transform="translate(408.1875,276.9375)"/>
<path d="M0 0 C1.98 0 3.96 0 6 0 C6 1.32 6 2.64 6 4 C4.71254964 4.38922918 3.41980403 4.76098036 2.125 5.125 C1.04605469 5.43824219 1.04605469 5.43824219 -0.0546875 5.7578125 C-0.69664063 5.83773438 -1.33859375 5.91765625 -2 6 C-2.66 5.34 -3.32 4.68 -4 4 C-2.68 3.67 -1.36 3.34 0 3 C0 2.01 0 1.02 0 0 Z " fill="#262525" transform="translate(127,440)"/>
<path d="M0 0 C0.66 0.33 1.32 0.66 2 1 C1.06027344 1.90492188 1.06027344 1.90492188 0.1015625 2.828125 C-0.71570313 3.62734375 -1.53296875 4.4265625 -2.375 5.25 C-3.18710937 6.03890625 -3.99921875 6.8278125 -4.8359375 7.640625 C-6.75583143 9.73379455 -7.91633685 11.40397179 -9 14 C-9.33 13.34 -9.66 12.68 -10 12 C-7.45827007 6.61153256 -4.74326601 3.55744951 0 0 Z " fill="#B6B5B5" transform="translate(536,513)"/>
<path d="M0 0 C2 3 2 3 2 6 C-3.94 5.01 -9.88 4.02 -16 3 C-16 2.67 -16 2.34 -16 2 C-10.36718401 1.7603057 -5.45461169 2.61470179 0 4 C0 2.68 0 1.36 0 0 Z " fill="#DBDCDD" transform="translate(388,129)"/>
<path d="M0 0 C-0.33 1.32 -0.66 2.64 -1 4 C-1.33 3.34 -1.66 2.68 -2 2 C-2.95261719 2.2165625 -3.90523438 2.433125 -4.88671875 2.65625 C-6.76810547 3.07390625 -6.76810547 3.07390625 -8.6875 3.5 C-10.54955078 3.91765625 -10.54955078 3.91765625 -12.44921875 4.34375 C-15.42398218 4.89354126 -17.99368602 5.13795705 -21 5 C-17.34862403 2.84662443 -13.48712654 2.14700843 -9.375 1.375 C-8.694375 1.2409375 -8.01375 1.106875 -7.3125 0.96875 C-2.31058673 0 -2.31058673 0 0 0 Z " fill="#D0D2D4" transform="translate(317,358)"/>
<path d="M0 0 C1.875 0.125 1.875 0.125 4 1 C5.25 4.0625 5.25 4.0625 6 7 C5.01 6.34 4.02 5.68 3 5 C3 4.34 3 3.68 3 3 C0.03 5.475 0.03 5.475 -3 8 C-3.66 7.67 -4.32 7.34 -5 7 C-4.0409375 6.1028125 -4.0409375 6.1028125 -3.0625 5.1875 C-0.79689611 3.09189663 -0.79689611 3.09189663 0 0 Z " fill="#F2B4B1" transform="translate(376,261)"/>
<path d="M0 0 C1.98 0 3.96 0 6 0 C6 0.66 6 1.32 6 2 C5.34 2 4.68 2 4 2 C4 4.64 4 7.28 4 10 C3.34 10 2.68 10 2 10 C2 7.36 2 4.72 2 2 C1.34 2 0.68 2 0 2 C0 1.34 0 0.68 0 0 Z " fill="#565656" transform="translate(420,431)"/>
<path d="M0 0 C0.33 1.32 0.66 2.64 1 4 C1.66 4 2.32 4 3 4 C2.34 5.98 1.68 7.96 1 10 C0.01 10 -0.98 10 -2 10 C-2.99 10.495 -2.99 10.495 -4 11 C-3.52269162 9.5410574 -3.04308958 8.08286504 -2.5625 6.625 C-2.29566406 5.81289063 -2.02882813 5.00078125 -1.75390625 4.1640625 C-1 2 -1 2 0 0 Z " fill="#313131" transform="translate(69,435)"/>
<path d="M0 0 C0.680625 0.268125 1.36125 0.53625 2.0625 0.8125 C-6.9375 6.8125 -6.9375 6.8125 -9.9375 6.8125 C-9.9375 6.1525 -9.9375 5.4925 -9.9375 4.8125 C-6.92976152 1.87410419 -4.27580632 -0.27292381 0 0 Z " fill="#ECABAE" transform="translate(347.9375,292.1875)"/>
<path d="M0 0 C1.98 0 3.96 0 6 0 C6 1.98 6 3.96 6 6 C5.071875 6.28875 4.14375 6.5775 3.1875 6.875 C-0.09791667 7.8875 -0.09791667 7.8875 -3 10 C-2.125 6.125 -2.125 6.125 -1 5 C0.99958364 4.95919217 3.00045254 4.95745644 5 5 C5 3.68 5 2.36 5 1 C3.35 1 1.7 1 0 1 C0 0.67 0 0.34 0 0 Z " fill="#C1C1C1" transform="translate(128,439)"/>
<path d="M0 0 C1.875 0.25 1.875 0.25 4 1 C5.25 3.0625 5.25 3.0625 6 5 C4.68 4.34 3.36 3.68 2 3 C1.071875 3.99 1.071875 3.99 0.125 5 C-2 7 -2 7 -4 7 C-2.79618552 4.50638429 -1.54571278 2.31856917 0 0 Z " fill="#DFE0E1" transform="translate(322,361)"/>
<path d="M0 0 C0.99 0 1.98 0 3 0 C3 3.63 3 7.26 3 11 C2.01 11.495 2.01 11.495 1 12 C0.67 8.04 0.34 4.08 0 0 Z " fill="#AFAEAE" transform="translate(567,555)"/>
<path d="M0 0 C0.66 0.33 1.32 0.66 2 1 C-1.3 4.3 -4.6 7.6 -8 11 C-8 7.0234755 -6.61988497 5.9109833 -4 3 C-1.75 1.1875 -1.75 1.1875 0 0 Z " fill="#313131" transform="translate(290,478)"/>
<path d="M0 0 C1.670625 0.061875 1.670625 0.061875 3.375 0.125 C3.375 1.445 3.375 2.765 3.375 4.125 C1.725 4.125 0.075 4.125 -1.625 4.125 C-1.955 3.465 -2.285 2.805 -2.625 2.125 C-3.615 2.125 -4.605 2.125 -5.625 2.125 C-3.625 0.125 -3.625 0.125 0 0 Z " fill="#3A3A3A" transform="translate(219.625,427.875)"/>
<path d="M0 0 C0.33 0.66 0.66 1.32 1 2 C1.66 2.33 2.32 2.66 3 3 C1.87926138 3.83905565 0.75325453 4.67107831 -0.375 5.5 C-1.00148438 5.9640625 -1.62796875 6.428125 -2.2734375 6.90625 C-4 8 -4 8 -6 8 C-4.55746343 4.63408134 -2.66735273 2.48952921 0 0 Z " fill="#EAB4B6" transform="translate(334,291)"/>
<path d="M0 0 C0 4.35251187 -2.06165511 5.92809398 -5 9 C-7.3125 9.875 -7.3125 9.875 -9 10 C-7.61811547 6.78956118 -6.07578097 4.95063635 -3.375 2.75 C-2.74335938 2.22921875 -2.11171875 1.7084375 -1.4609375 1.171875 C-0.73777344 0.59179688 -0.73777344 0.59179688 0 0 Z " fill="#F1D1D2" transform="translate(356,283)"/>
<path d="M0 0 C2.64 1.65 5.28 3.3 8 5 C7.67 5.66 7.34 6.32 7 7 C6.34 7 5.68 7 5 7 C4.67 7.33 4.34 7.66 4 8 C2 6.25 2 6.25 0 4 C0 2.68 0 1.36 0 0 Z " fill="#A83536" transform="translate(310,138)"/>
<path d="M0 0 C0.66 0 1.32 0 2 0 C0.54682061 3.3907519 -1.41300312 5.41300312 -4 8 C-4.33 8.99 -4.66 9.98 -5 11 C-5.66 11 -6.32 11 -7 11 C-5.51131293 6.39860359 -3.25370145 3.49772906 0 0 Z " fill="#B9B8B8" transform="translate(359,514)"/>
<path d="M0 0 C0.66 0.33 1.32 0.66 2 1 C-0.97 3.97 -3.94 6.94 -7 10 C-7.33 9.34 -7.66 8.68 -8 8 C-3.375 2.25 -3.375 2.25 0 0 Z " fill="#343434" transform="translate(431,503)"/>
<path d="M0 0 C2.97 0.99 5.94 1.98 9 3 C9 3.66 9 4.32 9 5 C2.25 5.125 2.25 5.125 0 4 C0 2.68 0 1.36 0 0 Z " fill="#050505" transform="translate(163,460)"/>
<path d="M0 0 C0.33 0 0.66 0 1 0 C1 3.63 1 7.26 1 11 C-0.98 11.99 -0.98 11.99 -3 13 C-3 11.35 -3 9.7 -3 8 C-2.34 8 -1.68 8 -1 8 C-0.67 5.36 -0.34 2.72 0 0 Z " fill="#C4C3C3" transform="translate(181,448)"/>
<path d="M0 0 C1.32 0 2.64 0 4 0 C4 1.65 4 3.3 4 5 C2.35 5 0.7 5 -1 5 C-0.67 3.35 -0.34 1.7 0 0 Z " fill="#252424" transform="translate(86,429)"/>
<path d="M0 0 C0.66 0.33 1.32 0.66 2 1 C0.92492371 2.29854721 -0.16043736 3.58858361 -1.25 4.875 C-1.85328125 5.59429687 -2.4565625 6.31359375 -3.078125 7.0546875 C-4.97087634 8.97052118 -6.53657727 9.96449045 -9 11 C-9 10.34 -9 9.68 -9 9 C-7.52460414 7.75411016 -6.04550456 6.51187361 -4.53515625 5.30859375 C-2.6952004 3.74018355 -1.33816421 2.00724632 0 0 Z " fill="#D8D6D7" transform="translate(286,334)"/>
<path d="M0 0 C0 3 0 3 -1.5 4.6875 C-1.995 5.120625 -2.49 5.55375 -3 6 C-2.34 6.66 -1.68 7.32 -1 8 C-3.31 8.33 -5.62 8.66 -8 9 C-7.04270084 7.87411986 -6.08412105 6.7493285 -5.125 5.625 C-4.59132813 4.99851562 -4.05765625 4.37203125 -3.5078125 3.7265625 C-2.38567993 2.44163349 -1.20628025 1.20628025 0 0 Z " fill="#F1B8B4" transform="translate(405,265)"/>
<path d="M0 0 C0 0.99 0 1.98 0 3 C-0.66 3.66 -1.32 4.32 -2 5 C-0.68 5.66 0.64 6.32 2 7 C-2.455 7.495 -2.455 7.495 -7 8 C-7 7.34 -7 6.68 -7 6 C-5.46875 4.4921875 -5.46875 4.4921875 -3.5 2.875 C-2.8503125 2.33617187 -2.200625 1.79734375 -1.53125 1.2421875 C-1.0259375 0.83226562 -0.520625 0.42234375 0 0 Z " fill="#E6C0C1" transform="translate(486,241)"/>
<path d="M0 0 C1.5 1.375 1.5 1.375 3 3 C3 3.66 3 4.32 3 5 C3.66 5.33 4.32 5.66 5 6 C3.02 6.33 1.04 6.66 -1 7 C-0.67 4.69 -0.34 2.38 0 0 Z " fill="#A09F9F" transform="translate(630,509)"/>
<path d="M0 0 C1.46726798 3.81489674 0.43336419 6.29011622 -1 10 C-3 7 -3 7 -2.75 4.4375 C-2 2 -2 2 0 0 Z " fill="#0E0E0E" transform="translate(68,443)"/>
<path d="M0 0 C0.33 0.66 0.66 1.32 1 2 C-2.21451269 3.60725635 -5.43612536 3.05748185 -9 3 C-9 2.34 -9 1.68 -9 1 C-5.92677456 0.08941469 -3.19902639 -0.08886184 0 0 Z " fill="#A22B30" transform="translate(560,237)"/>
<path d="M0 0 C0 0.66 0 1.32 0 2 C-3.3 3.32 -6.6 4.64 -10 6 C-9 3 -9 3 -6.125 1.3125 C-3 0 -3 0 0 0 Z " fill="#B4B7BB" transform="translate(377,105)"/>
<path d="M0 0 C0.33 0.99 0.66 1.98 1 3 C2.32 2.01 3.64 1.02 5 0 C5 2.31 5 4.62 5 7 C3.68 6.34 2.36 5.68 1 5 C0.67 5.66 0.34 6.32 0 7 C0 4.69 0 2.38 0 0 Z " fill="#3F3F3F" transform="translate(246,439)"/>
<path d="M0 0 C0.68707555 2.49064888 1 4.37886292 1 7 C-1 8.6875 -1 8.6875 -3 10 C-3.66 9.67 -4.32 9.34 -5 9 C-4.360625 8.071875 -3.72125 7.14375 -3.0625 6.1875 C-0.91377907 3.15780057 -0.91377907 3.15780057 0 0 Z " fill="#F1AFAE" transform="translate(354,261)"/>
<path d="M0 0 C-1.5830577 4.2742558 -4.50568404 6.26531794 -8 9 C-6.68994234 5.06982701 -4.75047804 0 0 0 Z " fill="#B5B4B4" transform="translate(606,514)"/>
<path d="M0 0 C2.97 0 5.94 0 9 0 C8.67 1.32 8.34 2.64 8 4 C6.68 4.33 5.36 4.66 4 5 C4 4.01 4 3.02 4 2 C2.68 1.34 1.36 0.68 0 0 Z " fill="#DB7477" transform="translate(435,173)"/>
<path d="M0 0 C0.88945312 0.17144531 1.77890625 0.34289062 2.6953125 0.51953125 C3.41460937 0.73996094 4.13390625 0.96039063 4.875 1.1875 C5.205 1.8475 5.535 2.5075 5.875 3.1875 C4.10344346 3.07320603 2.33273771 2.94566963 0.5625 2.8125 C-0.42363281 2.74289063 -1.40976562 2.67328125 -2.42578125 2.6015625 C-5.125 2.1875 -5.125 2.1875 -8.125 0.1875 C-4.79447495 -0.92267502 -3.38087782 -0.68504667 0 0 Z " fill="#E4BEB7" transform="translate(405.125,157.8125)"/>
<path d="M0 0 C1.98 0.99 1.98 0.99 4 2 C4.66 1.34 5.32 0.68 6 0 C5.67 1.98 5.34 3.96 5 6 C3.0625 5.25 3.0625 5.25 1 4 C0.25 1.875 0.25 1.875 0 0 Z " fill="#626161" transform="translate(624,509)"/>
<path d="M0 0 C1.2065625 0.0309375 1.2065625 0.0309375 2.4375 0.0625 C1.7775 0.475 1.1175 0.8875 0.4375 1.3125 C-0.2225 1.89 -0.8825 2.4675 -1.5625 3.0625 C-1.5625 4.3825 -1.5625 5.7025 -1.5625 7.0625 C-2.5525 6.7325 -3.5425 6.4025 -4.5625 6.0625 C-3.48963568 0.08511307 -3.48963568 0.08511307 0 0 Z " fill="#A6A5A5" transform="translate(171.5625,442.9375)"/>
<path d="M0 0 C-0.33 0.99 -0.66 1.98 -1 3 C-3.31 3 -5.62 3 -8 3 C-8 2.34 -8 1.68 -8 1 C-5.07175348 0.02391783 -3.04386724 -0.08226668 0 0 Z " fill="#DFE0E1" transform="translate(356,426)"/>
<path d="M0 0 C0.66 0.33 1.32 0.66 2 1 C-2.75 4.875 -2.75 4.875 -5 6 C-5.66 5.67 -6.32 5.34 -7 5 C-7 4.34 -7 3.68 -7 3 C-4.69631264 1.93347808 -2.35981813 0.93578995 0 0 Z " fill="#E2E3E4" transform="translate(376,381)"/>
<path d="M0 0 C0.66 0 1.32 0 2 0 C0.70700306 2.88437779 -0.65941363 4.87219421 -3 7 C-3.66 6.67 -4.32 6.34 -5 6 C-3.38405168 3.95880212 -1.7143618 1.95927063 0 0 Z " fill="#B9B8B8" transform="translate(429,514)"/>
<path d="M0 0 C1.64826111 2.96687001 2.44271087 5.65626525 3 9 C0.9375 7.3125 0.9375 7.3125 -1 5 C-0.75 2.25 -0.75 2.25 0 0 Z " fill="#E7A8AA" transform="translate(350,172)"/>
</svg>
