<?xml version="1.0" encoding="UTF-8"?>
<svg version="1.1" xmlns="http://www.w3.org/2000/svg" width="2000" height="336">
<path d="M0 0 C6.74885688 1.12480948 6.74885688 1.12480948 9.76586914 2.43603516 C10.44812057 2.72842072 11.13037201 3.02080627 11.83329773 3.322052 C12.55991104 3.64116547 13.28652435 3.96027893 14.03515625 4.2890625 C14.81506424 4.62469208 15.59497223 4.96032166 16.39851379 5.30612183 C18.07989323 6.03006907 19.76006858 6.75681799 21.43914795 7.48608398 C25.90487663 9.42485919 30.37996685 11.341728 34.85546875 13.2578125 C36.23119049 13.84728668 36.23119049 13.84728668 37.63470459 14.44866943 C48.92377337 19.27119144 60.30729164 23.8579767 71.69555664 28.43994141 C72.8185743 28.89193405 72.8185743 28.89193405 73.96427917 29.35305786 C75.36034041 29.91441908 76.75681082 30.47476418 78.15376282 31.03390503 C82.78394403 32.89197201 82.78394403 32.89197201 85 34 C85 122.44 85 210.88 85 302 C43.01115242 319.49535316 43.01115242 319.49535316 29.04174805 325.28491211 C26.44625127 326.36068227 23.8510503 327.43716411 21.25585938 328.51367188 C19.56772503 329.21358193 17.87957472 329.9134535 16.19140625 330.61328125 C15.43332169 330.92775711 14.67523712 331.24223297 13.8941803 331.5662384 C12.51720659 332.13672777 11.13799454 332.70185815 9.75613403 333.26040649 C7.85764858 334.03204837 7.85764858 334.03204837 5.55053711 335.27416992 C-1.59361672 337.30724825 -9.18701743 334.21631385 -15.9375 331.89453125 C-16.87698486 331.57945114 -17.81646973 331.26437103 -18.78442383 330.93974304 C-21.85928842 329.90601152 -24.92958365 328.85936215 -28 327.8125 C-30.18204033 327.07607779 -32.36433606 326.34041192 -34.546875 325.60546875 C-48.168034 321.01129885 -61.76864882 316.35592137 -75.36474609 311.68814087 C-94.66413106 305.06428575 -114.03124004 298.64398852 -133.39258575 292.20420074 C-153.63665671 285.47048951 -173.86977547 278.7117701 -194.04321289 271.76855469 C-202.58581359 268.83120054 -211.14398761 265.9476726 -219.72265625 263.1171875 C-220.70500244 262.79249481 -221.68734863 262.46780212 -222.69946289 262.13327026 C-227.45845325 260.56077671 -232.21931677 258.9944709 -236.98388672 257.43896484 C-238.67553363 256.88142119 -240.36710675 256.3236536 -242.05859375 255.765625 C-242.836548 255.51424774 -243.61450226 255.26287048 -244.41603088 255.00387573 C-249.77301011 253.22698989 -249.77301011 253.22698989 -252 251 C-239.85952334 251.61161252 -227.91671957 253.51533549 -215.90771484 255.31054688 C-213.5856277 255.65427637 -211.26348252 255.99761395 -208.94128418 256.34059143 C-202.66870204 257.26822161 -196.39697261 258.20150107 -190.1254077 259.13598061 C-184.22235796 260.01480112 -178.31873312 260.88973868 -172.41513164 261.76484317 C-160.72752748 263.49749957 -149.0405863 265.23458759 -137.35400391 266.97412109 C-126.01728709 268.6615752 -114.68006315 270.34556933 -103.34228516 272.02587891 C-89.65892225 274.05382157 -75.97596077 276.08444722 -62.29338455 278.11769104 C-57.07108549 278.89370574 -51.84864052 279.66872782 -46.62607956 280.44297791 C-40.48775863 281.3531709 -34.3498483 282.26608402 -28.21224976 283.18113518 C-25.95605918 283.51707321 -23.69973013 283.85208269 -21.44325638 284.18611336 C-18.37271023 284.64081378 -15.30267754 285.0988332 -12.23275757 285.55773926 C-11.33209985 285.69032749 -10.43144213 285.82291572 -9.50349176 285.95952177 C-8.68345434 286.08281497 -7.86341693 286.20610816 -7.01852989 286.33313751 C-6.30980401 286.43853741 -5.60107814 286.54393731 -4.87087572 286.65253115 C-3 287 -3 287 0 288 C0 192.96 0 97.92 0 0 Z " fill="#865EC5" transform="translate(252,0)"/>
<path d="M0 0 C13.86 5.94 27.72 11.88 42 18 C42 67.83 42 117.66 42 169 C-1.93870783 188.0005223 -1.93870783 188.0005223 -4.59997559 187.97784424 C-7.85473213 186.65175567 -9.85050332 184.77437848 -12.40039062 182.35449219 C-12.91610878 181.86777416 -13.43182693 181.38105614 -13.96317291 180.87958908 C-19.97830017 175.15728633 -25.80767669 169.24273622 -31.62864685 163.3242569 C-34.33915537 160.57094977 -37.0596507 157.82759441 -39.77942657 155.0834465 C-44.81720477 150.00020473 -49.85054489 144.91271868 -54.86816406 139.80957031 C-58.38553751 136.23300545 -61.91483538 132.6686054 -65.45246887 129.11208344 C-66.79347318 127.75932216 -68.12992601 126.40203329 -69.4617157 125.04019928 C-71.31150273 123.14965295 -73.1760558 121.27498049 -75.04492188 119.40332031 C-75.59143402 118.83726074 -76.13794617 118.27120117 -76.70101929 117.68798828 C-78.37558175 115.97275523 -78.37558175 115.97275523 -81 114 C-84.50360229 114.12076619 -86.59969184 115.98495436 -89.31640625 118.10546875 C-90.15445801 118.75306152 -90.99250977 119.4006543 -91.85595703 120.06787109 C-93.1956958 121.1170874 -93.1956958 121.1170874 -94.5625 122.1875 C-96.44561647 123.64321916 -98.3297544 125.09761779 -100.21484375 126.55078125 C-101.65126221 127.65993896 -101.65126221 127.65993896 -103.11669922 128.79150391 C-107.57823591 132.20886724 -112.09601064 135.54780417 -116.625 138.875 C-117.42365479 139.4630542 -118.22230957 140.0511084 -119.04516602 140.65698242 C-127.70504409 147.01597678 -127.70504409 147.01597678 -129.875 146.8984375 C-136.19133316 145.34257602 -141.7813042 143.26134393 -148 141 C-148 109.65 -148 78.3 -148 46 C-131 40 -131 40 -126 41 C-124.08154297 42.17651367 -124.08154297 42.17651367 -122.2421875 43.66796875 C-121.54311279 44.22500488 -120.84403809 44.78204102 -120.1237793 45.35595703 C-119.38168213 45.96036621 -118.63958496 46.56477539 -117.875 47.1875 C-116.27650699 48.46185553 -114.67618345 49.73391766 -113.07421875 51.00390625 C-112.24583496 51.66148926 -111.41745117 52.31907227 -110.56396484 52.99658203 C-105.55763826 56.90840035 -100.41461056 60.63517831 -95.28271484 64.37963867 C-94.15857178 65.20105347 -94.15857178 65.20105347 -93.01171875 66.0390625 C-91.96056885 66.80138184 -91.96056885 66.80138184 -90.88818359 67.57910156 C-89.2684741 68.79796751 -87.7279507 70.12082665 -86.20703125 71.4609375 C-84.17773097 73.23962044 -84.17773097 73.23962044 -82.05653381 72.76853752 C-79.75292818 71.90766796 -78.61371125 70.98156707 -76.88842773 69.24246216 C-76.29971893 68.65643219 -75.71101013 68.07040222 -75.10446167 67.46661377 C-74.47057526 66.82037048 -73.83668884 66.1741272 -73.18359375 65.50830078 C-72.50668488 64.83022369 -71.829776 64.15214661 -71.13235474 63.45352173 C-68.89369729 61.2076697 -66.66574394 58.95149271 -64.4375 56.6953125 C-62.88411007 55.13378686 -61.32998191 53.57299528 -59.77514648 52.01290894 C-55.68000038 47.90062813 -51.59349798 43.77986809 -47.50915527 39.65686035 C-40.97357254 33.06213783 -34.42534654 26.47997551 -27.87649536 19.89843369 C-25.58930835 17.5972845 -23.30598026 15.2923602 -21.02319336 12.98684692 C-19.62101523 11.57464373 -18.21875715 10.16251992 -16.81640625 8.75048828 C-16.18251984 8.10829346 -15.54863342 7.46609863 -14.89553833 6.80444336 C-13.28191376 5.18270333 -11.64929515 3.58532792 -10 2 C-9.32316162 1.34514618 -8.64632324 0.69029236 -7.94897461 0.01559448 C-6 -1 -6 -1 0 0 Z M-10.61328125 57.74609375 C-11.73355713 58.62382446 -11.73355713 58.62382446 -12.87646484 59.51928711 C-13.68035645 60.15229736 -14.48424805 60.78530762 -15.3125 61.4375 C-21.87775426 66.57538561 -28.47551642 71.65626365 -35.16503906 76.63183594 C-39.36757623 79.76528702 -43.55709886 82.91617455 -47.75 86.0625 C-49.51558737 87.38676892 -51.28120939 88.71099165 -53.046875 90.03515625 C-54.18914551 90.89185913 -54.18914551 90.89185913 -55.35449219 91.76586914 C-56.16901855 92.37676392 -56.16901855 92.37676392 -57 93 C-53.2795364 96.91071458 -49.34995645 100.1282683 -45 103.3125 C-43.58130672 104.36230283 -42.16337924 105.4131411 -40.74609375 106.46484375 C-39.9866748 107.02800293 -39.22725586 107.59116211 -38.44482422 108.17138672 C-35.81455774 110.13870207 -33.20425413 112.13034488 -30.59765625 114.12890625 C-29.67919922 114.83297607 -28.76074219 115.5370459 -27.81445312 116.26245117 C-26.02390034 117.63697684 -24.23476034 119.01334553 -22.44726562 120.3918457 C-21.61001953 121.033396 -20.77277344 121.67494629 -19.91015625 122.3359375 C-18.81392944 123.17970947 -18.81392944 123.17970947 -17.69555664 124.04052734 C-13.88118385 126.81329756 -9.92368792 129.38420805 -6 132 C-6 106.59 -6 81.18 -6 55 C-7.85039898 55 -9.21736053 56.64751903 -10.61328125 57.74609375 Z M-128 68 C-128 84.83 -128 101.66 -128 119 C-123.85561068 115.4476663 -119.96953969 112.09346755 -116.16015625 108.2578125 C-114.9081543 107.00097656 -114.9081543 107.00097656 -113.63085938 105.71875 C-112.78330078 104.8628125 -111.93574219 104.006875 -111.0625 103.125 C-110.18787109 102.24585938 -109.31324219 101.36671875 -108.41210938 100.4609375 C-106.27242952 98.3095654 -104.13513403 96.15588208 -102 94 C-106.95544138 88.02265091 -112.31189552 82.53812065 -117.8125 77.0625 C-118.68326172 76.18787109 -119.55402344 75.31324219 -120.45117188 74.41210938 C-121.27810547 73.58646484 -122.10503906 72.76082031 -122.95703125 71.91015625 C-124.08588745 70.78299194 -124.08588745 70.78299194 -125.23754883 69.63305664 C-126.72179853 67.88672211 -126.72179853 67.88672211 -128 68 Z " fill="#865EC5" transform="translate(169,50)"/>
<path d="M0 0 C7.92 0 15.84 0 24 0 C24 71.28 24 142.56 24 216 C16.08 216 8.16 216 0 216 C-0.33 208.74 -0.66 201.48 -1 194 C-3.10375 196.7225 -3.10375 196.7225 -5.25 199.5 C-14.45375791 210.80318321 -26.56603256 217.10498832 -41 219 C-59.21454007 220.16461837 -75.24156904 217.36559743 -89.55078125 205.34765625 C-104.32581268 191.18530554 -110.0450763 171.99371488 -111 152 C-111.04125 151.17757812 -111.0825 150.35515625 -111.125 149.5078125 C-111.67946134 126.70558993 -106.73013172 104.13895282 -91.5625 86.5625 C-80.12497613 74.6157713 -66.95750135 67.35806102 -50.25 66.71484375 C-48.12518658 66.67373629 -46.00012675 66.64392524 -43.875 66.625 C-42.86163574 66.61106201 -41.84827148 66.59712402 -40.80419922 66.58276367 C-28.25054286 66.66144115 -16.17074387 70.7006654 -7 79.5625 C-4.40337907 82.26947732 -3.01953665 84.63410558 -1 88 C-0.67 58.96 -0.34 29.92 0 0 Z M-72.8125 100.6875 C-85.20660152 115.28936916 -86.79608606 134.62878325 -86 153 C-84.79118824 167.64389105 -79.44857555 180.34392968 -68.5625 190.3125 C-59.97160844 197.14358338 -50.54193572 199.33386549 -39.55859375 198.84765625 C-28.63536081 197.49353646 -19.4500452 193.19350085 -12 185 C-1.2450741 171.07797936 0.17888078 156.62210971 0.1875 139.625 C0.19974609 138.36171875 0.21199219 137.0984375 0.22460938 135.796875 C0.24708149 121.38476007 -2.04395698 108.93690336 -12.25 98.0625 C-21.30377847 89.66302821 -31.77474034 86.49423973 -43.91796875 86.75390625 C-55.44181379 87.67406118 -64.83518434 92.3805432 -72.8125 100.6875 Z " fill="#865EC5" transform="translate(1695,54)"/>
<path d="M0 0 C8.91 0 17.82 0 27 0 C29.65901865 6.64754663 32.1957018 13.24596441 34.51171875 20.0078125 C34.99936958 21.42072571 34.99936958 21.42072571 35.49687195 22.86218262 C36.19659994 24.88966608 36.89534828 26.91748787 37.59320068 28.94561768 C39.489607 34.45544542 41.39460402 39.96229612 43.30078125 45.46875 C43.69269653 46.60091949 44.08461182 47.73308899 44.48840332 48.89956665 C48.05572425 59.18944236 51.68975599 69.45500495 55.34017944 79.71563721 C61.65902208 97.48084832 67.91870385 115.2663623 74.10040283 133.07977295 C74.94068594 135.49938432 75.78272722 137.91838593 76.62664795 140.33673096 C77.80577967 143.71749916 78.97799808 147.10058916 80.1484375 150.484375 C80.49455078 151.47301544 80.84066406 152.46165588 81.19726562 153.48025513 C83.52276204 160.23768733 85.3679967 167.04340306 87 174 C87.26401611 173.18700439 87.52803223 172.37400879 87.80004883 171.53637695 C96.10413056 146.07040948 105.06741909 120.85955908 114.15774536 95.6651001 C118.99032798 82.26697276 123.77608262 68.85217272 128.5625 55.4375 C129.36648438 53.18520276 130.17051949 50.93292363 130.97460938 48.68066406 C131.36345306 47.5913559 131.75229675 46.50204773 132.15292358 45.37973022 C132.92167409 43.22664406 133.69073175 41.07366755 134.46011353 38.92080688 C136.33654977 33.66862822 138.20865933 28.41498628 140.06979084 23.15736675 C140.99600427 20.54177709 141.92434077 17.92694336 142.85288811 15.31218147 C143.51621578 13.44153812 144.17653746 11.56982972 144.83680725 9.69810486 C145.23604904 8.57449051 145.63529083 7.45087616 146.04663086 6.29321289 C146.57709267 4.79389977 146.57709267 4.79389977 147.11827087 3.26429749 C148 1 148 1 149 0 C150.92667507 -0.08748207 152.85651861 -0.10697334 154.78515625 -0.09765625 C155.95498047 -0.09443359 157.12480469 -0.09121094 158.33007812 -0.08789062 C159.56177734 -0.07951172 160.79347656 -0.07113281 162.0625 -0.0625 C163.91584961 -0.05573242 163.91584961 -0.05573242 165.80664062 -0.04882812 C168.87114117 -0.03699608 171.93554721 -0.02051173 175 0 C174.34041374 5.37168781 172.65587399 10.08993537 170.7734375 15.125 C170.27093727 16.48850838 170.27093727 16.48850838 169.75828552 17.87956238 C168.63565071 20.92163051 167.50533923 23.96078699 166.375 27 C165.56816378 29.18123388 164.7617784 31.36263456 163.95581055 33.54418945 C161.76677408 39.46481527 159.57086003 45.38286806 157.37335205 51.300354 C155.31042633 56.8576289 153.25174619 62.41647509 151.19266129 67.97517395 C146.88170127 79.61205809 142.56391264 91.24639981 138.24316788 102.87965393 C134.66643271 112.50982673 131.0926836 122.14110158 127.52174187 131.77342415 C126.74082874 133.8798472 125.95984992 135.98624588 125.17884827 138.09263611 C124.92343608 138.78149556 124.66802389 139.47035501 124.40487194 140.180089 C123.89349008 141.55931017 123.38210767 142.93853113 122.87072468 144.31775188 C121.64463673 147.62463739 120.41867734 150.93157044 119.19302368 154.23861694 C116.55393037 161.35906868 113.91200705 168.47845906 111.26525879 175.59606934 C110.40396423 177.91321344 109.54356605 180.23069089 108.68395996 182.54846191 C107.42482554 185.94217591 106.16210442 189.33453404 104.8984375 192.7265625 C104.32834457 194.26611099 104.32834457 194.26611099 103.74673462 195.83676147 C103.39895966 196.76799835 103.05118469 197.69923523 102.69287109 198.65869141 C102.38868256 199.47673248 102.08449402 200.29477356 101.77108765 201.13760376 C101 203 101 203 100 204 C98.00035018 204.08758003 95.9976389 204.10696576 93.99609375 204.09765625 C92.78115234 204.09443359 91.56621094 204.09121094 90.31445312 204.08789062 C89.03505859 204.07951172 87.75566406 204.07113281 86.4375 204.0625 C85.15423828 204.05798828 83.87097656 204.05347656 82.54882812 204.04882812 C79.36583978 204.03699545 76.18294238 204.02051068 73 204 C53.03542336 150.11658307 53.03542336 150.11658307 44 124.5 C37.96118332 107.38165142 31.73341719 90.33790023 25.4375 73.3125 C19.29368281 56.68975592 13.1616742 40.06360889 7.17727661 23.38265991 C6.52273367 21.5590092 5.86657107 19.73593892 5.20870972 17.91348267 C4.31520709 15.43623932 3.4280151 12.95683743 2.54296875 10.4765625 C2.28159119 9.75447098 2.02021362 9.03237946 1.75091553 8.28840637 C0.72236111 5.38416265 0 3.10682523 0 0 Z " fill="#865EC5" transform="translate(437,66)"/>
<path d="M0 0 C0.69578156 0.00398804 1.39156311 0.00797607 2.10842896 0.01208496 C16.63593514 0.10958081 28.6552015 1.38842289 42.125 7.375 C42.125 16.285 42.125 25.195 42.125 34.375 C38.0166808 33.55333616 36.17815976 33.00512386 32.75 31.0625 C24.22060509 26.65734844 13.75815443 23.77430174 4.125 23.375 C2.95582031 23.3234375 1.78664063 23.271875 0.58203125 23.21875 C-13.91300366 22.7922693 -26.28190468 25.40596291 -38.6875 33.125 C-44.10256657 38.69478276 -46.66785007 44.7991167 -46.9921875 52.55078125 C-46.6191104 61.54193946 -43.86859021 67.65106148 -37.53125 74.05859375 C-28.0065064 82.36473045 -15.99759045 87.48542195 -4.83422852 93.23022461 C39.94465534 116.27932081 39.94465534 116.27932081 48.5625 140.5 C52.21890594 153.75447152 51.20596689 168.67396196 45 181 C36.33346316 195.29719101 23.8685121 202.91170401 8.125 207.375 C-18.36240527 213.84524954 -49.35406983 211.63546508 -73.875 199.375 C-73.875 189.805 -73.875 180.235 -73.875 170.375 C-70.31243613 171.80002555 -67.25913938 173.25069254 -63.96655273 175.14208984 C-43.71628187 186.63773612 -19.48823775 190.63893994 3.15234375 184.5625 C10.96256746 181.99123294 16.66229795 178.63072996 20.5 171.1875 C23.99621806 163.48061931 24.62358213 155.21965292 22.1015625 147.06640625 C14.61691068 130.83587676 -1.96577786 124.40426126 -17.01098633 116.66821289 C-64.39288617 92.26476662 -64.39288617 92.26476662 -71.75 70.4375 C-75.50741141 55.61789597 -73.99757705 41.78356978 -66.7109375 28.4296875 C-58.26551572 14.37794317 -43.18287594 6.45611771 -27.61572266 2.55908203 C-18.37099491 0.51237274 -9.48650422 -0.11088842 0 0 Z " fill="#865EC5" transform="translate(1267.875,62.625)"/>
<path d="M0 0 C10.97913334 8.51332799 16.31323026 19.11464867 18.5625 32.75 C18.82188936 36.42924769 18.81641584 40.09047125 18.78955078 43.77758789 C18.78984283 44.84204132 18.79013489 45.90649475 18.79043579 47.00320435 C18.7890515 50.49310693 18.77353279 53.98279133 18.7578125 57.47265625 C18.75407917 59.90359887 18.75123371 62.334543 18.74923706 64.76548767 C18.74162584 71.14244796 18.72199894 77.51931616 18.6998291 83.89624023 C18.67931651 90.41193395 18.67022378 96.92764263 18.66015625 103.44335938 C18.63875064 116.21228641 18.60358899 128.98112112 18.5625 141.75 C10.6425 141.75 2.7225 141.75 -5.4375 141.75 C-5.7675 135.15 -6.0975 128.55 -6.4375 121.75 C-8.4175 124.39 -10.3975 127.03 -12.4375 129.75 C-21.25532432 139.33044696 -32.43238408 144.24266953 -45.3203125 144.96875 C-60.40821214 145.42148988 -74.30500416 142.99391153 -85.80859375 132.53125 C-94.67727093 122.83312819 -97.03015143 111.25434633 -96.71875 98.4609375 C-95.82281968 86.6396346 -91.64179268 75.64905404 -82.76953125 67.47265625 C-71.11954663 58.86688871 -58.49877955 55.85375296 -44.4375 53.75 C-43.02164129 53.53503201 -41.60578886 53.32002261 -40.18994141 53.10498047 C-32.39333507 51.92775105 -24.59086933 50.7907499 -16.78125 49.703125 C-15.75902092 49.55815834 -15.75902092 49.55815834 -14.71614075 49.41026306 C-11.56950466 48.97839428 -8.62528536 48.75 -5.4375 48.75 C-6.53355177 37.80390401 -7.76282135 27.62574643 -15.56640625 19.2578125 C-23.23452201 13.07849583 -33.04909095 12.8237027 -42.4375 13.75 C-55.31656106 15.52429782 -67.76099709 19.93858731 -77.73828125 28.50390625 C-80.4375 30.75 -80.4375 30.75 -82.4375 30.75 C-82.4375 22.5 -82.4375 14.25 -82.4375 5.75 C-58.3027811 -6.84202725 -24.90397828 -16.12302001 0 0 Z M-20.13671875 69.703125 C-20.85301956 69.80461853 -21.56932037 69.90611206 -22.30732727 70.01068115 C-23.81619024 70.22662118 -25.32466762 70.44527127 -26.83276367 70.66650391 C-29.09991722 70.99635072 -31.36900586 71.30907321 -33.63867188 71.62109375 C-51.9844157 74.21965028 -51.9844157 74.21965028 -67.4375 83.75 C-72.05230867 90.64094736 -72.43638913 98.70739785 -71.4375 106.75 C-69.70486956 113.03462994 -65.75334089 117.15365944 -60.4375 120.75 C-51.08578366 125.77221803 -41.53480486 125.37049102 -31.4375 122.75 C-19.28602866 117.83303866 -13.42115088 110.5326388 -7.8203125 99.0546875 C-5.8904148 94.44255911 -5.31073158 90.42740059 -5.33984375 85.44921875 C-5.34306641 84.47275391 -5.34628906 83.49628906 -5.34960938 82.49023438 C-5.35798828 81.48283203 -5.36636719 80.47542969 -5.375 79.4375 C-5.37951172 78.41076172 -5.38402344 77.38402344 -5.38867188 76.32617188 C-5.40041816 73.80072118 -5.41684435 71.27539095 -5.4375 68.75 C-10.4221499 68.65163732 -15.2113199 68.9912939 -20.13671875 69.703125 Z " fill="#865EC5" transform="translate(1045.4375,128.25)"/>
<path d="M0 0 C15.0406435 12.82078949 22.5679354 31.43423284 24.21875 50.8984375 C25.59512459 74.19369732 22.73554159 97.48899706 7.09765625 115.890625 C6.47761719 116.55320313 5.85757812 117.21578125 5.21875 117.8984375 C4.52652344 118.64351562 3.83429688 119.38859375 3.12109375 120.15625 C-11.28124479 134.3421928 -30.6122837 139.15676144 -50.29907227 139.1472168 C-66.26400612 138.93463649 -80.94893015 134.54136523 -93.78125 124.8984375 C-94.37292969 124.47175781 -94.96460938 124.04507813 -95.57421875 123.60546875 C-109.96683862 112.37461435 -116.77053947 94.56479663 -119.1796875 76.9921875 C-119.46027829 74.29244913 -119.65040832 71.60931359 -119.78125 68.8984375 C-119.8225 68.13660156 -119.86375 67.37476563 -119.90625 66.58984375 C-120.50734123 44.31190003 -114.78768881 22.67010367 -99.23046875 6.21484375 C-73.43874657 -18.17828424 -28.6153235 -21.62225287 0 0 Z M-82.03515625 21.7734375 C-93.21252464 35.37631984 -95.89855786 53.84660064 -94.78125 70.8984375 C-92.61915918 86.80637578 -88.02596356 99.37490925 -75.34375 109.7734375 C-64.36997419 117.67827601 -51.86744229 119.8457762 -38.53125 118.3984375 C-27.27863803 116.38629618 -17.06408986 110.85212904 -10.1015625 101.6875 C0.6067164 85.225519 1.87541323 62.48148974 -1.95898438 43.59912109 C-4.90535179 31.24074667 -10.74680377 20.08712781 -21.71484375 13.00390625 C-41.98781701 2.38964891 -66.04425078 4.78511137 -82.03515625 21.7734375 Z " fill="#865EC5" transform="translate(1935.78125,134.1015625)"/>
<path d="M0 0 C7.92 0 15.84 0 24 0 C24.01981934 2.45034668 24.03963867 4.90069336 24.06005859 7.42529297 C24.12746653 15.59164814 24.20509296 23.75788429 24.28752708 31.92410088 C24.33712018 36.86717899 24.38344797 41.81023944 24.421875 46.75341797 C24.45920195 51.53868724 24.50567825 56.3237938 24.55806351 61.10892105 C24.57635937 62.91938499 24.59155489 64.72988346 24.60334396 66.54040146 C24.66483451 75.67156805 24.91622594 84.7195837 25.88134766 93.80517578 C25.99275117 94.88564588 25.99275117 94.88564588 26.10640526 95.98794365 C27.18510063 105.12759626 30.03877803 114.67161639 37 121 C47.36228925 127.79036908 58.96478311 128.7099899 71.0546875 126.421875 C80.1675126 123.21928471 87.09616132 116.39244271 91.5 107.9375 C95.16865786 100.16293145 96.29730685 92.94093146 96.31884766 84.46289062 C96.32889328 83.54488678 96.3389389 82.62688293 96.34928894 81.68106079 C96.3799669 78.6727964 96.39711309 75.66462036 96.4140625 72.65625 C96.43278653 70.56017301 96.45236086 68.46410346 96.4727478 66.36804199 C96.52394443 60.87069089 96.56363678 55.37331539 96.60089111 49.87585449 C96.6410091 44.25832138 96.69206581 38.64088869 96.7421875 33.0234375 C96.83879915 22.01568874 96.92223918 11.00789808 97 0 C105.25 0 113.5 0 122 0 C122 48.18 122 96.36 122 146 C113.75 146 105.5 146 97 146 C96.67 139.73 96.34 133.46 96 127 C94.68 128.52625 93.36 130.0525 92 131.625 C82.3917984 142.25407302 71.61163198 148.2772263 57.21484375 149.2578125 C42.19999801 149.82058521 27.39164543 147.34437561 15.828125 137.0703125 C-1.64683903 119.135481 -0.16199245 92.27043523 -0.09765625 69.04296875 C-0.09578731 67.04372697 -0.09436566 65.04448472 -0.09336853 63.04524231 C-0.08958083 57.82574156 -0.07978327 52.60626938 -0.06866455 47.38677979 C-0.05836914 42.04366441 -0.05385362 36.70054435 -0.04882812 31.35742188 C-0.03815703 20.90493345 -0.02059133 10.45247359 0 0 Z " fill="#865EC5" transform="translate(801,124)"/>
<path d="M0 0 C7.92 0 15.84 0 24 0 C24.01458252 2.8452832 24.02916504 5.69056641 24.04418945 8.62207031 C24.09468732 18.05775128 24.16130879 27.49326986 24.23571491 36.92879105 C24.28030653 42.64554668 24.31958713 48.36223288 24.34643555 54.07910156 C24.37258059 59.60354658 24.41306148 65.12772279 24.46318626 70.65200043 C24.47977951 72.75210966 24.49134047 74.85226531 24.49761391 76.95243073 C24.40577723 99.31365828 24.40577723 99.31365828 34.375 118.75 C44.01295759 127.01110651 52.73711989 127.80359123 64.90039062 127.18212891 C74.12340817 126.38208576 81.11031804 120.84421662 87 114 C96.60253339 98.72324234 96.15674404 82.79532813 96.31640625 65.4296875 C96.3370102 63.53825461 96.3580075 61.64682598 96.37937927 59.75540161 C96.43424492 54.80716417 96.48380891 49.85888767 96.53222656 44.9105835 C96.58270293 39.84920832 96.63825177 34.787889 96.69335938 29.7265625 C96.80050583 19.81775455 96.90157562 9.90889843 97 0 C104.92 0 112.84 0 121 0 C121 48.18 121 96.36 121 146 C113.08 146 105.16 146 97 146 C96.505 135.605 96.505 135.605 96 125 C94.02 127.64 92.04 130.28 90 133 C80.98903807 143.03107082 69.71496678 148.38140608 56.2578125 149.23828125 C40.35735197 149.66745127 26.29120483 147.05466471 13.984375 136.2265625 C-0.93595809 120.85213232 -0.43701799 98.98321616 -0.29296875 79.1015625 C-0.28736287 76.81228923 -0.28309747 74.52301231 -0.28010559 72.23373413 C-0.26873491 66.25298864 -0.23933579 60.27246704 -0.20599365 54.29180908 C-0.17512385 48.17113268 -0.16156434 42.05041957 -0.14648438 35.9296875 C-0.11445768 23.95301158 -0.06175443 11.97655957 0 0 Z " fill="#865EC5" transform="translate(1432,124)"/>
<path d="M0 0 C0 7.92 0 15.84 0 24 C-3.45244318 23.13688921 -6.21304445 22.06878607 -9.4375 20.625 C-22.7181479 15.07799815 -37.88291019 12.05096552 -51.84765625 17.0234375 C-56.52240367 19.14446628 -59.87744826 21.47912345 -62.9375 25.625 C-64.79243577 31.51714893 -65.32691974 38.10612897 -62.5625 43.8125 C-56.95024537 51.64407784 -46.89538361 54.97766531 -38.3125 58.4375 C-35.99490683 59.39948922 -33.67848753 60.36431163 -31.36328125 61.33203125 C-30.26193848 61.79174316 -29.1605957 62.25145508 -28.02587891 62.72509766 C-13.66240884 68.77690019 -1.6349238 75.70933288 5.078125 90.3515625 C8.28087965 99.55269663 7.82826492 110.76854418 3.80859375 119.625 C-3.51925709 132.72328379 -14.67308501 139.78627065 -28.875 143.875 C-49.56831037 149.13150006 -70.62640366 146.07233181 -90 138 C-90 129.42 -90 120.84 -90 112 C-85.93108544 113.62756582 -82.24275032 115.40758589 -78.375 117.4375 C-63.60114589 124.93744791 -48.23369025 126.71108009 -32 123 C-27.38082559 121.25511956 -24.05008058 119.34541574 -21 115.4375 C-18.91382448 110.35244716 -17.90829464 105.4000703 -19.6484375 99.98046875 C-23.86720719 90.55133821 -31.7527625 86.82347857 -40.9375 83.0625 C-41.95295898 82.63211426 -42.96841797 82.20172852 -44.01464844 81.75830078 C-47.8176857 80.14756731 -51.63040895 78.56163871 -55.45166016 76.99462891 C-69.644825 71.17091319 -82.0299758 64.6879626 -88.375 50 C-91.56163747 40.35975218 -91.46060677 28.89741792 -87.44921875 19.5234375 C-79.46460647 5.62031208 -66.84014738 -0.89563924 -52 -5 C-35.67565234 -8.78164321 -15.07988915 -7.53994457 0 0 Z " fill="#865EC5" transform="translate(772,127)"/>
<path d="M0 0 C0 14.19 0 28.38 0 43 C12.21 43 24.42 43 37 43 C37 49.93 37 56.86 37 64 C24.79 64 12.58 64 0 64 C0.14924927 78.12797847 0.14924927 78.12797847 0.30664062 92.25585938 C0.37271464 98.02495972 0.43787136 103.79405945 0.49731445 109.56323242 C0.5453432 114.21873969 0.59769502 118.87418076 0.65294075 123.52960777 C0.67319136 125.29842143 0.6919308 127.06725312 0.70907402 128.83609962 C-0.19914948 148.94845787 -0.19914948 148.94845787 7.48046875 166.67578125 C12.11364994 170.71343787 18.2788614 170.35208271 24.0859375 170.265625 C27.99322333 169.9094649 30.55195727 168.83406528 34 167 C34.99 166.67 35.98 166.34 37 166 C37 172.93 37 179.86 37 187 C26.4009434 191.71069182 26.4009434 191.71069182 20 192 C19.26394531 192.0515625 18.52789063 192.103125 17.76953125 192.15625 C7.12125262 192.57314835 -3.37159903 190.67507761 -11.87890625 184.01171875 C-20.67919277 175.66522232 -23.60082116 164.66220781 -24.09012032 152.81861877 C-24.12194411 150.45791761 -24.12384955 148.09917419 -24.11352539 145.73828125 C-24.11367142 144.84953812 -24.11381744 143.96079498 -24.1139679 143.04512024 C-24.11327631 140.1342212 -24.10551951 137.22338773 -24.09765625 134.3125 C-24.09578939 132.28369176 -24.09436675 130.25488307 -24.09336853 128.22607422 C-24.08956447 122.90621682 -24.07975235 117.58638706 -24.06866455 112.26654053 C-24.0584049 106.83004124 -24.05386118 101.39353745 -24.04882812 95.95703125 C-24.03812807 85.30467345 -24.0205485 74.65234336 -24 64 C-32.25 64 -40.5 64 -49 64 C-49 57.07 -49 50.14 -49 43 C-40.75 43 -32.5 43 -24 43 C-24 31.45 -24 19.9 -24 8 C-12.70813397 3.48325359 -12.70813397 3.48325359 -6.9375 1.75 C-5.83277344 1.41484375 -4.72804688 1.0796875 -3.58984375 0.734375 C-1 0 -1 0 0 0 Z " fill="#865EC5" transform="translate(1372,81)"/>
<path d="M0 0 C7.92 0 15.84 0 24 0 C24 71.28 24 142.56 24 216 C16.08 216 8.16 216 0 216 C0 144.72 0 73.44 0 0 Z " fill="#865FC5" transform="translate(1099,54)"/>
<path d="M0 0 C8.25 0 16.5 0 25 0 C25 48.18 25 96.36 25 146 C17.08 146 9.16 146 1 146 C0 145 0 145 -0.12304783 142.61243343 C-0.12212604 141.54407537 -0.12120424 140.4757173 -0.12025452 139.37498474 C-0.12162918 138.15355774 -0.12300385 136.93213074 -0.12442017 135.6736908 C-0.12088056 134.30776953 -0.11724574 132.94184852 -0.11352539 131.57592773 C-0.11324352 130.14722699 -0.11340124 128.7185261 -0.1139679 127.28982544 C-0.11425589 123.39950028 -0.10835887 119.50920569 -0.10139394 115.61888766 C-0.0951607 111.55761795 -0.09455663 107.49634761 -0.09336853 103.43507385 C-0.09025512 95.73921067 -0.08204161 88.04336162 -0.07201904 80.34750468 C-0.06085819 71.58827886 -0.05534753 62.82905239 -0.05032361 54.06982124 C-0.03985901 36.04653925 -0.02205896 18.02327127 0 0 Z " fill="#8560C7" transform="translate(1760,124)"/>
<path d="M0 0 C7.92 0 15.84 0 24 0 C24 48.18 24 96.36 24 146 C16.08 146 8.16 146 0 146 C0 97.82 0 49.64 0 0 Z " fill="#855FC4" transform="translate(629,124)"/>
<path d="M0 0 C4.07714407 2.71809604 7.04329194 5.28423176 8.44921875 10.01953125 C9.29900371 15.38322774 8.6460621 19.12192808 5.8125 23.875 C1.94533764 27.84501242 -1.32010839 30.02587222 -6.875 30.1875 C-12.18217459 30.12614538 -14.95653866 29.06980754 -19.1875 25.875 C-22.39425914 22.02688903 -23.1592997 17.80065261 -23.1875 12.875 C-22.39126664 7.10230813 -20.30473932 4.56365552 -15.94140625 1.0390625 C-11.04168788 -2.2128664 -5.31571742 -1.87613556 0 0 Z " fill="#865EC5" transform="translate(1780.1875,58.125)"/>
<path d="M0 0 C4.09661801 2.30636368 6.3371234 4.94278632 7.75 9.4375 C8.66231101 14.80683045 8.11718005 19.35884174 5.06640625 23.9296875 C1.96678459 27.47999599 -1.16475733 29.11694764 -5.71484375 29.81640625 C-12.4804446 30.13179516 -15.95360641 28.27921861 -21.0625 23.875 C-24.04973658 20.25887151 -23.58197863 15.60147987 -23.5234375 11.1640625 C-23.13073034 7.24821107 -21.94945694 5.27539063 -19.25 2.4375 C-13.28168615 -2.38248004 -6.99951667 -2.99979286 0 0 Z " fill="#875EC5" transform="translate(649.25,58.5625)"/>
</svg>
